<svg width="100" height="101" viewBox="0 0 100 101" fill="none" xmlns="http://www.w3.org/2000/svg">
<path fill-rule="evenodd" clip-rule="evenodd" d="M89.375 50.0147C89.375 57.9259 87.029 65.6595 82.6338 72.2375C78.2385 78.8154 71.9913 83.9423 64.6822 86.9698C57.3732 89.9973 49.3306 90.7894 41.5714 89.246C33.8122 87.7026 26.6848 83.893 21.0907 78.2989C15.4966 72.7048 11.687 65.5775 10.1436 57.8183C8.60022 50.059 9.39228 42.0164 12.4198 34.7073C15.4473 27.3983 20.5742 21.1511 27.1522 16.7559C33.7301 12.3606 41.4638 10.0147 49.3751 10.0147C54.6293 10.0098 59.8329 11.0411 64.6881 13.0496C69.5433 15.058 73.9547 18.0042 77.67 21.7195C81.3853 25.4348 84.3315 29.8463 86.34 34.7016C88.3484 39.5568 89.3799 44.7605 89.375 50.0147Z" fill="white"/>
<path fill-rule="evenodd" clip-rule="evenodd" d="M38.9668 78.1648H39.1893H40.2262C40.9308 78.2507 41.6109 78.4775 42.2261 78.8315V78.6093C41.9651 77.6228 41.631 76.6572 41.2263 75.7204C41.9412 76.3993 42.4867 77.2365 42.8188 78.1648C42.9789 78.5855 43.1027 79.0192 43.1891 79.4611C43.493 79.7376 43.7778 80.0346 44.0411 80.35C44.0857 78.5373 43.7579 76.7347 43.0781 75.0537C42.6465 74.0419 41.9763 73.1496 41.125 72.453C40.2736 71.7564 39.2664 71.2764 38.1892 71.0537C38.5455 72.2681 38.8177 73.5056 39.0039 74.7574C39.041 75.5722 38.7817 76.7203 38.9668 78.1648Z" fill="#1F5DA0"/>
<path fill-rule="evenodd" clip-rule="evenodd" d="M39.1902 78.6074H40.19C40.9909 78.7353 41.7541 79.0369 42.4259 79.4912C43.0978 79.9455 43.6619 80.5414 44.0789 81.237V81.4222C42.8671 81.7254 41.6242 81.887 40.3752 81.9037C39.6596 81.861 38.9515 81.7367 38.2642 81.5333C38.8341 82.1391 39.6183 82.4981 40.4493 82.5333C41.5234 82.5333 44.153 82.3111 44.153 82.3111H44.6345L44.153 82.6444C42.482 83.5469 40.6076 84.0059 38.7087 83.9777H37.0049C35.8994 83.7718 34.8577 83.3094 33.9635 82.6275C33.0694 81.9456 32.3477 81.0634 31.8567 80.0518V79.8296H32.0789C32.0789 79.8296 34.5234 79.5333 35.4864 79.3481L36.3752 79.1259C37.2872 78.8324 38.2335 78.6582 39.1902 78.6074Z" fill="#1F5DA0"/>
<path fill-rule="evenodd" clip-rule="evenodd" d="M44.3005 80.7559L45.0783 81.4596L43.9302 81.978C43.9302 81.978 46.9672 81.9781 47.1153 81.5707C47.2635 81.1633 45.9671 81.4966 44.3005 80.7559Z" fill="#1F5DA0"/>
<path fill-rule="evenodd" clip-rule="evenodd" d="M29.0793 72.1978H29.2646L30.2275 72.6051C30.823 72.9359 31.3609 73.3613 31.8202 73.8645C31.7974 73.8048 31.7974 73.7388 31.8202 73.6792C31.88 72.6801 31.88 71.6783 31.8202 70.6792C32.2669 71.5513 32.5076 72.5143 32.5239 73.4941C32.5545 73.9256 32.5545 74.3588 32.5239 74.7904C32.7263 75.1411 32.8878 75.5139 33.0053 75.9015C33.6466 74.264 33.9369 72.51 33.8572 70.7533C33.7969 69.6774 33.4797 68.6316 32.9319 67.7037C32.3841 66.7757 31.6218 65.9925 30.709 65.4199C30.6361 66.6624 30.4877 67.8992 30.2646 69.1236C30.0053 69.8644 29.3756 70.7904 29.0793 72.1978Z" fill="#1F5DA0"/>
<path fill-rule="evenodd" clip-rule="evenodd" d="M29.1526 72.6421L30.0415 73.0495C30.7329 73.435 31.3326 73.9657 31.7993 74.605C32.266 75.2444 32.5887 75.9773 32.7452 76.7532V76.9754H32.56C31.2949 76.8462 30.0507 76.56 28.8563 76.1236C28.2329 75.8336 27.6378 75.4865 27.0786 75.0865C27.2294 75.4522 27.451 75.7844 27.7306 76.0641C28.0103 76.3438 28.3426 76.5654 28.7082 76.7162C29.6712 77.1236 32.2267 77.8272 32.2267 77.8272L32.7822 78.0125H32.2267C30.4129 78.3096 28.5522 78.0914 26.8564 77.3828C26.3343 77.1987 25.8267 76.9759 25.3378 76.7162C24.386 76.1593 23.5783 75.3864 22.98 74.46C22.3817 73.5336 22.0094 72.4795 21.8933 71.3828V71.1235H22.1156L25.3748 71.8643H26.2267C27.236 71.9724 28.2228 72.2347 29.1526 72.6421Z" fill="#1F5DA0"/>
<path fill-rule="evenodd" clip-rule="evenodd" d="M33.1165 76.3479L33.5979 77.2738H32.3757C32.3757 77.2738 35.1535 78.3109 35.4128 78.0146C35.6721 77.7183 34.3758 77.6072 33.1165 76.3479Z" fill="#1F5DA0"/>
<path fill-rule="evenodd" clip-rule="evenodd" d="M21.7449 63.1649C22.0094 63.3802 22.257 63.6155 22.4855 63.8686C22.9239 64.3747 23.2744 64.9505 23.5226 65.5723V65.3872C23.904 64.5086 24.2258 63.6053 24.4856 62.6834C24.6055 63.6171 24.5169 64.5658 24.2263 65.4612C24.0801 65.8674 23.9069 66.2634 23.7078 66.6464C23.7588 67.0274 23.7588 67.4135 23.7078 67.7945C24.8254 66.515 25.6586 65.0127 26.1523 63.3871C26.4325 62.3755 26.4712 61.3123 26.2653 60.283C26.0595 59.2538 25.6148 58.2872 24.9671 57.4612C24.5258 58.5167 24.0186 59.5435 23.4485 60.5353C23.3374 61.3501 22.4115 62.0168 21.7449 63.1649Z" fill="#1F5DA0"/>
<path fill-rule="evenodd" clip-rule="evenodd" d="M21.67 63.6068L22.3367 64.2734C22.8498 64.8528 23.2287 65.5383 23.4463 66.2809C23.664 67.0236 23.7151 67.8051 23.596 68.5697V68.7919H23.4107C22.3575 68.2425 21.3645 67.5846 20.4478 66.829C19.9799 66.3283 19.5468 65.7962 19.1515 65.2364C19.2145 66.0283 19.5713 66.768 20.1516 67.3105C20.8923 68.0142 23.0034 69.4957 23.0034 69.4957L23.4478 69.8661H22.8923C21.1299 69.5198 19.5001 68.6857 18.1885 67.4587C17.7811 67.0883 17.4107 66.7179 17.0403 66.3105C16.3478 65.4857 15.8595 64.5092 15.615 63.4603C15.3704 62.4114 15.3766 61.3196 15.633 60.2735V60.0513H15.8182C15.8182 60.0513 17.7441 61.3476 18.5589 61.8291L19.3367 62.1994C20.1676 62.5742 20.9508 63.0467 21.67 63.6068Z" fill="#1F5DA0"/>
<path fill-rule="evenodd" clip-rule="evenodd" d="M24.0787 68.3464V69.3465L22.9675 69.0131C22.9675 69.0131 25.1527 70.902 25.486 70.7169C25.8194 70.5317 24.8194 69.939 24.0787 68.3464Z" fill="#1F5DA0"/>
<path fill-rule="evenodd" clip-rule="evenodd" d="M18.3015 53.3842V53.5695C18.4593 53.8424 18.5955 54.1272 18.7089 54.4214C18.9385 55.0142 19.0758 55.6388 19.1162 56.2732C19.7277 55.6319 20.2968 54.9513 20.82 54.2361C20.6346 55.1004 20.2546 55.9111 19.7088 56.6065L18.894 57.4583C18.827 57.8244 18.7279 58.1838 18.5978 58.5324C19.9789 57.758 21.1786 56.6972 22.1163 55.4213C22.6844 54.6127 23.0541 53.6818 23.1956 52.7038C23.3372 51.7258 23.2466 50.7282 22.9311 49.7917C22.2185 50.5852 21.4511 51.3276 20.6347 52.0139C20.3014 52.3102 19.3015 52.6065 18.3015 53.3842Z" fill="#1F5DA0"/>
<path fill-rule="evenodd" clip-rule="evenodd" d="M18.0776 53.7557C18.2354 54.0158 18.3717 54.2883 18.4851 54.5705C18.7587 55.2478 18.8807 55.9769 18.8423 56.7063C18.8039 57.4358 18.6061 58.148 18.2629 58.7928C17.493 57.9727 16.8217 57.0653 16.2629 56.0891C15.9846 55.4934 15.7615 54.8735 15.5962 54.2372C15.4056 54.9687 15.4844 55.7443 15.8184 56.4224C16.2629 57.2742 17.6703 59.2742 17.6703 59.3113L17.9296 59.7557L17.4852 59.4965C16.0292 58.6002 14.8498 57.3183 14.0777 55.7928C13.8184 55.3422 13.5955 54.8715 13.4111 54.3854C13.0671 53.4321 12.945 52.4128 13.0541 51.4052C13.1632 50.3976 13.5006 49.4282 14.0406 48.5706C14.0406 48.5706 15.3369 50.3854 15.8925 51.0521L16.4481 51.6447C17.0915 52.265 17.6405 52.9762 18.0776 53.7557Z" fill="#1F5DA0"/>
<path fill-rule="evenodd" clip-rule="evenodd" d="M18.7086 58.719L18.5235 59.682L17.6345 59.0154C17.6345 59.0154 19.005 61.3857 19.3383 61.3487C19.6716 61.3117 18.9308 60.3857 18.7086 58.719Z" fill="#1F5DA0"/>
<path fill-rule="evenodd" clip-rule="evenodd" d="M18.4856 43.568V43.7532C18.5198 44.0609 18.5198 44.3715 18.4856 44.6791C18.515 45.3045 18.4399 45.9304 18.2634 46.531C19.0329 46.1503 19.7754 45.7172 20.4856 45.2347C20.0472 45.9513 19.4521 46.5591 18.7449 47.0125L17.7078 47.531C17.4856 47.8643 17.3004 48.1606 17.1152 48.3828C18.6165 48.1665 20.0482 47.609 21.3004 46.7532C22.086 46.2077 22.7307 45.4832 23.1814 44.6397C23.6322 43.7962 23.876 42.8576 23.893 41.9014C22.973 42.3874 22.0201 42.8081 21.0411 43.1606C20.1828 43.252 19.3298 43.3879 18.4856 43.568Z" fill="#1F5DA0"/>
<path fill-rule="evenodd" clip-rule="evenodd" d="M18.1525 43.8278V44.7167C18.173 45.4128 18.041 46.105 17.7659 46.7447C17.4908 47.3845 17.0792 47.9564 16.5599 48.4204V48.2352C16.1362 47.2073 15.8136 46.1405 15.5969 45.05C15.5413 44.434 15.5413 43.8142 15.5969 43.1982C15.3853 43.4886 15.2337 43.8185 15.151 44.1683C15.0683 44.518 15.0562 44.8808 15.1154 45.2353C15.1154 46.1612 15.8562 48.4575 15.8562 48.4945V49.013L15.5229 48.6056C14.5206 47.2799 13.8591 45.7283 13.5969 44.0871C13.5969 43.6056 13.5969 43.0871 13.5969 42.6057C13.5779 41.6236 13.7931 40.6511 14.2246 39.7688C14.6561 38.8864 15.2916 38.1195 16.0784 37.5315C16.0784 37.5315 16.708 39.6056 17.0043 40.4204C17.0043 40.6426 17.1894 40.8649 17.3006 41.1612C17.7139 42.0034 18.001 42.9019 18.1525 43.8278Z" fill="#1F5DA0"/>
<path fill-rule="evenodd" clip-rule="evenodd" d="M17.1524 48.6072L16.671 49.422L16.0784 48.4961C16.0784 48.4961 16.5599 51.1256 16.8932 51.1997C17.2265 51.2738 16.782 50.1628 17.1524 48.6072Z" fill="#1F5DA0"/>
<path fill-rule="evenodd" clip-rule="evenodd" d="M21.8932 34.978V35.1632L21.671 36.052C21.4981 36.6279 21.222 37.1675 20.8562 37.6446H21.0415C21.8668 37.5615 22.6842 37.4129 23.4859 37.2002C22.8419 37.7011 22.0961 38.055 21.3008 38.2372H20.1896C19.9419 38.4553 19.6682 38.642 19.3748 38.7928C20.8118 39.1318 22.308 39.1318 23.7451 38.7928C24.612 38.5135 25.4 38.0319 26.044 37.3879C26.688 36.7439 27.1695 35.956 27.4488 35.0891C26.462 35.1489 25.4726 35.1489 24.4859 35.0891C23.9303 35.4225 23.0784 35.0521 21.8932 34.978Z" fill="#1F5DA0"/>
<path fill-rule="evenodd" clip-rule="evenodd" d="M21.5224 35.1265L21.3002 35.9413C21.1013 36.5911 20.7629 37.1896 20.3087 37.695C19.8545 38.2003 19.2954 38.6004 18.6705 38.8673H18.4853V38.6821C18.4432 37.6046 18.5051 36.5254 18.6705 35.4598C18.8072 34.8726 19.0058 34.3015 19.2631 33.7562C18.9726 33.9506 18.7244 34.2017 18.5335 34.4945C18.3426 34.7872 18.2128 35.1156 18.152 35.4598C17.9668 36.3487 17.7816 38.6451 17.7816 38.6821V39.1635L17.5965 38.6821C17.0824 37.1427 16.9801 35.4955 17.3001 33.9043C17.3806 33.4285 17.4919 32.9583 17.6335 32.4969C17.9416 31.6155 18.455 30.82 19.1312 30.176C19.8074 29.532 20.627 29.058 21.5224 28.7932H21.7075V28.9784C21.7075 28.9784 21.7075 31.0895 21.7075 31.9414C21.6927 32.2004 21.6927 32.4601 21.7075 32.7191C21.732 33.5259 21.67 34.333 21.5224 35.1265Z" fill="#1F5DA0"/>
<path fill-rule="evenodd" clip-rule="evenodd" d="M19.0408 39.126L18.3742 39.6816L18.1149 38.6445C18.1149 38.6445 17.7075 41.2 18.1149 41.3852C18.5223 41.5704 18.226 40.4223 19.0408 39.126Z" fill="#1F5DA0"/>
<path fill-rule="evenodd" clip-rule="evenodd" d="M28.0797 27.499V27.6843C27.941 27.9447 27.7799 28.1925 27.5982 28.4249C27.243 28.8967 26.8035 29.2986 26.3018 29.6102H26.4871C27.2861 29.8347 28.1046 29.9835 28.9315 30.0546C28.1575 30.316 27.3329 30.3921 26.5241 30.2768L25.4501 29.9806C25.1406 30.105 24.8172 30.192 24.4871 30.2397C25.726 31.0481 27.1312 31.5672 28.5982 31.7583C29.5052 31.8452 30.4197 31.7123 31.2643 31.3706C32.1089 31.0289 32.8587 30.4884 33.4501 29.7953C32.4849 29.5479 31.533 29.2512 30.5981 28.9064C29.7869 28.3884 28.946 27.9185 28.0797 27.499Z" fill="#1F5DA0"/>
<path fill-rule="evenodd" clip-rule="evenodd" d="M27.6725 27.4977C27.5337 27.7463 27.3725 27.9819 27.191 28.2014C26.802 28.7466 26.2917 29.1943 25.7005 29.5092C25.1093 29.8241 24.4532 29.9976 23.7836 30.0161H23.5984V29.831C23.9154 28.8084 24.3245 27.8168 24.8206 26.8681C25.1484 26.3567 25.5336 25.8845 25.9687 25.4607C25.636 25.538 25.3229 25.6831 25.0488 25.887C24.7748 26.0909 24.5458 26.3493 24.3762 26.6459C23.8947 27.4237 22.9318 29.5347 22.9318 29.5717L22.7095 30.0161V29.4977C22.7492 27.8773 23.2087 26.2949 24.0429 24.9051C24.2753 24.4812 24.535 24.0729 24.8206 23.6829C25.3966 22.9487 26.1428 22.366 26.9947 21.9853C27.8466 21.6045 28.7784 21.4372 29.7095 21.4977C29.7095 21.4977 28.8947 23.4606 28.6354 24.2384L28.4132 24.9792C28.3028 25.8529 28.0527 26.7032 27.6725 27.4977Z" fill="#1F5DA0"/>
<path fill-rule="evenodd" clip-rule="evenodd" d="M24.0409 30.3871L23.189 30.6835V29.6094C23.189 29.6094 21.9298 31.9057 22.115 32.1649C22.3002 32.4242 22.8187 31.313 24.0409 30.3871Z" fill="#1F5DA0"/>
<path fill-rule="evenodd" clip-rule="evenodd" d="M35.8944 23.9058C35.6885 24.0987 35.4653 24.2723 35.2276 24.4243C34.7584 24.7475 34.2297 24.9741 33.6721 25.091C34.3262 25.5692 35.0201 25.9905 35.7462 26.3502C34.9512 26.3083 34.1772 26.0799 33.4869 25.6836L32.598 25.0539C32.2784 25.0958 31.9546 25.0958 31.635 25.0539C32.5019 26.2101 33.6153 27.159 34.8943 27.8317C35.6709 28.2404 36.5352 28.454 37.4128 28.454C38.2903 28.454 39.1547 28.2404 39.9313 27.8317C39.1257 27.2929 38.3584 26.6989 37.635 26.054C37.2276 25.5725 36.7462 24.7206 35.8944 23.9058Z" fill="#1F5DA0"/>
<path fill-rule="evenodd" clip-rule="evenodd" d="M35.5607 23.7556L34.894 24.2371C34.3573 24.6013 33.7427 24.8347 33.0995 24.9183C32.4562 25.0019 31.8023 24.9335 31.1903 24.7186H31.0052C31.6036 23.8852 32.2999 23.1267 33.0792 22.4594C33.5428 22.1048 34.0388 21.7947 34.5607 21.5335C33.8957 21.4805 33.2349 21.6787 32.7088 22.089C32.0422 22.6446 30.4866 24.2371 30.4866 24.2371L30.1162 24.5704V24.089C30.6884 22.645 31.6189 21.3703 32.82 20.3853L33.8941 19.5334C34.6691 19.0684 35.5441 18.7955 36.4461 18.7375C37.3481 18.6795 38.251 18.8381 39.0792 19.2001C39.0792 19.2001 37.7088 20.6816 37.2274 21.3482C37.0617 21.532 36.913 21.7303 36.7829 21.9408C36.4426 22.5883 36.0327 23.1968 35.5607 23.7556Z" fill="#1F5DA0"/>
<path fill-rule="evenodd" clip-rule="evenodd" d="M31.3016 25.1623H30.4498L30.8942 24.1995C30.8942 24.1995 29.0423 25.8291 29.1164 26.1624C29.1905 26.4958 29.8201 25.5698 31.3016 25.1623Z" fill="#1F5DA0"/>
<path fill-rule="evenodd" clip-rule="evenodd" d="M59.8183 78.1611H59.448H58.374C57.681 78.2469 57.0129 78.4739 56.411 78.8279C56.411 78.8279 56.411 78.8279 56.411 78.6056C56.672 77.6192 57.0063 76.6535 57.411 75.7168C56.6919 76.3994 56.135 77.2347 55.7814 78.1611C55.7814 78.4944 55.559 78.9759 55.4109 79.4574C55.1176 79.7331 54.8454 80.0303 54.5962 80.3464C54.6078 78.5681 54.9992 76.8129 55.7443 75.1982C56.1785 74.1881 56.8495 73.2975 57.7004 72.6013C58.5513 71.9051 59.5572 71.4238 60.6332 71.1982C60.2963 72.4175 60.0242 73.6538 59.8183 74.9019C59.8715 75.9877 59.8715 77.0753 59.8183 78.1611Z" fill="#1F5DA0"/>
<path fill-rule="evenodd" clip-rule="evenodd" d="M59.4498 78.6069C60.4152 78.6349 61.3735 78.7842 62.3017 79.0513L63.1905 79.2735C64.1535 79.2735 66.5608 79.755 66.5979 79.755H66.8572V79.9772C66.3735 80.9941 65.6541 81.8808 64.7587 82.5636C63.8633 83.2465 62.8176 83.7057 61.709 83.9031H60.0422C58.1418 83.9449 56.264 83.4849 54.5979 82.5697L54.0793 82.2364H54.6721C54.6721 82.2364 57.4128 82.4957 58.3758 82.4586C59.1957 82.4217 59.9676 82.0623 60.5237 81.4587C59.8379 81.6683 59.1288 81.7927 58.4126 81.8291C57.1631 81.8194 55.9194 81.6577 54.7089 81.3476H54.4867V81.1623C54.8724 80.4784 55.4044 79.8881 56.0447 79.4335C56.6849 78.979 57.4175 78.6714 58.1904 78.5327L59.4498 78.6069Z" fill="#1F5DA0"/>
<path fill-rule="evenodd" clip-rule="evenodd" d="M54.4855 80.7559L53.6708 81.4596L54.8189 81.978C54.8189 81.978 51.782 81.9781 51.6709 81.5707C51.5598 81.1633 52.8188 81.4966 54.4855 80.7559Z" fill="#1F5DA0"/>
<path fill-rule="evenodd" clip-rule="evenodd" d="M69.7085 72.1978H69.4863L68.5604 72.6051C67.9649 72.9359 67.427 73.3613 66.9678 73.8645C66.9536 73.8036 66.9536 73.7401 66.9678 73.6792C66.8951 72.6805 66.8951 71.6779 66.9678 70.6792C66.5422 71.5574 66.3145 72.5183 66.3009 73.4941C66.3009 73.8274 66.3009 74.3089 66.3009 74.7904C66.1139 75.1487 65.953 75.52 65.8194 75.9015C65.1963 74.259 64.9068 72.5089 64.9677 70.7533C65.0409 69.6762 65.3676 68.6317 65.9212 67.7049C66.4747 66.7781 67.2393 65.9951 68.1528 65.4199C68.2073 66.6621 68.3435 67.8993 68.5604 69.1236C69.0037 70.1246 69.3871 71.1512 69.7085 72.1978Z" fill="#1F5DA0"/>
<path fill-rule="evenodd" clip-rule="evenodd" d="M69.6348 72.644C70.5167 72.3274 71.4399 72.1403 72.3755 72.0884H73.2643L76.5236 71.3477H76.7458V71.4958C76.6298 72.5925 76.2577 73.6466 75.6594 74.573C75.0611 75.4994 74.2533 76.2723 73.3014 76.8292C72.8253 77.0889 72.3302 77.3117 71.8201 77.4958C70.1242 78.2044 68.2634 78.4226 66.4497 78.1255H65.8569L66.4126 77.9402C66.4126 77.9402 68.9681 77.2366 70.1163 76.8292C70.8557 76.513 71.4503 75.9317 71.783 75.1995C71.2238 75.5995 70.6285 75.9466 70.0051 76.2366C68.8081 76.6646 67.565 76.9506 66.3014 77.0885H66.0791V76.8662C66.226 76.0867 66.545 75.3497 67.0128 74.709C67.4805 74.0683 68.0853 73.54 68.783 73.1625L69.6348 72.644Z" fill="#1F5DA0"/>
<path fill-rule="evenodd" clip-rule="evenodd" d="M65.6705 76.3479L65.1519 77.2738H66.3742C66.3742 77.2738 63.5964 78.3109 63.3742 78.0146C63.152 77.7183 64.3742 77.6072 65.6705 76.3479Z" fill="#1F5DA0"/>
<path fill-rule="evenodd" clip-rule="evenodd" d="M77.0419 63.1649C76.7891 63.3805 76.5538 63.6159 76.3382 63.8686C75.8766 64.3643 75.5123 64.9421 75.2642 65.5723V65.3872C74.8653 64.5156 74.5431 63.6109 74.3012 62.6834C74.1813 63.6171 74.2699 64.5658 74.5604 65.4612C74.7066 65.8674 74.8797 66.2634 75.0788 66.6464C75.0491 67.0285 75.0491 67.4124 75.0788 67.7945C73.9744 66.5116 73.1542 65.0096 72.6715 63.3871C72.3892 62.3781 72.3459 61.3171 72.5452 60.2885C72.7445 59.2598 73.1809 58.2917 73.8197 57.4612C74.2609 58.5167 74.768 59.5435 75.3381 60.5353C75.9496 61.3828 76.5183 62.2604 77.0419 63.1649Z" fill="#1F5DA0"/>
<path fill-rule="evenodd" clip-rule="evenodd" d="M77.1154 63.6072C77.827 63.0263 78.6114 62.5408 79.4487 62.1629L80.1893 61.7925C81.0041 61.311 82.9302 60.0146 82.9302 60.0146V60.2369C83.1778 61.2835 83.1794 62.3732 82.9352 63.4206C82.691 64.468 82.2077 65.4447 81.5228 66.2739L80.3746 67.4221C79.0531 68.6348 77.4275 69.4667 75.6709 69.8294H75.1152L75.5597 69.4592C75.5597 69.4592 77.6338 67.9776 78.4116 67.2739C78.9842 66.7298 79.3285 65.9883 79.3746 65.1998C78.9908 65.7682 78.557 66.3013 78.0784 66.7925C77.1617 67.5481 76.1685 68.206 75.1152 68.7554V68.5332C75.0062 67.7687 75.0621 66.9897 75.2793 66.2486C75.4966 65.5075 75.8701 64.8216 76.3746 64.2369L77.1154 63.6072Z" fill="#1F5DA0"/>
<path fill-rule="evenodd" clip-rule="evenodd" d="M74.709 68.3464V69.3465L75.8572 69.0131C75.8572 69.0131 73.635 70.902 73.3387 70.7169C73.0424 70.5317 73.9312 69.939 74.709 68.3464Z" fill="#1F5DA0"/>
<path fill-rule="evenodd" clip-rule="evenodd" d="M80.45 53.3842V53.5695C80.45 53.8287 80.1908 54.1251 80.0426 54.4214C79.806 55.0105 79.6806 55.6384 79.6723 56.2732C79.0494 55.6423 78.4794 54.9609 77.9686 54.2361C78.15 55.0949 78.5165 55.9039 79.0426 56.6065L79.8946 57.4583C79.8946 57.8657 79.8946 58.2361 80.1538 58.5324C78.7881 57.7365 77.5925 56.6793 76.6353 55.4213C76.0752 54.609 75.7101 53.6784 75.5688 52.7019C75.4274 51.7254 75.5136 50.7295 75.8204 49.7917C76.5428 50.5757 77.3095 51.3175 78.1166 52.0139C78.9149 52.4349 79.6935 52.8921 80.45 53.3842Z" fill="#1F5DA0"/>
<path fill-rule="evenodd" clip-rule="evenodd" d="M80.6721 53.7553C81.1127 52.9891 81.6616 52.2906 82.3017 51.6812L82.8574 51.0886C83.413 50.4219 84.7092 48.6442 84.7092 48.6072C85.2606 49.4596 85.6075 50.4279 85.7231 51.4365C85.8387 52.4451 85.72 53.4669 85.3759 54.422L84.7092 55.8293C83.9132 57.3381 82.7392 58.6143 81.3019 59.533L80.8204 59.7923L81.1165 59.3479C81.1165 59.3479 82.4871 57.3109 82.9315 56.459C83.2866 55.7871 83.3663 55.0034 83.1538 54.2738C83.0002 54.9089 82.7893 55.5287 82.524 56.1257C81.9521 57.0933 81.282 57.9993 80.524 58.8293C80.1925 58.1806 80.0013 57.4694 79.963 56.7419C79.9247 56.0144 80.0402 55.287 80.3018 54.6072C80.4015 54.3134 80.5252 54.0285 80.6721 53.7553Z" fill="#1F5DA0"/>
<path fill-rule="evenodd" clip-rule="evenodd" d="M80.0051 58.719L80.1902 59.682L81.0793 59.0154C81.0793 59.0154 79.7089 61.3857 79.3755 61.3487C79.0422 61.3117 79.857 60.3857 80.0051 58.719Z" fill="#1F5DA0"/>
<path fill-rule="evenodd" clip-rule="evenodd" d="M80.2999 43.568V43.7532V44.6791C80.2635 45.3075 80.3516 45.9368 80.5592 46.531C79.7945 46.1412 79.0525 45.7084 78.3368 45.2347C78.7954 45.9476 79.4018 46.5539 80.1148 47.0125L81.1517 47.531C81.3226 47.8325 81.5211 48.1177 81.7444 48.3828C80.2329 48.1619 78.7901 47.6051 77.5221 46.7532C76.7455 46.2015 76.1095 45.4748 75.6655 44.632C75.2216 43.7892 74.9822 42.8538 74.9666 41.9014C75.8761 42.3825 76.8165 42.8032 77.7814 43.1606C78.6269 43.2563 79.4673 43.3922 80.2999 43.568Z" fill="#1F5DA0"/>
<path fill-rule="evenodd" clip-rule="evenodd" d="M80.5965 43.829C80.7705 42.9918 81.057 42.182 81.4482 41.4217L81.7446 40.6809C82.0409 39.8661 82.6334 37.792 82.6334 37.792C83.4134 38.3839 84.0418 39.1526 84.4668 40.0347C84.8917 40.9168 85.1011 41.8872 85.0778 42.866C85.1143 43.3592 85.1143 43.8545 85.0778 44.3476C84.8525 45.9992 84.1875 47.5599 83.152 48.8661L82.8186 49.2735V48.7549C82.8186 48.7549 83.4483 46.4217 83.5594 45.4958C83.6592 44.7804 83.4874 44.0536 83.0779 43.4586C83.1345 44.0746 83.1345 44.6945 83.0779 45.3105C82.8859 46.4027 82.5754 47.4708 82.1519 48.4957V48.6809C81.6413 48.2119 81.2379 47.6382 80.9694 46.999C80.701 46.3598 80.5738 45.6701 80.5965 44.9772C80.5658 44.5951 80.5658 44.2111 80.5965 43.829Z" fill="#1F5DA0"/>
<path fill-rule="evenodd" clip-rule="evenodd" d="M81.6724 48.6072L82.1168 49.422L82.7095 48.4961C82.7095 48.4961 82.265 51.1256 81.9316 51.1997C81.5983 51.2738 82.0057 50.1628 81.6724 48.6072Z" fill="#1F5DA0"/>
<path fill-rule="evenodd" clip-rule="evenodd" d="M76.893 34.978V35.1632C76.8752 35.4592 76.8752 35.756 76.893 36.052C77.0965 36.6151 77.3701 37.1501 77.7077 37.6446C76.8829 37.5576 76.066 37.4091 75.2634 37.2002C75.9074 37.7011 76.6531 38.055 77.4484 38.2372H78.5595C78.8071 38.4553 79.0809 38.642 79.3744 38.7928C77.95 39.1328 76.4656 39.1328 75.0411 38.7928C74.1375 38.5359 73.3088 38.0652 72.6255 37.4206C71.9422 36.7759 71.4243 35.9763 71.1152 35.0891C72.1143 35.1497 73.1161 35.1497 74.1152 35.0891C74.856 35.4225 75.7078 35.0521 76.893 34.978Z" fill="#1F5DA0"/>
<path fill-rule="evenodd" clip-rule="evenodd" d="M77.2638 35.1258C77.1354 34.3037 77.1354 33.4666 77.2638 32.6444C77.2807 32.3854 77.2807 32.1255 77.2638 31.8666C77.2638 31.0147 77.2638 28.9407 77.2638 28.9036V28.7185H77.449C78.3075 29.0132 79.0873 29.5 79.7292 30.1419C80.371 30.7837 80.8579 31.5637 81.1527 32.4222C81.1527 32.9037 81.375 33.3851 81.449 33.8295C81.7692 35.4183 81.6799 37.0625 81.1897 38.6073C81.1897 38.6073 81.0046 36.274 80.8195 35.3851C80.6648 34.7026 80.2704 34.0982 79.7082 33.6815C79.9654 34.2268 80.1642 34.7978 80.3009 35.3851C80.4319 36.4552 80.4319 37.5372 80.3009 38.6073V38.7926C79.6663 38.5346 79.0974 38.1379 78.636 37.6317C78.1746 37.1254 77.8323 36.5223 77.6341 35.8666C77.4949 35.6279 77.3713 35.3804 77.2638 35.1258Z" fill="#1F5DA0"/>
<path fill-rule="evenodd" clip-rule="evenodd" d="M79.7083 39.126L80.412 39.6816L80.6342 38.6445C80.6342 38.6445 81.0786 41.2 80.6342 41.3852C80.1897 41.5704 80.5601 40.4223 79.7083 39.126Z" fill="#1F5DA0"/>
<path fill-rule="evenodd" clip-rule="evenodd" d="M70.5603 27.499C70.5603 27.499 70.5603 27.4991 70.5603 27.6843C70.7117 27.9455 70.8852 28.1933 71.0788 28.4249C71.4115 28.9034 71.8403 29.3071 72.338 29.6102C71.5383 29.8318 70.7202 29.9806 69.8936 30.0546C70.6552 30.3142 71.4675 30.3903 72.2641 30.2768L73.338 29.9806C73.6588 30.1098 73.995 30.1969 74.3381 30.2397C73.0926 31.0351 71.6903 31.553 70.2268 31.7583C69.3199 31.8452 68.4053 31.7123 67.5607 31.3706C66.7161 31.0289 65.9663 30.4884 65.375 29.7953C65.375 29.7953 67.4491 29.2398 68.2269 28.9064C68.9731 28.3868 69.7525 27.9166 70.5603 27.499Z" fill="#1F5DA0"/>
<path fill-rule="evenodd" clip-rule="evenodd" d="M71.1161 27.4951C70.7217 26.7583 70.4228 25.9742 70.227 25.1617C70.227 24.9024 70.227 24.6433 70.227 24.421C69.9307 23.6433 69.116 21.7173 69.116 21.6802H69.3011C70.2376 21.6199 71.1748 21.7873 72.0325 22.1678C72.8903 22.5483 73.6433 23.1308 74.2271 23.8655L75.005 25.0877C75.8185 26.4843 76.2644 28.0644 76.3012 29.6802V30.1988L76.0419 29.7544C75.6261 28.7543 75.1562 27.7775 74.6344 26.8284C74.2788 26.2404 73.7072 25.815 73.0419 25.6432C73.4658 26.0675 73.8386 26.5398 74.1529 27.0506C74.6663 27.9912 75.0762 28.9846 75.3752 30.0135V30.1988C74.6999 30.1831 74.0374 30.011 73.4397 29.6962C72.8421 29.3813 72.3256 28.932 71.9308 28.3839C71.5982 28.1499 71.3203 27.8467 71.1161 27.4951Z" fill="#1F5DA0"/>
<path fill-rule="evenodd" clip-rule="evenodd" d="M74.7451 30.3871L75.5598 30.6835V29.6094C75.5598 29.6094 76.8192 31.9057 76.597 32.1649C76.3747 32.4242 75.9673 31.313 74.7451 30.3871Z" fill="#1F5DA0"/>
<path fill-rule="evenodd" clip-rule="evenodd" d="M62.8577 23.9058C63.0764 24.0991 63.3119 24.2727 63.5614 24.4243C64.027 24.754 64.5573 24.9812 65.1171 25.091C64.463 25.5692 63.7689 25.9905 63.0428 26.3502C63.8256 26.3053 64.587 26.077 65.2652 25.6836C65.5809 25.5025 65.8785 25.2917 66.1541 25.0539C66.486 25.0965 66.8222 25.0965 67.1541 25.0539C66.2872 26.2101 65.1739 27.159 63.8949 27.8317C63.1126 28.2436 62.2419 28.459 61.3578 28.459C60.4738 28.459 59.603 28.2436 58.8208 27.8317C59.6335 27.2863 60.4127 26.6927 61.1542 26.054C61.6356 25.5725 62.0059 24.7206 62.8577 23.9058Z" fill="#1F5DA0"/>
<path fill-rule="evenodd" clip-rule="evenodd" d="M63.1521 23.7556C62.5656 23.2226 62.0548 22.6121 61.6336 21.9408C61.4485 21.7186 61.3371 21.4964 61.189 21.3482C61.0408 21.2001 59.3373 19.2372 59.3003 19.2001C60.1285 18.8381 61.0311 18.6795 61.9332 18.7375C62.8352 18.7955 63.7103 19.0684 64.4853 19.5334C66.1373 20.6587 67.4246 22.2421 68.189 24.089V24.5704L67.8188 24.2371C67.8188 24.2371 66.3001 22.6446 65.5964 22.089C65.0852 21.6777 64.4354 21.4788 63.7816 21.5335C64.2937 21.8119 64.7886 22.1211 65.2632 22.4594C66.0239 23.1346 66.7071 23.8923 67.3002 24.7186C66.6882 24.9335 66.0344 25.0019 65.3911 24.9183C64.7479 24.8347 64.1332 24.6013 63.5965 24.2371C63.4316 24.0929 63.2826 23.9315 63.1521 23.7556Z" fill="#1F5DA0"/>
<path fill-rule="evenodd" clip-rule="evenodd" d="M67.448 25.1623H68.3371L67.8556 24.1995C67.8556 24.1995 69.7444 25.8291 69.6333 26.1624C69.5222 26.4958 68.8924 25.5698 67.448 25.1623Z" fill="#1F5DA0"/>
<path fill-rule="evenodd" clip-rule="evenodd" d="M49.3749 20.4949L50.486 23.8652H54.0416L51.1527 25.9764L52.2638 29.3838L49.3749 27.2726L46.486 29.3838L47.5971 25.9764L44.7083 23.8652H48.2638L49.3749 20.4949Z" fill="#01A601"/>
<path fill-rule="evenodd" clip-rule="evenodd" d="M49.3749 67.9033L50.486 71.3107H54.0416L51.1527 73.3848L52.2638 76.7922L49.3749 74.6811L46.486 76.7922L47.5971 73.3848L44.7083 71.3107H48.2638L49.3749 67.9033Z" fill="#01A601"/>
<path fill-rule="evenodd" clip-rule="evenodd" d="M33.0791 38.7553H33.3384C33.6034 38.6866 33.8804 38.6775 34.1493 38.7288C34.4183 38.78 34.6726 38.8902 34.8939 39.0516C35.1129 39.284 35.2774 39.5624 35.3754 39.8664V40.1627C35.7946 43.0815 35.8939 46.0373 35.6716 48.9776C35.5965 50.8301 35.7584 52.6845 36.1531 54.496L36.4864 55.2738C36.4864 55.2738 36.4865 55.4961 36.2272 55.5702C35.4124 55.5702 34.9309 55.5701 34.7457 54.7923C34.5605 54.0145 34.7457 54.422 34.5605 54.3849C34.1375 52.4521 33.9633 50.4731 34.0421 48.4961H33.5975C32.4913 48.8859 31.4538 49.4483 30.5235 50.1627C29.9059 52.86 29.8053 55.6501 30.2272 58.3849L30.5235 58.9404V59.1627H30.3384C30.1056 59.2173 29.8625 59.2082 29.6344 59.1365C29.4064 59.0649 29.2018 58.9332 29.0421 58.7553C28.926 58.5855 28.8384 58.3978 28.7828 58.1998C28.3704 55.9718 28.3704 53.687 28.7828 51.459C28.0613 52.0355 27.4362 52.7231 26.9309 53.4961H26.7458C26.4093 53.609 26.0452 53.609 25.7087 53.4961C25.7087 53.4961 25.4495 53.2738 25.4495 53.1997C25.4495 52.9405 25.8199 52.3849 26.7458 51.4961C27.4971 50.7847 28.2885 50.1169 29.1161 49.496C29.5588 46.6752 30.291 43.9074 31.3013 41.2367C32.042 39.6071 32.6717 38.7182 33.2273 38.5701L33.0791 38.7553ZM30.8568 48.533C31.3626 48.255 31.8964 48.0316 32.4494 47.8664C32.9758 47.6994 33.5271 47.6242 34.079 47.6442C34.079 46.1997 34.079 44.385 34.079 42.2368C34.1776 41.5862 34.1776 40.9245 34.079 40.2739V40.0516H33.8568C33.4494 40.2739 32.9309 41.3108 32.2643 43.1997C31.6797 44.945 31.2095 46.7266 30.8568 48.533Z" fill="#01A601"/>
<path fill-rule="evenodd" clip-rule="evenodd" d="M39.5599 45.1999C39.7007 45.1648 39.8479 45.1632 39.9894 45.1954C40.1309 45.2276 40.2628 45.2926 40.3746 45.3852C40.3266 46.7976 40.4134 48.2114 40.6339 49.6073C40.8883 49.1554 41.0756 48.6689 41.1895 48.163C41.1895 47.7555 41.5229 47.1999 41.7081 46.4962H41.9303C41.8498 47.2435 41.6755 47.9776 41.4117 48.6814C41.0908 49.5703 40.7945 50.0518 40.5229 50.1259C39.8192 50.1259 39.4117 50.1258 39.2635 49.4592C38.8561 50.348 38.5229 50.8296 38.2266 50.9037C37.9555 51.0187 37.6506 51.0251 37.3748 50.9217C37.0991 50.8183 36.8736 50.613 36.745 50.3481V50.1259V49.8295C36.5586 48.602 36.5586 47.3534 36.745 46.1258C36.8396 45.9802 36.9848 45.8747 37.1525 45.8296C37.6957 45.8296 37.9919 45.9037 38.0412 46.0518C37.9075 47.2828 37.9075 48.5246 38.0412 49.7555C38.0314 49.8664 38.0314 49.9779 38.0412 50.0888C38.6377 48.7421 38.989 47.2998 39.0784 45.8296C39.2636 45.5703 39.3747 45.237 39.5599 45.1999Z" fill="#01A601"/>
<path fill-rule="evenodd" clip-rule="evenodd" d="M42.0789 39.4607C42.2008 39.4043 42.3334 39.375 42.4677 39.375C42.602 39.375 42.7348 39.4043 42.8567 39.4607C42.8567 39.4607 42.8567 39.794 42.8567 40.4606L44.3381 40.0162C45.2703 39.6596 46.2837 39.5698 47.2641 39.7569C47.2301 39.9098 47.1368 40.043 47.0049 40.1273C46.8828 40.278 46.7129 40.3825 46.5234 40.4236H46.0789C45.8209 40.3885 45.5591 40.3885 45.3011 40.4236H45.1159C44.3098 40.6462 43.5181 40.9183 42.7455 41.2384C42.5937 43.7213 42.7807 46.2133 43.3012 48.6458C43.3012 48.9791 43.5233 49.2014 43.6714 49.2755C43.8196 49.3495 44.0049 49.2755 44.0049 49.4977C44.0049 49.7199 44.0047 49.794 43.6344 49.831C43.426 49.8866 43.2053 49.8735 43.005 49.7934C42.8048 49.7133 42.6358 49.5706 42.5233 49.3866C42.2783 49.0137 42.1025 48.5997 42.0047 48.1644C41.5737 46.0576 41.4119 43.9045 41.5232 41.757C40.7136 42.1004 39.9335 42.5091 39.1901 42.9791C38.9679 42.9791 38.6714 42.9792 38.301 42.5718C38.301 42.5718 38.3011 42.5717 38.6345 42.2754C39.5205 41.7419 40.4497 41.2835 41.4122 40.9051H41.6715C41.6286 40.4245 41.6286 39.9412 41.6715 39.4607C41.8024 39.4091 41.948 39.4091 42.0789 39.4607Z" fill="#01A601"/>
<path fill-rule="evenodd" clip-rule="evenodd" d="M44.6326 39.2382C44.7792 39.1999 44.9327 39.1967 45.0807 39.2289C45.2287 39.261 45.367 39.3277 45.4844 39.4234C45.3801 39.8748 45.3059 40.3325 45.2622 40.7937C45.1438 42.483 45.1438 44.1785 45.2622 45.8678V46.2382C45.391 45.577 45.5898 44.9315 45.8549 44.3123C46.2994 43.3493 46.7437 42.7938 47.1882 42.6826H47.929C48.0217 42.7217 48.1037 42.7824 48.1681 42.8598C48.2326 42.9371 48.2775 43.0288 48.2992 43.1271C48.2992 43.3123 48.2992 44.3123 48.5215 46.0901C48.5215 46.5345 48.5215 46.8678 48.5215 47.0901C48.4818 47.1976 48.4818 47.3158 48.5215 47.4234C48.6944 47.0889 48.8429 46.7423 48.9659 46.3863C49.2251 45.6086 49.5214 44.8307 49.8547 44.0159C49.9093 43.9027 50.0008 43.8113 50.114 43.7568C50.0349 44.0592 49.9361 44.3561 49.8179 44.6456C49.4105 45.7197 49.077 46.6086 48.7807 47.3123C48.4845 48.016 48.2992 48.0901 48.0029 48.1642C47.7598 48.2253 47.5055 48.2253 47.2623 48.1642C46.9679 47.8302 46.775 47.4189 46.7067 46.979C46.5145 45.865 46.403 44.7386 46.3733 43.6086C46.0258 44.0781 45.7627 44.6045 45.5956 45.1642C45.4313 45.7224 45.3074 46.2918 45.2251 46.8678C45.2251 47.2382 45.2251 47.8678 45.2251 48.7197C45.2046 48.83 45.1512 48.9314 45.0718 49.0107C44.9925 49.0901 44.891 49.1436 44.7807 49.1641C44.5422 49.2553 44.2786 49.2553 44.0401 49.1641V48.9419C43.6206 46.7333 43.4467 44.4851 43.5216 42.2382C43.5216 41.4604 43.5215 40.6085 43.7438 39.7567C43.966 38.9048 43.7436 39.2753 44.077 39.2382H44.6326Z" fill="#01A601"/>
<path fill-rule="evenodd" clip-rule="evenodd" d="M51.7822 41.869C51.9584 41.8255 52.1418 41.8195 52.3205 41.8514C52.4991 41.8833 52.6691 41.9524 52.8194 42.0541C53.016 42.2177 53.158 42.4374 53.2267 42.6838C53.3059 42.9964 53.3204 43.3218 53.2695 43.6402C53.2185 43.9586 53.1031 44.2633 52.9304 44.5356C52.7626 44.7826 52.5635 45.0067 52.3379 45.2023C52.1676 45.3468 51.9811 45.4711 51.7822 45.5727H51.412V45.8319C51.412 46.3134 51.7452 46.5727 52.0044 46.6468H52.1896C52.597 46.6468 53.1526 45.7208 53.8192 44.2763C53.8192 43.7949 54.1525 43.4245 54.2637 43.0911C54.2991 43.0026 54.3543 42.9232 54.4248 42.8591C54.4954 42.7949 54.5797 42.7477 54.6712 42.7208C54.6712 42.7208 54.6712 42.906 54.6712 43.1282C54.5037 43.7229 54.2931 44.3047 54.0414 44.8689C53.913 45.2168 53.7518 45.5516 53.5599 45.8689C53.2495 46.5517 52.6946 47.0935 52.0044 47.3874C51.7307 47.4283 51.451 47.3987 51.1918 47.3015C50.9326 47.2043 50.7025 47.0427 50.5231 46.8319C50.2978 46.5615 50.1336 46.2457 50.0416 45.906C49.8247 45.0412 49.9029 44.1287 50.2638 43.3135C50.3575 42.9651 50.5347 42.6447 50.7799 42.3802C51.0251 42.1156 51.331 41.9148 51.6712 41.7949L51.7822 41.869ZM51.449 45.0171C51.6975 44.9664 51.9212 44.8322 52.0829 44.6368C52.2446 44.4414 52.3345 44.1966 52.3379 43.943C52.3762 43.7349 52.3762 43.5216 52.3379 43.3135C52.3379 42.9801 52.1156 42.832 52.0044 42.832C52.0044 42.832 51.6342 43.5357 51.449 44.7949V45.0171Z" fill="#01A601"/>
<path fill-rule="evenodd" clip-rule="evenodd" d="M57.4129 40.2006C57.5178 40.1536 57.6312 40.1294 57.7461 40.1294C57.861 40.1294 57.9747 40.1536 58.0796 40.2006V40.3859C58.1553 41.2484 58.1553 42.1158 58.0796 42.9784C58.0367 43.5702 58.0367 44.1644 58.0796 44.7562C58.204 44.6051 58.2927 44.4279 58.3388 44.2377C58.8203 42.8674 59.1906 41.8673 59.4128 41.3118C59.4412 41.2501 59.4823 41.1952 59.5333 41.1505C59.5844 41.1058 59.6443 41.0724 59.7092 41.0525H59.9685C59.8867 41.3829 59.775 41.7052 59.635 42.0155C59.2276 43.2007 58.9313 44.0525 58.7091 44.6451C58.4869 45.2377 58.3018 45.3118 58.0796 45.3488C57.9297 45.3731 57.7762 45.3586 57.6336 45.3068C57.4909 45.2549 57.3639 45.1673 57.2646 45.0524C57.1166 44.8372 57.0042 44.5997 56.9314 44.3488V44.1636C56.849 43.2642 56.849 42.3593 56.9314 41.46C56.4854 42.674 56.1022 43.9102 55.7833 45.1637C55.7355 45.4418 55.6611 45.7145 55.5611 45.9784C55.4363 46.066 55.2876 46.1131 55.1352 46.1131C54.9827 46.1131 54.8338 46.066 54.7091 45.9784C54.5955 45.1932 54.5337 44.4014 54.5239 43.6081C54.5239 42.6821 54.5239 42.0525 54.5239 41.7562C54.5679 41.6851 54.6274 41.6249 54.698 41.58C54.7685 41.5351 54.8485 41.5067 54.9315 41.4969C55.064 41.4316 55.2097 41.3977 55.3574 41.3977C55.5051 41.3977 55.6508 41.4316 55.7833 41.4969V42.9043C55.9497 42.3093 56.16 41.7274 56.4128 41.1636C56.6721 40.6451 57.0426 40.2747 57.4129 40.2006Z" fill="#01A601"/>
<path fill-rule="evenodd" clip-rule="evenodd" d="M60.228 34.4598C60.3511 34.4078 60.4832 34.3811 60.6168 34.3811C60.7504 34.3811 60.8826 34.4078 61.0056 34.4598C61.0056 34.4598 61.0056 34.8301 61.0056 35.4968C61.4772 35.3081 61.9596 35.1473 62.4501 35.0153C63.3977 34.666 64.424 34.589 65.413 34.7931C65.413 34.7931 65.4131 35.0154 65.1908 35.2006C65.0442 35.3395 64.8664 35.441 64.6723 35.4968H64.2649H63.4502C62.6406 35.708 61.8481 35.9804 61.0798 36.3116C60.9612 38.7942 61.1478 41.2819 61.6354 43.719C61.6354 44.0894 61.8576 44.2746 62.0057 44.3487C62.1538 44.4228 62.3389 44.3487 62.376 44.5709C62.413 44.7931 62.3761 44.8671 62.0057 44.9412C61.7933 44.9935 61.5696 44.9748 61.3689 44.8878C61.1682 44.8009 61.0017 44.6505 60.8946 44.4598C60.6574 44.0961 60.4822 43.6956 60.3761 43.2746C59.9627 41.1529 59.801 38.9898 59.8946 36.8302C59.0926 37.1897 58.3133 37.5978 57.5612 38.0524C57.376 38.0524 57.0798 38.0523 56.6724 37.6449C56.6724 37.6449 56.6725 37.4598 57.0058 37.3487C57.9072 36.8092 58.848 36.3387 59.8204 35.9412C59.8204 35.9412 60.0797 35.9412 60.0426 35.9412C59.9939 35.461 59.9939 34.9771 60.0426 34.4968C60.1018 34.474 60.1646 34.4615 60.228 34.4598Z" fill="#01A601"/>
<path fill-rule="evenodd" clip-rule="evenodd" d="M62.7825 39.3102C62.9093 39.2481 63.0486 39.2157 63.1898 39.2157C63.3311 39.2157 63.4704 39.2481 63.5972 39.3102C63.4554 40.3052 63.4554 41.3152 63.5972 42.3102C63.6675 42.5913 63.7668 42.8644 63.8935 43.125C64.4833 42.6063 64.8758 41.8998 65.0046 41.125C65.0046 40.7546 65.2267 40.2361 65.3749 39.5695C65.3983 39.5047 65.4379 39.447 65.4897 39.4016C65.5415 39.3563 65.604 39.3248 65.6712 39.3102C65.6712 39.3102 65.8935 39.3102 65.9305 39.3102C65.7728 40.1814 65.5373 41.0366 65.2268 41.8658C64.7824 42.9028 64.3379 43.4583 63.7823 43.5694C63.5984 43.5928 63.4117 43.5785 63.2335 43.5276C63.0552 43.4767 62.8892 43.3901 62.7454 43.2732C62.4673 42.9859 62.2748 42.6268 62.1898 42.2361V42.0139C62.0328 41.0449 62.0328 40.057 62.1898 39.088C62.2315 39.015 62.2906 38.9532 62.3616 38.908C62.4325 38.8629 62.5133 38.8356 62.5971 38.8287L62.7825 39.3102ZM62.9676 37.051C63.1306 37.0129 63.3013 37.0282 63.4548 37.095C63.6082 37.1617 63.7361 37.2761 63.8194 37.4213V37.6435C63.8618 37.8012 63.8481 37.9688 63.7805 38.1174C63.7129 38.2661 63.5958 38.3865 63.4491 38.4583H63.1898C63.0174 38.5023 62.8351 38.486 62.6733 38.4118C62.5115 38.3377 62.3802 38.2103 62.301 38.0509V37.8287C62.301 37.4954 62.3008 37.2361 62.8193 37.0139L62.9676 37.051Z" fill="#01A601"/>
<path fill-rule="evenodd" clip-rule="evenodd" d="M67.5609 37.6062H67.8202C68.4128 37.6062 68.7831 37.6061 68.8942 38.0136C69.0053 38.421 68.8942 38.7543 68.8942 39.421C68.8942 40.0876 68.8942 39.8284 68.4868 39.9396C68.0794 40.0507 67.7461 39.9396 67.598 39.9396V39.1247C67.3089 39.5768 67.1077 40.0794 67.0053 40.6062C66.8929 41.0936 66.8929 41.6002 67.0053 42.0876C67.1905 42.5691 67.4127 42.8284 67.709 42.8654C68.351 42.7172 69.1288 41.384 70.0423 38.8654C70.1092 38.7712 70.1983 38.6949 70.3016 38.6432C70.3016 38.6432 70.3016 38.6432 70.5238 38.6432C70.5238 38.6432 70.2647 39.421 69.7091 40.7913C69.1536 42.1617 68.3756 43.0506 67.6719 43.2358C67.3493 43.3443 67.0009 43.3491 66.6755 43.2495C66.35 43.1498 66.0637 42.9508 65.8571 42.6803C65.7028 42.4824 65.5897 42.2558 65.5239 42.0136C65.3646 41.052 65.5205 40.0645 65.9684 39.1988C66.1016 38.8332 66.3131 38.5012 66.5882 38.226C66.8633 37.9509 67.1953 37.7394 67.5609 37.6062Z" fill="#01A601"/>
<path fill-rule="evenodd" clip-rule="evenodd" d="M41.3745 54.6792H43.1154C43.5869 54.6792 44.0388 54.8665 44.3722 55.1999C44.7056 55.5333 44.8931 55.9855 44.8931 56.457V57.6052C44.8902 58.0763 44.7042 58.5279 44.3745 58.8644C44.209 59.0293 44.0126 59.1601 43.7965 59.249C43.5804 59.338 43.349 59.3835 43.1154 59.383H42.5597V62.9014H41.3745V54.6792ZM43.0041 58.3829C43.1995 58.3801 43.386 58.3003 43.5227 58.1607C43.5793 58.0052 43.5793 57.8347 43.5227 57.6792V56.6792C43.5348 56.5839 43.5249 56.4872 43.4938 56.3963C43.4627 56.3054 43.4111 56.2229 43.3432 56.155C43.2753 56.0871 43.1927 56.0356 43.1018 56.0045C43.0109 55.9734 42.9143 55.9635 42.819 55.9755H42.3746V58.3089L43.0041 58.3829Z" fill="#1F5DA0"/>
<path fill-rule="evenodd" clip-rule="evenodd" d="M49.0425 58.2006C48.8856 58.6148 48.5827 58.9573 48.1907 59.1636V59.3858L48.4869 60.534L48.7832 61.7191L49.0425 62.9043H47.8944L47.598 61.7191L47.3017 60.534L47.0055 59.3858H46.7092V62.9043H45.561V54.6821H47.3017C47.4976 54.6467 47.6984 54.6467 47.8944 54.6821C48.2357 54.8005 48.5328 55.0202 48.7462 55.3117C48.9598 55.6138 49.0643 55.9795 49.0425 56.3488V57.4969C49.0814 57.6925 49.0814 57.8939 49.0425 58.0895V58.2006ZM46.7833 58.2006H47.2648C47.4417 58.1955 47.6116 58.1301 47.7463 58.0154C47.819 57.9504 47.8766 57.8704 47.915 57.7808C47.9534 57.6913 47.9716 57.5943 47.9685 57.4969V56.6821C47.9664 56.5909 47.9455 56.5011 47.9073 56.4183C47.869 56.3355 47.8143 56.2614 47.7463 56.2006C47.6116 56.0859 47.4417 56.0206 47.2648 56.0155H46.7833V58.2006Z" fill="#1F5DA0"/>
<path fill-rule="evenodd" clip-rule="evenodd" d="M52.0415 54.7905C52.3877 54.8997 52.6874 55.1213 52.8933 55.4202C53.1174 55.7188 53.2349 56.084 53.2267 56.4572V61.1239C53.2273 61.3576 53.1819 61.5891 53.0929 61.8052C53.0039 62.0212 52.8731 62.2177 52.7082 62.3832C52.3656 62.7036 51.9179 62.8879 51.449 62.9016C51.2655 62.9367 51.0769 62.9367 50.8934 62.9016C50.5472 62.7925 50.2475 62.571 50.0416 62.2721C49.8175 61.9735 49.7 61.6083 49.7082 61.235V56.5683C49.7033 56.3341 49.7469 56.1013 49.8361 55.8846C49.9253 55.668 50.0584 55.4721 50.2267 55.3091C50.4107 55.1188 50.6401 54.9785 50.8934 54.9016H51.449C51.6446 54.8627 51.8459 54.8627 52.0415 54.9016V54.7905ZM52.0415 61.1239V56.4572C52.0542 56.3765 52.0476 56.2939 52.0223 56.2163C51.997 56.1386 51.9537 56.068 51.8959 56.0102C51.8382 55.9524 51.7674 55.9092 51.6898 55.8838C51.6121 55.8585 51.5297 55.852 51.449 55.8646C51.3181 55.813 51.1723 55.813 51.0414 55.8646C50.9874 56.0079 50.9874 56.1658 51.0414 56.3091V60.9758C51.0139 61.0401 50.9998 61.1094 50.9998 61.1794C50.9998 61.2495 51.0139 61.3187 51.0414 61.3831C51.1478 61.4957 51.2942 61.5623 51.449 61.5684C51.6159 61.568 51.7757 61.5013 51.8934 61.3831C51.9672 61.3131 52.0186 61.223 52.0415 61.1239Z" fill="#1F5DA0"/>
<path fill-rule="evenodd" clip-rule="evenodd" d="M54.1154 54.6793H55.745C55.9734 54.6773 56.1998 54.7224 56.41 54.8116C56.6203 54.9008 56.8099 55.0323 56.9673 55.1978C57.1233 55.3527 57.2464 55.5375 57.3292 55.7412C57.4119 55.9448 57.4526 56.1632 57.4488 56.383V61.1607C57.4577 61.3867 57.4195 61.6121 57.3366 61.8225C57.2538 62.0329 57.1279 62.2239 56.9673 62.383C56.8099 62.5486 56.6203 62.68 56.41 62.7692C56.1998 62.8584 55.9734 62.9034 55.745 62.9015H53.9673V54.6793H54.1154ZM55.745 61.7163C55.9231 61.7177 56.0952 61.6516 56.2265 61.5311C56.2992 61.4662 56.3567 61.3862 56.3951 61.2966C56.4335 61.207 56.4518 61.1101 56.4487 61.0127V56.6793C56.4466 56.5881 56.4257 56.4983 56.3874 56.4155C56.3492 56.3327 56.2945 56.2586 56.2265 56.1978C56.0952 56.0773 55.9231 56.0112 55.745 56.0126H55.2635V61.8644L55.745 61.7163Z" fill="#1F5DA0"/>
<path fill-rule="evenodd" clip-rule="evenodd" d="M58.3381 61.1237C58.3376 61.3574 58.383 61.5889 58.472 61.8049C58.5609 62.021 58.6918 62.2174 58.8567 62.383C59.014 62.5485 59.2037 62.68 59.4139 62.7692C59.6242 62.8584 59.8504 62.9033 60.0788 62.9014C60.313 62.9062 60.5459 62.8627 60.7626 62.7735C60.9793 62.6843 61.1752 62.5513 61.3381 62.383C61.5031 62.2174 61.6337 62.021 61.7226 61.8049C61.8116 61.5889 61.8573 61.3574 61.8567 61.1237V54.6792H60.6715V61.1237C60.699 61.1881 60.7131 61.2574 60.7131 61.3274C60.7131 61.3974 60.699 61.4667 60.6715 61.5311C60.5537 61.6492 60.3939 61.7158 60.2271 61.7162C60.0723 61.7101 59.9259 61.6437 59.8195 61.5311C59.792 61.4667 59.7779 61.3974 59.7779 61.3274C59.7779 61.2574 59.792 61.1881 59.8195 61.1237V54.6792H58.6345L58.3381 61.1237Z" fill="#1F5DA0"/>
<path fill-rule="evenodd" clip-rule="evenodd" d="M66.0783 56.457C66.0901 56.2252 66.0536 55.9933 65.9707 55.7765C65.8877 55.5596 65.7603 55.3626 65.5968 55.1978C65.2602 54.868 64.8088 54.682 64.3376 54.6792C63.8665 54.682 63.4148 54.868 63.0783 55.1978C62.9099 55.3607 62.7771 55.5566 62.6879 55.7733C62.5987 55.99 62.5551 56.2227 62.5599 56.457V61.1237C62.5594 61.3574 62.6048 61.5889 62.6938 61.8049C62.7827 62.021 62.9133 62.2174 63.0783 62.383C63.4148 62.7127 63.8665 62.8986 64.3376 62.9014C64.8088 62.8986 65.2602 62.7127 65.5968 62.383C65.7567 62.2156 65.8819 62.018 65.9646 61.8018C66.0472 61.5855 66.0858 61.3551 66.0783 61.1237V59.383H64.9301V61.1237C64.9316 61.2011 64.9158 61.2779 64.8838 61.3484C64.8517 61.4189 64.8043 61.4813 64.745 61.5311C64.6386 61.6437 64.4924 61.7101 64.3376 61.7162C64.1828 61.7101 64.0367 61.6437 63.9303 61.5311C63.8709 61.4813 63.8235 61.4189 63.7915 61.3484C63.7594 61.2779 63.7434 61.2011 63.7449 61.1237V56.457C63.7491 56.291 63.8153 56.1325 63.9303 56.0126C64.0612 55.961 64.2067 55.961 64.3376 56.0126C64.4685 55.961 64.6141 55.961 64.745 56.0126C64.8599 56.1325 64.9259 56.291 64.9301 56.457V58.1978H66.0783V56.457Z" fill="#1F5DA0"/>
<path fill-rule="evenodd" clip-rule="evenodd" d="M70.3376 54.6792H66.8191V55.8273H67.9672V62.8644H69.1524V55.8273H70.3376V54.6792Z" fill="#1F5DA0"/>
</svg>
