<svg width="100" height="101" viewBox="0 0 100 101" fill="none" xmlns="http://www.w3.org/2000/svg">
<path fill-rule="evenodd" clip-rule="evenodd" d="M18.2388 26.3341C15.4787 26.3447 12.7513 25.7365 10.2572 24.5542L4.16675 22.385V54.4781C5.61288 55.1733 7.72646 55.5627 9.20041 56.2857C9.58452 55.0907 10.1882 53.9779 10.9803 53.0041C15.43 47.4421 24.8855 48.2485 27.4718 54.784C27.9446 55.9242 27.4719 55.7852 28.5565 56.2023C29.7478 56.6667 30.8219 57.3886 31.7017 58.3165C32.5815 59.2444 33.2453 60.3553 33.6457 61.5697C34.2019 62.988 36.9551 62.4596 39.2078 66.4365C39.539 66.9959 39.774 67.6069 39.903 68.2441C40.3202 69.4956 40.932 68.5223 43.0734 70.3022C44.3659 71.3714 45.3656 72.7516 45.9785 74.3131C46.5914 75.8746 46.7975 77.5662 46.5775 79.2292C46.5775 79.4517 49.1082 82.5943 51.1662 82.5943C51.9809 82.6919 52.8061 82.5386 53.5314 82.155C54.2568 81.7713 54.8477 81.1755 55.2255 80.4471C55.6033 79.7187 55.75 78.8924 55.6458 78.0785C55.5416 77.2646 55.1916 76.5017 54.6425 75.892C52.5752 73.9347 50.7117 71.7731 49.0804 69.44C50.1522 69.8922 51.1042 70.5871 51.8614 71.4701C55.3934 75.0299 58.4803 79.5908 62.2347 76.8653C62.9097 76.3729 63.415 75.6829 63.6808 74.8908C63.9399 74.0621 63.946 73.1749 63.6983 72.3427C63.4506 71.5105 62.9604 70.771 62.2903 70.2187C60.1922 68.4216 58.2048 66.4991 56.3389 64.462C55.8662 63.9058 55.7549 64.0726 55.6993 63.2939C57.7266 64.6602 59.6423 66.1853 61.4282 67.8548L64.2092 70.3577C64.6808 70.9088 65.2647 71.3526 65.9218 71.6596C66.5789 71.9665 67.294 72.1296 68.0192 72.1376C68.5568 72.1136 69.0838 71.9807 69.5685 71.747C70.0532 71.5133 70.4855 71.1837 70.8391 70.7781C71.1926 70.3725 71.4603 69.8994 71.6257 69.3873C71.7911 68.8753 71.8509 68.3351 71.8015 67.7992C71.8015 65.7413 68.1027 62.6265 66.3784 60.4294C65.6657 59.6765 65.0662 58.8241 64.5986 57.8988C65.5998 58.1213 66.3506 59.1224 67.0737 59.7342C69.7157 62.0981 72.2187 65.2963 74.5269 65.4354C75.3419 65.4505 76.1431 65.2233 76.8288 64.7825C77.5145 64.3418 78.0539 63.7073 78.3786 62.9596C78.7033 62.2119 78.7986 61.3846 78.6526 60.5826C78.5065 59.7807 78.1257 59.0402 77.5582 58.4549L72.8305 53.7828C71.9961 52.9763 71.4956 52.2533 70.6612 51.4468L61.8453 42.6031C56.5892 37.347 55.2265 38.7375 48.3017 41.9635C43.0734 44.4108 39.0687 46.9693 33.9794 42.6865C33.5655 42.3201 33.1925 41.9098 32.867 41.4629C31.5853 39.8604 30.887 37.8694 30.887 35.8174C30.887 33.7654 31.5853 31.7744 32.867 30.1719C35.6525 27.679 38.7688 25.5826 42.1278 23.9423C43.8799 22.969 45.5207 22.0234 47.2449 21.1613C46.9946 20.188 45.048 19.0755 44.1024 18.714C42.3675 17.9919 40.4931 17.6671 38.6164 17.7634C36.7397 17.8596 34.9082 18.3745 33.2563 19.2702C29.9251 20.6786 26.7081 22.343 23.634 24.2483C22.0697 25.4411 20.1986 26.1644 18.2388 26.3341Z" fill="white"/>
<path fill-rule="evenodd" clip-rule="evenodd" d="M36.2047 39.3786C38.9858 42.1596 42.2396 40.3797 44.5478 39.2117C47.5513 37.71 52.8908 34.7343 55.4216 33.6497C56.555 33.0196 57.873 32.8054 59.1476 33.0441C60.4222 33.2828 61.5733 33.9593 62.402 34.9567L72.4972 45.0518C72.8072 45.2759 73.1043 45.5173 73.3871 45.7749L78.087 50.447C83.6491 56.0091 83.4823 56.0091 91.1301 54.563C93.0212 54.2014 94.6897 53.9789 96.4418 53.5617V25.6124C95.114 25.7538 93.8017 26.0144 92.5206 26.3911C90.7407 26.7527 81.758 28.8663 80.7568 28.8663C78.7267 28.8663 76.7799 26.8083 75.1948 25.39L72.2469 22.9427C65.6836 17.6587 65.0718 15.5729 58.5642 18.938L40.1259 29.3668C36.2325 31.7863 31.5882 34.7342 36.2047 39.3786Z" fill="white"/>
<path fill-rule="evenodd" clip-rule="evenodd" d="M12.0932 60.9877C12.056 61.7837 12.2589 62.5725 12.6754 63.2519C13.0919 63.9312 13.703 64.4698 14.4293 64.7977C16.0106 65.2033 17.6862 65.005 19.1292 64.2415C18.7955 65.7155 17.7943 66.8557 18.2949 68.6634C18.5121 69.3601 18.9276 69.9784 19.4907 70.4427C20.0537 70.907 20.7399 71.1971 21.4653 71.2775C22.6971 71.1981 23.913 70.9549 25.0806 70.5544C24.6142 71.6436 24.3142 72.7968 24.1907 73.9751C24.1965 74.4539 24.3011 74.9262 24.498 75.3626C24.6949 75.799 24.9798 76.1901 25.3349 76.5112C25.69 76.8324 26.1076 77.0767 26.5616 77.2289C27.0155 77.3811 27.4959 77.4379 27.9729 77.3958C29.1427 77.3265 30.2957 77.0828 31.3936 76.6728C31.3936 78.0355 30.3089 78.3691 30.3089 80.4549C30.3715 81.4219 30.7949 82.3302 31.4954 82.9998C32.1959 83.6693 33.1223 84.0513 34.0912 84.0702C36.181 84.2426 38.2558 83.5942 39.8757 82.2626C44.2419 78.9253 41.878 72.7236 37.8733 72.7236C37.0912 72.7096 36.3094 72.7654 35.5373 72.8905C35.9354 71.8969 36.0154 70.8042 35.7663 69.7632C35.5173 68.7222 34.9514 67.784 34.1468 67.0782C33.5433 66.5914 32.8307 66.2585 32.0701 66.1083C31.3095 65.9582 30.5237 65.9952 29.7805 66.216C29.7805 64.5474 30.3089 62.1279 27.7226 60.5149C27.3547 60.3294 26.9736 60.1714 26.5823 60.0422C25.6092 59.8488 24.6076 59.8488 23.6345 60.0422C23.9083 59.2059 23.9517 58.3113 23.7601 57.4525C23.5684 56.5937 23.1488 55.8025 22.5454 55.162C21.942 54.5216 21.177 54.0557 20.3311 53.8134C19.4852 53.571 18.5897 53.5611 17.7387 53.7848C16.1557 54.232 14.7557 55.1706 13.741 56.4653C12.7262 57.76 12.1492 59.3437 12.0932 60.9877Z" fill="white"/>
</svg>
