<svg width="101" height="101" viewBox="0 0 101 101" fill="none" xmlns="http://www.w3.org/2000/svg">
<path fill-rule="evenodd" clip-rule="evenodd" d="M12.169 52.555C11.567 53.1428 11.05 53.8118 10.6331 54.5426C10.1492 55.3535 9.88939 56.2784 9.88029 57.2227C9.81474 58.9034 10.3604 60.551 11.4161 61.8603C12.6218 63.2409 13.909 64.5482 15.2708 65.7751L21.0226 71.6173C23.4016 73.9963 25.7504 76.3753 26.684 77.1884C28.28 78.6038 29.8761 80.4106 31.4421 81.8862C32.4089 83.1229 33.7735 83.9873 35.3047 84.333C36.8359 84.6788 38.4395 84.4846 39.8439 83.7834C40.9553 83.0071 41.9667 82.0968 42.8554 81.0731L56.4669 67.4616L70.0785 53.8499C70.7109 53.2175 71.6144 52.4345 72.3974 51.5612C73.1804 50.7917 73.7599 49.8397 74.0838 48.7908C74.9571 48.7908 77.6372 49.664 80.8293 49.9652C84.2073 50.4958 87.6621 49.7556 90.5261 47.8874C91.2389 47.3731 91.8258 46.7038 92.2426 45.9299C92.6163 45.2216 92.8321 44.4409 92.875 43.6413V42.7378C92.7196 41.0869 92.1724 39.4971 91.279 38.1003C90.4833 36.7452 89.4653 35.5338 88.2675 34.5167C86.6241 33.133 84.894 31.8555 83.0879 30.6921C81.8532 29.9694 80.5884 29.4274 77.7577 28.012L77.0349 27.6506L76.2821 27.3795L75.469 27.0483C75.1981 26.9215 74.9158 26.8206 74.6258 26.7471C74.6359 25.4422 74.2585 24.1636 73.5416 23.0732C72.8143 21.9966 71.8314 21.1172 70.6809 20.5135C70.2723 20.3034 69.8365 20.1514 69.386 20.0618C68.9201 19.9499 68.4473 19.8694 67.9706 19.8209C65.5313 19.5499 61.6466 19.4294 57.792 19.3993C53.9374 19.3692 50.143 19.3993 47.8844 19.6402C46.1987 19.8346 44.6124 20.5384 43.3371 21.6578C42.0716 22.7257 40.8748 23.8724 39.7536 25.0909L12.2593 52.555H12.169ZM59.5687 29.1262C60.2521 29.1272 60.9286 29.2634 61.5592 29.527C62.1897 29.7906 62.7619 30.1763 63.2426 30.6621C64.2181 31.6369 64.77 32.957 64.7785 34.336C64.7946 34.466 64.7946 34.5974 64.7785 34.7274C64.7933 34.8474 64.7933 34.9688 64.7785 35.0888C65.8314 35.9623 66.996 36.6914 68.2416 37.257C70.2456 38.3726 72.3535 39.2904 74.5355 39.9974C74.5355 39.4252 74.5355 37.5883 74.5355 35.8717C74.4509 34.7944 74.5117 33.7106 74.7161 32.6495C78.8443 34.1996 82.5702 36.6596 85.6175 39.8468C87.2738 41.8344 87.4243 43.1895 87.3039 43.31C86.0391 44.6952 82.3651 44.9361 77.8781 44.0327C72.7439 42.9527 67.8858 40.8311 63.604 37.7991C63.1094 38.3379 62.5167 38.7773 61.8574 39.094C61.1757 39.3991 60.436 39.5532 59.6892 39.5457C59.0028 39.5538 58.3217 39.4245 57.6859 39.1656C57.0502 38.9066 56.4727 38.5232 55.9873 38.0378C55.5019 37.5524 55.1185 36.9749 54.8595 36.3392C54.6006 35.7034 54.4713 35.0224 54.4794 34.336C54.4767 32.9606 55.0179 31.6399 55.9851 30.6621C56.9411 29.7134 58.2224 29.1642 59.5687 29.1262Z" fill="white"/>
<path fill-rule="evenodd" clip-rule="evenodd" d="M43.0664 59.6925C42.4033 60.2867 41.6381 60.756 40.8078 61.0777C39.9953 61.4077 39.1251 61.5715 38.2482 61.5595C37.4702 61.5422 36.699 61.4103 35.9595 61.168C35.2344 60.9027 34.5764 60.4812 34.0321 59.9334C33.4263 59.3656 32.9444 58.6787 32.6168 57.9158C32.3156 57.1826 32.3156 56.3602 32.6168 55.627C32.8177 55.215 33.0708 54.8304 33.3696 54.4827C33.6708 54.1213 34.002 53.76 34.3032 53.4588L36.381 51.3809L38.4589 49.303L37.9771 48.8213L37.4652 48.3093L37.6459 47.1048L37.8266 45.9604L38.8806 47.0445L39.9646 48.0985L41.0488 47.0144L42.1329 45.9303C42.4942 45.5689 42.5243 45.2377 42.4039 44.9967C42.36 44.8832 42.2913 44.7811 42.2027 44.6977C42.1141 44.6143 42.0079 44.5518 41.892 44.5149H41.5908L41.2596 44.3644L41.7113 43.4007L42.163 42.437C42.68 42.6401 43.1665 42.9138 43.6085 43.2502C44.0373 43.5778 44.37 44.0146 44.5721 44.5149C44.6874 44.8409 44.7283 45.1887 44.6919 45.5326C44.6554 45.8765 44.5425 46.2078 44.3614 46.5024C44.0047 47.1436 43.5471 47.7232 43.0062 48.219L42.2533 49.002L41.4703 49.7548L42.0125 50.2969L42.5545 50.8088V52.0736V53.3384L41.4403 52.2241L40.3561 51.1401L37.7362 53.7298L35.1463 56.3197C34.9411 56.5467 34.8275 56.8418 34.8275 57.1478C34.8275 57.4539 34.9411 57.749 35.1463 57.9759C35.5317 58.4565 36.0424 58.8213 36.622 59.03C37.297 59.2724 38.0235 59.3347 38.7299 59.2106C39.4633 59.0994 40.1514 58.7866 40.7175 58.3073C40.287 58.0331 39.9508 57.6338 39.7539 57.1629C39.6507 56.9359 39.5973 56.6895 39.5973 56.4402C39.5973 56.1909 39.6507 55.9444 39.7539 55.7174C39.8236 55.5902 39.9041 55.4693 39.9948 55.356C40.078 55.2132 40.1792 55.0816 40.2959 54.9645C40.5177 54.7189 40.7866 54.5204 41.0867 54.3807C41.3867 54.241 41.7118 54.163 42.0425 54.1515C42.3675 54.1544 42.6883 54.2256 42.9841 54.3605C43.2798 54.4953 43.5438 54.691 43.7591 54.9345C44.1071 55.2456 44.378 55.6333 44.5505 56.0671C44.723 56.5008 44.7922 56.9688 44.7528 57.4339C44.5574 58.3873 44.0613 59.2528 43.3374 59.9033L43.0664 59.6925Z" fill="#01A601"/>
</svg>
