<svg width="66" height="66" viewBox="0 0 66 66" fill="none" xmlns="http://www.w3.org/2000/svg">
<circle cx="33" cy="33" r="31.5" fill="#1f1f2e" stroke="#1f1f2e" stroke-width="3"/>
<circle cx="33" cy="33" r="30" fill="#1f1f2e"/>
<g clip-path="url(#clip0_5589_73765)">
<path d="M33 3C41.284 3 48.784 6.35801 54.213 11.787C59.642 17.216 63 24.716 63 33C63 41.284 59.642 48.784 54.213 54.213C48.784 59.642 41.284 63 33 63C24.716 63 17.216 59.642 11.787 54.213C6.35801 48.784 3 41.284 3 33C3 24.716 6.35801 17.216 11.787 11.787C17.216 6.35801 24.716 3 33 3ZM27.2143 40.0986C27.0981 39.9479 27.5183 38.9129 27.6178 38.7456C26.4785 37.7318 25.5783 36.709 25.3864 34.6042L25.2642 34.6068C24.982 34.603 24.71 34.5381 24.4553 34.3929C24.0473 34.161 23.7604 33.7625 23.5666 33.3134C23.1565 32.3708 21.8052 29.2425 23.8639 29.4898C22.7128 27.34 25.3181 23.6674 20.8247 22.3091C24.5114 17.6398 32.2902 10.4402 37.9907 17.6621C44.2303 18.2668 46.1766 25.6821 41.975 29.7434C42.2213 29.7523 42.4532 29.809 42.6585 29.9189C43.4395 30.3373 43.4652 31.2452 43.2599 32.0071C43.0568 32.6433 42.7989 33.0739 42.5556 33.6942C42.2598 34.5318 41.8273 34.6877 40.9917 34.5975C40.9493 36.6682 39.9923 37.6846 38.7045 38.9011L39.0568 40.0949C37.3298 43.7583 30.1556 43.9056 27.2143 40.0986ZM12.2288 49.1981C13.6439 43.1591 17.5791 45.2845 25.159 40.5418C27.8522 46.1612 38.798 46.5696 41.0426 40.5418C47.5289 44.6884 52.6403 42.9937 53.9283 48.9955C57.3226 44.561 59.3395 39.0161 59.3395 33C59.3395 25.7264 56.3913 19.1414 51.6251 14.3749C46.8586 9.60867 40.2736 6.66047 33 6.66047C25.7264 6.66047 19.1414 9.60867 14.3749 14.3749C9.60867 19.1414 6.66047 25.7264 6.66047 33C6.66047 39.1082 8.73984 44.7304 12.2288 49.1981Z" fill="white"/>
</g>
<defs>
<clipPath id="clip0_5589_73765">
<rect width="60" height="60" fill="white" transform="translate(3 3)"/>
</clipPath>
</defs>
</svg>
