<svg width="100" height="101" viewBox="0 0 100 101" fill="none" xmlns="http://www.w3.org/2000/svg">
<path fill-rule="evenodd" clip-rule="evenodd" d="M9.375 79.5141C9.48978 80.637 10.0061 81.6868 10.8363 82.4846C11.6664 83.2824 12.7587 83.7789 13.9271 83.8892H85.104C86.198 83.7879 87.2289 83.35 88.0432 82.6405C88.8575 81.9311 89.4118 80.9881 89.6237 79.9517C89.6237 79.9517 89.6237 79.7016 89.6237 79.4204V54.9517C89.201 54.9517 89.2335 55.1391 89.0059 55.4204C87.9873 56.8732 86.8454 58.2424 85.5918 59.5141L80.9744 63.5141C78.6333 65.3579 72.8132 69.4204 69.5616 69.4204C67.803 69.335 66.1083 68.7595 64.6842 67.7642L60.6847 65.2954C58.1064 63.6013 55.7101 61.6646 53.5312 59.5141C52.332 58.2379 51.2444 56.8686 50.2796 55.4204C50.052 55.1391 50.0845 54.9517 49.6618 54.9517H9.375V79.5141ZM21.7309 64.7954H32.0709C32.715 64.8035 33.3305 65.053 33.786 65.4908C34.2415 65.9286 34.5011 66.5201 34.5096 67.1391C34.501 67.7553 34.2404 68.3434 33.784 68.7762C33.3276 69.209 32.7121 69.4517 32.0709 69.4516H21.7309C21.0897 69.4517 20.4742 69.209 20.0178 68.7762C19.5614 68.3434 19.3008 67.7553 19.2922 67.1391C19.3007 66.5201 19.5603 65.9286 20.0158 65.4908C20.4714 65.053 21.0868 64.8035 21.7309 64.7954Z" fill="white"/>
<path fill-rule="evenodd" clip-rule="evenodd" d="M49.5317 25.7334C49.5317 34.3896 48.5888 43.5147 53.1085 51.0459C54.1214 52.9031 55.4388 54.5914 57.0102 56.0459C57.8231 56.9209 57.0103 56.4522 58.4735 57.5147C59.0588 57.9522 59.4164 58.3897 60.0342 58.8584L63.5134 61.4209C65.2986 62.6744 67.2302 63.7232 69.2687 64.5459H69.8865C72.5572 63.3579 75.0774 61.8795 77.3976 60.1397C79.7025 58.5186 81.7792 56.6173 83.5757 54.4834C84.4803 53.4222 85.2957 52.2936 86.0144 51.1084C88.4457 46.7921 89.6986 41.9539 89.6561 37.0459V25.6709C89.6561 23.9522 86.9247 23.2022 85.4615 22.5459L75.154 18.3271C68.3583 15.5771 70.797 15.5771 64.0337 18.3271L58.8637 20.4208L51.19 23.5458C50.722 23.7157 50.3157 24.0132 50.0211 24.4018C49.7265 24.7904 49.5564 25.2532 49.5317 25.7334Z" fill="white"/>
<path fill-rule="evenodd" clip-rule="evenodd" d="M9.375 35.2331V45.3268H45.5973C45.5973 44.5143 45.2398 43.6706 45.1097 42.7644C44.5781 38.8175 44.3715 34.8363 44.4919 30.8582H13.9271C12.7587 30.9685 11.6664 31.4648 10.8363 32.2626C10.0061 33.0604 9.48978 34.1103 9.375 35.2331Z" fill="white"/>
<path fill-rule="evenodd" clip-rule="evenodd" d="M79.6412 30.3591C80.2576 30.4771 80.825 30.7642 81.2751 31.1857C81.7253 31.6072 82.0386 32.145 82.1773 32.7341C82.2107 33.0044 82.1716 33.2785 82.0634 33.5302C81.9553 33.7818 81.7819 34.0027 81.5597 34.1716C77.8855 37.2966 76.6173 38.6716 68.5535 46.8278C68.2608 47.1091 67.9355 47.5466 67.4153 47.5466C66.895 47.5466 66.5049 47.2341 66.0497 46.7966L59.8716 41.1716C59.6706 41.0206 59.5036 40.8319 59.3806 40.617C59.2577 40.4022 59.1814 40.1656 59.1564 39.9216C59.2481 39.287 59.5406 38.6948 59.9943 38.2252C60.4479 37.7557 61.0407 37.4315 61.6925 37.2966C62.0289 37.2953 62.3608 37.3711 62.6606 37.5179C62.9603 37.6646 63.2193 37.8781 63.4159 38.1404L67.1877 41.7341C71.1221 37.7966 78.2105 30.3591 79.6412 30.3591Z" fill="#01A601"/>
</svg>
