<svg width="24" height="34" viewBox="0 0 24 34" fill="none" xmlns="http://www.w3.org/2000/svg">
<g id="Map 1" clip-path="url(#clip0_992_26689)">
<path id="Vector" fill-rule="evenodd" clip-rule="evenodd" d="M7.71465 17.5344L7.8055 17.3906C7.63136 17.3906 7.58593 17.3224 7.5178 17.2088C7.43149 17.034 7.29771 16.8872 7.13171 16.7849L7.00297 16.8455C6.97384 16.8572 6.94126 16.8572 6.91213 16.8455L6.73801 16.6713C6.72201 16.6493 6.71338 16.6229 6.71338 16.5956C6.71338 16.5684 6.72201 16.542 6.73801 16.52C6.73801 16.4367 6.79858 16.3458 6.83644 16.2701C6.90003 16.1424 6.94831 16.0078 6.98029 15.8689C6.98029 15.778 7.05597 15.7401 7.14682 15.7477C7.22598 15.7571 7.30194 15.7845 7.36886 15.8278C7.43579 15.8711 7.49192 15.9292 7.53295 15.9975C7.63137 15.9975 7.69193 15.9975 7.75249 16.1035C7.81306 16.2095 7.82822 16.1792 7.86608 16.2171C7.90393 16.255 7.9342 16.2171 7.94177 16.2171C7.94934 16.2171 8.13863 16.1641 8.1992 16.0506C8.25977 15.937 8.32034 15.99 8.38848 15.9673C8.45662 15.9446 8.44149 15.9672 8.45664 16.0202C8.47178 16.0732 8.4566 16.0959 8.51717 16.1641C8.58531 16.0429 8.58532 15.884 8.76703 15.9142L8.82761 16.0051C8.82761 16.0051 8.82761 16.0051 8.82761 15.9521C8.84242 15.9105 8.84217 15.865 8.82696 15.8235C8.81175 15.782 8.7825 15.7472 8.74429 15.725C8.69886 15.725 8.68374 15.6266 8.6686 15.566C8.64131 15.4814 8.64284 15.3902 8.67299 15.3066C8.70313 15.223 8.76021 15.1519 8.83518 15.1042C8.91089 15.0512 8.95631 14.9603 9.0623 14.9527H9.10773C9.19101 14.771 9.38786 14.6423 9.35001 14.4076H9.50897C9.52941 14.3512 9.53388 14.2903 9.52186 14.2315C9.50983 14.1727 9.48181 14.1184 9.44085 14.0745C9.36514 13.9837 9.25155 13.8852 9.27427 13.7338C9.28142 13.7091 9.28142 13.6828 9.27427 13.6581C9.24844 13.623 9.23453 13.5805 9.23453 13.5369C9.23453 13.4934 9.24844 13.451 9.27427 13.4159L9.10015 13.5142C9.10015 13.4006 9.03957 13.3098 9.138 13.2341C9.14438 13.217 9.14438 13.1982 9.138 13.1811C9.18742 13.0105 9.18742 12.8294 9.138 12.6588C9.08219 12.5328 9.06633 12.3927 9.09257 12.2575C9.10001 12.1921 9.10001 12.126 9.09257 12.0606C9.07842 11.9056 9.12449 11.751 9.22127 11.629L9.39543 11.6745V11.4777H9.22127C9.19708 11.4187 9.1879 11.3546 9.19451 11.2912C9.20112 11.2277 9.22334 11.167 9.25916 11.1143C9.30458 11.0461 9.25916 11.0007 9.25916 10.9326C9.25916 10.7433 9.06229 10.6524 8.94872 10.5237C8.90948 10.4831 8.85965 10.4542 8.80487 10.4404V10.3193C8.7443 10.2739 8.65347 10.2512 8.63075 10.1982C8.58598 10.0794 8.5604 9.95404 8.55502 9.82715C8.55517 9.74109 8.57323 9.65604 8.60802 9.57734C8.62707 9.53577 8.63695 9.49054 8.63695 9.44481C8.63695 9.39908 8.62707 9.35394 8.60802 9.31237C8.56284 9.24241 8.53455 9.1629 8.52535 9.08012C8.51615 8.99735 8.5263 8.91357 8.55502 8.8354C8.55502 8.8354 8.55502 8.78999 8.55502 8.75971L8.69133 8.71423C8.69133 8.71423 8.69133 8.66885 8.69133 8.66128C8.53991 8.44172 8.69133 8.27517 8.78218 8.10103L9.01688 7.76028C8.94814 7.66605 8.91343 7.55132 8.91845 7.43478C9.10773 7.43478 9.12284 7.43472 9.17584 7.55585C9.22884 7.67699 9.25158 7.75271 9.297 7.85113C9.34243 7.94955 9.43328 7.85117 9.48628 7.7906C9.50188 7.75696 9.52545 7.72762 9.55499 7.7052C9.58453 7.68279 9.61914 7.66802 9.65573 7.66204C9.69232 7.65607 9.72979 7.65915 9.76492 7.67101C9.80005 7.68286 9.83176 7.70314 9.85725 7.73006C9.87797 7.75338 9.90375 7.77158 9.93262 7.78339C9.96149 7.7952 9.99267 7.80028 10.0238 7.79818C10.0564 7.80423 10.0874 7.81708 10.1146 7.83598C10.1146 7.83598 10.1601 7.88902 10.1828 7.88902C10.2396 7.88446 10.296 7.90138 10.3408 7.93644C10.3857 7.97149 10.4158 8.02212 10.4251 8.0783C10.454 8.0566 10.4872 8.04143 10.5226 8.03384C10.5579 8.02626 10.5945 8.02639 10.6298 8.03431C10.665 8.04222 10.6982 8.05772 10.7269 8.07968C10.7556 8.10165 10.7792 8.12959 10.796 8.16157C10.8216 8.19802 10.8583 8.22517 10.9007 8.23883C10.9431 8.2525 10.9887 8.25191 11.0307 8.23726C11.1822 8.17669 11.2579 8.23728 11.3336 8.35084C11.357 8.32488 11.3856 8.30414 11.4176 8.28994C11.4495 8.27573 11.4841 8.2684 11.5191 8.2684C11.5541 8.2684 11.5886 8.27573 11.6206 8.28994C11.6525 8.30414 11.6811 8.32488 11.7046 8.35084C11.7294 8.3576 11.7555 8.3576 11.7803 8.35084C11.8305 8.34131 11.8824 8.34794 11.9286 8.3697C11.9749 8.39145 12.013 8.42725 12.0377 8.472C12.1083 8.47653 12.1791 8.47653 12.2497 8.472C12.3797 8.45408 12.5086 8.42882 12.6358 8.39631C12.678 8.38304 12.7228 8.38017 12.7663 8.38809C12.8099 8.396 12.8508 8.41441 12.8856 8.44169L13.0143 8.5477V8.4038C13.0397 8.38918 13.0684 8.38153 13.0976 8.38153C13.1268 8.38153 13.1556 8.38918 13.1809 8.4038C13.3551 8.51736 13.3929 8.50979 13.5065 8.4038L14.0667 8.50223C14.1121 8.50223 14.15 8.5553 14.1803 8.58559C14.2406 8.62346 14.3083 8.64779 14.3789 8.65693C14.4494 8.66608 14.5212 8.6598 14.5891 8.63854C14.6256 8.60128 14.6585 8.5607 14.6875 8.51738C14.7191 8.55739 14.7621 8.58688 14.8108 8.60176C14.8595 8.61665 14.9116 8.61621 14.9601 8.60065C15.0104 8.68125 15.0372 8.77446 15.0372 8.8695C15.0372 8.96454 15.0104 9.05765 14.9601 9.13825C14.9079 9.23674 14.8673 9.34083 14.839 9.4486C14.9048 9.52455 14.9607 9.60855 15.0055 9.6985C15.021 9.79123 15.021 9.88589 15.0055 9.97862C15.0467 9.96302 15.0915 9.95969 15.1345 9.9691C15.1775 9.97851 15.2169 10.0002 15.2478 10.0316C15.3201 10.0711 15.4002 10.0944 15.4825 10.0998H15.7248C15.7539 10.0658 15.7938 10.0427 15.8379 10.0344C15.8819 10.0262 15.9275 10.0332 15.967 10.0543C15.95 10.1036 15.9373 10.1542 15.9292 10.2057C15.9292 10.3268 15.9292 10.3496 16.0125 10.4177C16.033 10.4287 16.0502 10.445 16.0622 10.465C16.0742 10.485 16.0806 10.508 16.0806 10.5313C16.0806 10.5546 16.0742 10.5775 16.0622 10.5976C16.0502 10.6176 16.033 10.6339 16.0125 10.6449C15.9705 10.68 15.9402 10.727 15.9253 10.7796C15.9105 10.8323 15.9118 10.8883 15.9292 10.9402C15.9292 11.031 16.0352 11.0461 16.1109 11.0536H16.3077C16.391 11.0536 16.4364 11.1142 16.4289 11.1824C16.4213 11.2505 16.4289 11.3641 16.338 11.4171C16.324 11.424 16.3117 11.4339 16.3019 11.4461C16.2922 11.4583 16.2852 11.4725 16.2816 11.4876C16.278 11.5028 16.2778 11.5187 16.281 11.5339C16.2842 11.5492 16.2907 11.5636 16.3002 11.5761C16.3034 11.5911 16.3034 11.6065 16.3002 11.6215C16.2962 11.6729 16.3069 11.7244 16.331 11.77C16.3551 11.8155 16.3917 11.8533 16.4364 11.8789C16.3759 12.1061 16.3077 12.1742 16.1563 12.1515V12.3256C16.2774 12.2499 16.3607 12.3256 16.4516 12.3861C16.5424 12.4467 16.4516 12.4694 16.4894 12.5073C16.4224 12.5287 16.3567 12.554 16.2926 12.583C16.2926 12.583 16.2926 12.6512 16.2926 12.7042C16.4289 12.6663 16.5273 12.7042 16.5879 12.8253L16.4743 12.954C16.4235 12.9972 16.3801 13.0484 16.3456 13.1054C16.3273 13.1506 16.2959 13.1891 16.2554 13.2162C16.2149 13.2432 16.1672 13.2573 16.1185 13.2568L16.1866 13.378C16.1722 13.4322 16.1411 13.4805 16.0975 13.5159C16.054 13.5512 16.0003 13.5719 15.9443 13.5748C15.8459 13.5748 15.8005 13.6354 15.808 13.749C15.761 13.7274 15.7078 13.7232 15.6579 13.737C15.6081 13.7509 15.5647 13.7819 15.5355 13.8246C15.5187 13.8481 15.4965 13.8672 15.4708 13.8804C15.4452 13.8936 15.4167 13.9004 15.3878 13.9004C15.359 13.9004 15.3305 13.8936 15.3048 13.8804C15.2792 13.8672 15.257 13.8481 15.2402 13.8246C15.2808 13.9117 15.3113 14.0032 15.331 14.0972C15.337 14.1736 15.3576 14.2481 15.3916 14.3168C15.4276 14.3737 15.4405 14.4421 15.4279 14.5082C15.4152 14.5743 15.3779 14.633 15.3235 14.6726C15.2717 14.7135 15.2314 14.7671 15.2062 14.828C15.181 14.889 15.1719 14.9554 15.1796 15.0209C15.1796 15.1042 15.1796 15.1496 15.0661 15.1723C14.9525 15.195 14.9677 15.1723 14.9828 15.3086C15.0013 15.3652 15.0013 15.4262 14.9828 15.4827C14.9429 15.5601 14.889 15.6294 14.8238 15.6872C14.8023 15.6963 14.7791 15.701 14.7556 15.701C14.7322 15.701 14.7091 15.6963 14.6875 15.6872C14.6122 15.6572 14.5282 15.6572 14.4528 15.6872C14.3497 15.6983 14.2456 15.6983 14.1424 15.6872C13.938 15.6872 13.8471 15.8082 13.9001 16.0051C13.8959 16.0301 13.8959 16.0557 13.9001 16.0808C13.991 16.2019 13.938 16.308 13.9001 16.414C13.8808 16.431 13.8653 16.4519 13.8547 16.4754C13.8441 16.4989 13.8386 16.5244 13.8386 16.5502C13.8386 16.576 13.8441 16.6014 13.8547 16.6249C13.8653 16.6484 13.8808 16.6694 13.9001 16.6865C14.0137 16.8152 14.0137 16.8304 13.9001 16.9137C13.7866 16.9969 13.7941 17.0423 13.9001 17.118C14.0061 17.1937 13.9002 17.1181 13.9456 17.1711V17.33C13.801 17.409 13.6765 17.5205 13.5822 17.6556C13.5636 17.7048 13.5286 17.746 13.483 17.7722C13.4374 17.7985 13.3842 17.8081 13.3323 17.7994C13.3323 17.6707 13.4307 17.5951 13.4535 17.4815C13.4824 17.3568 13.5229 17.2351 13.5746 17.118L13.3853 17.2088L13.2718 17.0878C13.2718 17.0878 13.2263 17.0878 13.2112 17.0878L13.0068 17.3603C12.9067 17.3495 12.8146 17.3007 12.7494 17.224C12.7197 17.1956 12.6822 17.1769 12.6417 17.1701C12.6011 17.1634 12.5595 17.169 12.5222 17.1862C12.4541 17.1862 12.4617 17.2846 12.4617 17.3452C12.4617 17.4057 12.4617 17.5193 12.6358 17.542C12.7604 17.5523 12.8843 17.5699 13.0068 17.595C13.0343 17.5968 13.0602 17.6086 13.0797 17.6281C13.0992 17.6476 13.111 17.6735 13.1128 17.701C13.1337 17.8189 13.1311 17.9399 13.1051 18.0568C13.0791 18.1737 13.0302 18.2844 12.9613 18.3824C12.7796 18.3294 12.5904 18.284 12.4087 18.2234C12.4087 18.2234 12.3481 18.1553 12.3178 18.1174C12.2306 18.1602 12.1348 18.1824 12.0377 18.1824C11.9406 18.1824 11.8448 18.1602 11.7576 18.1174V17.9811C11.6797 17.9507 11.5932 17.9507 11.5153 17.9811C11.4093 17.9811 11.3866 18.0871 11.4471 18.1704L11.4926 18.2158C11.6213 18.2916 11.7122 18.4126 11.8636 18.4505C12.015 18.4884 11.9393 18.5716 11.9468 18.6246C11.9544 18.6776 12.1437 18.5717 12.2118 18.6777L12.3481 18.8821L12.6434 18.9729C12.681 18.9947 12.7219 19.01 12.7645 19.0183C12.9916 19.0183 13.0825 19.2077 13.2642 19.2834C13.2082 19.4218 13.2082 19.5765 13.2642 19.7149C13.2761 19.8205 13.2761 19.9272 13.2642 20.0329L13.1052 19.9647C13.0295 19.9647 12.9916 19.9648 12.9613 20.0253C12.931 20.0859 12.9008 20.1994 12.7115 20.1994H12.6131C12.5703 20.2031 12.5272 20.2031 12.4844 20.1994C12.4516 20.2027 12.4187 20.2027 12.3859 20.1994C12.3102 20.2903 12.3859 20.3433 12.3859 20.419C12.3774 20.43 12.3666 20.4389 12.3541 20.445C12.3416 20.4511 12.3279 20.4543 12.314 20.4543C12.3001 20.4543 12.2864 20.4511 12.274 20.445C12.2615 20.4389 12.2506 20.43 12.2421 20.419C12.1437 20.3206 11.9923 20.2902 11.9317 20.1464C11.9114 20.1374 11.8895 20.1328 11.8673 20.1328C11.8452 20.1328 11.8233 20.1374 11.803 20.1464C11.7229 20.2444 11.6636 20.3578 11.6288 20.4796L11.7954 20.5249C11.7717 20.5707 11.7359 20.6091 11.6918 20.6358C11.6477 20.6626 11.5971 20.6766 11.5456 20.6764C11.4396 20.6764 11.3941 20.6234 11.3639 20.5174C11.3424 20.4252 11.3093 20.3362 11.2654 20.2524C11.167 20.0707 11.0686 20.0783 10.9475 20.2524L10.8415 20.1919C10.8038 20.1865 10.7656 20.1865 10.7279 20.1919C10.7325 20.2321 10.7325 20.2728 10.7279 20.313C10.7358 20.3835 10.7358 20.4545 10.7279 20.5249C10.6749 20.6536 10.6522 20.6612 10.5159 20.6234C10.5159 20.6234 10.5159 20.6764 10.5159 20.6992C10.5301 20.7479 10.5327 20.7993 10.5235 20.8492C10.5143 20.8992 10.4936 20.9464 10.4629 20.9869C10.3569 21.1383 10.2661 21.3123 10.0617 21.3729C9.9773 21.3963 9.8876 21.3921 9.80582 21.3608C9.72404 21.3294 9.65447 21.2726 9.60739 21.1988C9.59957 21.1309 9.59957 21.0623 9.60739 20.9943L9.46354 20.7142L9.25916 20.7597L9.30458 20.6007C9.06988 20.6007 9.06986 20.6007 8.94872 20.3432C8.9048 20.2586 8.85415 20.1776 8.79729 20.101L8.98657 19.8663L9.12284 19.9571C9.19098 19.7906 9.17588 19.7376 9.06988 19.6468C9.04066 19.62 9.01517 19.5895 8.99415 19.5559C8.94115 19.4802 8.90329 19.4802 8.85029 19.5559L8.74429 19.6922C8.73972 19.6252 8.72701 19.5591 8.70644 19.4953C8.6966 19.4471 8.66974 19.4042 8.63075 19.3742C8.51719 19.2985 8.51718 19.2985 8.57017 19.1698C8.62317 19.0411 8.57017 19.1168 8.6156 19.0714H8.50206C8.50206 19.0714 8.40363 19.0184 8.40363 18.9957C8.40105 18.9574 8.38937 18.9202 8.36962 18.8873C8.34988 18.8544 8.32262 18.8267 8.29005 18.8064C8.29005 18.8064 8.29005 18.8063 8.29005 18.7458H8.52475C8.5626 18.6625 8.56261 18.6019 8.47932 18.5489C8.42677 18.5134 8.38969 18.4592 8.37563 18.3974C8.36157 18.3355 8.3716 18.2706 8.40363 18.2158C8.42814 18.1859 8.44848 18.1528 8.46417 18.1174C8.50959 18.0039 8.46417 17.9054 8.3279 17.9206C8.19162 17.9357 8.06293 17.8373 7.9645 17.7465C7.86608 17.6556 7.85852 17.6026 7.79039 17.5193L7.71465 17.5344ZM7.48753 16.8909C7.55567 16.8304 7.5481 16.7925 7.48753 16.7622C7.42696 16.7319 7.48752 16.7622 7.42695 16.7622L7.47237 16.8833L7.48753 16.8909ZM8.93356 8.366C8.93634 8.34337 8.93634 8.32051 8.93356 8.29789H8.88061L8.94114 8.366H8.93356ZM8.93356 15.3313H8.89572C8.89572 15.3313 8.94873 15.3388 9.00172 15.3237L8.93356 15.3313Z" fill="#1F5DA0"/>
<path id="Vector_2" fill-rule="evenodd" clip-rule="evenodd" d="M22.3573 29.383C22.2816 29.383 22.1983 29.436 22.1756 29.5344C22.1529 29.6328 22.1074 29.595 22.0544 29.6025C22.0008 29.5977 21.9472 29.6128 21.9039 29.6449C21.8607 29.6771 21.8307 29.724 21.8197 29.7767C21.7333 29.9529 21.6093 30.108 21.4564 30.231V30.4656C21.4564 30.5413 21.4564 30.617 21.5548 30.6549C21.5699 30.6651 21.5825 30.6785 21.5917 30.6943C21.6008 30.71 21.6063 30.7276 21.6078 30.7458C21.614 30.8766 21.5796 31.0061 21.5094 31.1167C21.4261 31.2227 21.4563 31.3136 21.585 31.3363C21.6426 31.3427 21.6977 31.3633 21.7453 31.3964C21.7929 31.4294 21.8315 31.4739 21.8576 31.5256C21.8576 31.5256 21.9106 31.5786 21.9409 31.6089C21.9712 31.6391 22.0545 31.7375 21.9409 31.8738C21.9595 31.9232 21.9747 31.9738 21.9863 32.0253C21.9863 32.1464 21.9863 32.2675 21.9863 32.3887C21.9899 32.4023 21.9902 32.4167 21.9872 32.4305C21.9843 32.4443 21.9781 32.4571 21.9693 32.4682C21.9605 32.4792 21.9492 32.488 21.9364 32.494C21.9236 32.4999 21.9096 32.5027 21.8955 32.5023C21.8347 32.4465 21.7946 32.3718 21.7819 32.2903C21.7608 32.1307 21.7038 31.978 21.6153 31.8436C21.6153 31.8057 21.5472 31.7527 21.5018 31.7452C21.4549 31.7286 21.4131 31.7005 21.38 31.6635C21.3469 31.6264 21.3237 31.5816 21.3125 31.5332L21.4185 31.3894H21.2368L21.1384 31.2379C21.1246 31.206 21.1039 31.1775 21.0778 31.1546C21.0413 31.1405 21.0101 31.1155 20.9884 31.083C20.9667 31.0505 20.9556 31.012 20.9566 30.9729C20.9453 30.852 20.9453 30.7304 20.9566 30.6095C20.977 30.5384 21.0104 30.4716 21.0551 30.4127C21.0445 30.3915 21.0289 30.3733 21.0096 30.3596C20.8961 30.2612 20.8961 30.2613 20.9642 30.1325C21.0324 30.0038 20.9642 29.9736 20.9642 29.8827H20.8431C20.8043 29.8822 20.7664 29.8714 20.7331 29.8514C20.6999 29.8315 20.6725 29.8031 20.6538 29.7692L20.5478 29.6632C20.5324 29.6453 20.5239 29.6225 20.5239 29.5988C20.5239 29.5752 20.5324 29.5523 20.5478 29.5344C20.5511 29.5042 20.5511 29.4738 20.5478 29.4436C20.5478 29.33 20.616 29.277 20.7295 29.2619H20.8582C20.8582 29.1483 20.8582 29.1104 20.8128 29.065H20.7371C20.6235 29.012 20.616 28.9287 20.7371 28.8606C20.7595 28.8551 20.7829 28.8551 20.8053 28.8606L20.8885 28.9288C20.9567 28.9818 21.0172 28.9287 21.04 28.8757C21.0438 28.8127 21.0438 28.7495 21.04 28.6865H20.8355C20.8278 28.6414 20.8278 28.5953 20.8355 28.5502C20.8462 28.4878 20.864 28.4269 20.8885 28.3685C20.9048 28.3297 20.9309 28.2958 20.9642 28.2701C21.0475 28.1944 21.0702 28.1338 20.9642 28.0657C20.8808 27.9988 20.8165 27.9111 20.7779 27.8113C20.7393 27.7116 20.7279 27.6035 20.7447 27.4979C20.7447 27.4733 20.7377 27.4492 20.7245 27.4285C20.7113 27.4077 20.6924 27.3911 20.6701 27.3808C20.6478 27.3704 20.6231 27.3668 20.5987 27.37C20.5743 27.3733 20.5514 27.3835 20.5327 27.3994H20.4948C20.4558 27.443 20.4052 27.4747 20.3489 27.4907C20.2927 27.5068 20.233 27.5067 20.1769 27.4903C20.1845 27.4331 20.2056 27.3785 20.2385 27.3311C20.2715 27.2837 20.3152 27.2449 20.3661 27.2177C20.4191 27.2177 20.4873 27.1647 20.4721 27.089C20.4635 27.0537 20.443 27.0224 20.414 27.0004C20.3851 26.9783 20.3495 26.9668 20.3131 26.9678H20.3586C20.298 26.824 20.2374 26.6878 20.1844 26.5515C20.1704 26.5287 20.1629 26.5025 20.1629 26.4758C20.1629 26.4491 20.1704 26.4228 20.1844 26.4C20.2904 26.2789 20.2829 26.2487 20.1844 26.1805C20.1686 26.1747 20.1544 26.1652 20.1429 26.1527C20.1315 26.1403 20.1232 26.1252 20.1188 26.1089C20.1143 26.0926 20.1139 26.0755 20.1174 26.059C20.1209 26.0425 20.1283 26.027 20.139 26.0139C20.1769 25.9382 20.2299 25.8701 20.2829 25.7717H20.1314C20.1314 25.7717 20.0633 25.7716 20.0557 25.7262C20.0484 25.7135 20.0446 25.6992 20.0446 25.6846C20.0446 25.67 20.0484 25.6556 20.0557 25.6429C20.098 25.6064 20.1468 25.5782 20.1995 25.5596C20.2601 25.5596 20.2904 25.484 20.2525 25.4158H20.2147C20.1541 25.4158 20.1087 25.5294 20.0406 25.484C19.9578 25.4213 19.8817 25.3502 19.8135 25.2719C19.8135 25.2719 19.8135 25.1736 19.8135 25.1357C19.8135 25.0979 19.9194 24.9918 19.9724 24.9086L19.7983 24.7648C19.8589 24.5073 20.0481 24.6133 20.2147 24.636C20.1541 24.4922 20.2147 24.3786 20.2147 24.2499C20.2147 24.1212 20.2601 24.1439 20.298 24.0909C20.3358 24.0379 20.3586 24.0909 20.3737 24.0303C20.3889 23.9697 20.3737 23.8638 20.3131 23.8789C20.204 23.8946 20.0987 23.9306 20.0027 23.9849C19.9043 24.0379 19.9043 24.0985 20.0027 24.2423C19.986 24.2804 19.9562 24.3113 19.9187 24.3294C19.8812 24.3474 19.8385 24.3515 19.7983 24.3407H19.6015H19.4879C19.4879 24.2575 19.4879 24.1893 19.4879 24.1136C19.4879 24.0379 19.4879 24.0152 19.5409 23.947C19.397 23.947 19.3441 23.8865 19.2911 23.7729C19.2381 23.6593 19.0715 23.3868 18.973 23.1899C18.973 23.1294 18.9731 23.0385 18.9049 22.9779C18.8368 22.9174 18.7913 22.9023 18.7384 22.8644C18.7072 22.8415 18.6835 22.8099 18.6702 22.7736C18.6013 22.6352 18.5091 22.5097 18.3976 22.4026C18.3657 22.3643 18.3238 22.3354 18.2765 22.3192C18.1478 22.2663 18.1327 22.2512 18.1554 22.1149C18.1518 22.0822 18.1518 22.0492 18.1554 22.0165V21.971L17.9737 21.9256C18.0191 21.7136 18.057 21.5016 18.11 21.2896C18.1319 21.2228 18.1572 21.1571 18.1857 21.0928C18.1857 21.0095 18.1857 20.9489 18.1024 20.9262L17.951 21.1306C17.9696 21.1933 17.9718 21.2597 17.9572 21.3233C17.9426 21.387 17.9118 21.4458 17.8677 21.494C17.8635 21.5089 17.8635 21.5247 17.8677 21.5395C17.8677 21.7061 17.7996 21.7363 17.633 21.7212H17.5119C17.5353 21.7625 17.5556 21.8055 17.5724 21.8499C17.5768 21.8901 17.5768 21.9307 17.5724 21.971H17.4664H17.262V22.1451C17.1636 22.1451 17.0652 22.1906 16.9819 22.0998C16.8986 22.0089 16.9138 22.0998 16.9062 22.0998C16.881 22.1239 16.865 22.156 16.8608 22.1906C16.8565 22.2334 16.8565 22.2765 16.8608 22.3192H16.7321C16.6717 22.312 16.6107 22.312 16.5503 22.3192C16.3913 22.3192 16.3762 22.3193 16.4292 22.4859L16.3308 22.5843C16.358 22.6181 16.3914 22.6463 16.4292 22.6676C16.5085 22.6973 16.5894 22.7226 16.6715 22.7433C16.7321 22.7433 16.8002 22.7887 16.7926 22.872C16.785 22.9553 16.7169 22.9553 16.6639 22.9704H16.6109C16.6109 23.0689 16.6639 23.1673 16.6109 23.2506C16.5781 23.2917 16.5368 23.3253 16.4898 23.349C16.3844 23.3843 16.27 23.3816 16.1663 23.3415C16.0626 23.3014 15.9762 23.2264 15.922 23.1294C15.9036 23.1055 15.8936 23.0763 15.8936 23.0461C15.8936 23.016 15.9036 22.9867 15.922 22.9629C16.0053 22.8417 15.9901 22.8039 15.8462 22.7812C15.7024 22.7584 15.7175 22.7811 15.71 22.6524C15.7024 22.5237 15.6721 22.501 15.5434 22.554C15.4147 22.607 15.5434 22.5539 15.4828 22.5994C15.4223 22.6448 15.6872 22.8038 15.5207 22.9325L15.604 23.0082C15.5728 23.0378 15.5399 23.0656 15.5056 23.0915H15.4298C15.2406 23.0915 15.1724 23.0915 15.18 22.8871C15.1876 22.6827 15.18 22.7433 15.0513 22.766C15.0186 22.7694 14.9858 22.7614 14.9582 22.7435C14.9307 22.7255 14.9101 22.6988 14.8999 22.6676C14.809 22.4934 14.809 22.4859 14.6349 22.4556C14.6349 22.3723 14.6349 22.2663 14.597 22.2133C14.5685 22.1803 14.547 22.1417 14.534 22.1C14.5209 22.0583 14.5166 22.0144 14.5213 21.971C14.4696 21.9604 14.4189 21.9453 14.3699 21.9256C14.3362 21.9114 14.3078 21.8869 14.2888 21.8557C14.2698 21.8244 14.2611 21.7879 14.2639 21.7514C14.2689 21.677 14.2504 21.6029 14.2109 21.5395C14.2109 21.4941 14.2488 21.4486 14.279 21.3956C14.1352 21.3275 13.9914 21.2518 14.0822 21.0474C14.0139 20.9866 13.9596 20.9117 13.9232 20.8278C13.8778 20.7521 13.787 20.6991 13.84 20.5856C13.6507 20.5856 13.5901 20.4568 13.5674 20.3357C13.5447 20.2145 13.5674 20.0404 13.7188 19.9647C13.6734 19.8738 13.5674 19.7981 13.6279 19.6997C13.6815 19.6252 13.7482 19.5611 13.8248 19.5104L13.7794 19.4196C13.7339 19.3212 13.7339 19.306 13.8248 19.2379C13.9156 19.1698 13.9005 19.1395 13.8248 19.0865L13.6885 19.0107C13.7301 18.9768 13.7682 18.9388 13.8021 18.8972C13.8113 18.8757 13.816 18.8525 13.816 18.829C13.816 18.8056 13.8113 18.7825 13.8021 18.7609C13.7866 18.7443 13.7679 18.731 13.747 18.7219C13.7262 18.7128 13.7037 18.7081 13.6809 18.708C13.6109 18.7211 13.5424 18.7414 13.4765 18.7685C13.4785 18.657 13.458 18.5462 13.416 18.4429C13.3998 18.3989 13.3998 18.3507 13.416 18.3067C13.4498 18.2771 13.4753 18.2391 13.4899 18.1966C13.5045 18.1541 13.5077 18.1085 13.4992 18.0644H13.6885C13.7412 18.0722 13.7948 18.0722 13.8475 18.0644C13.8891 18.0552 13.9256 18.0306 13.9495 17.9954C13.9734 17.9602 13.983 17.9171 13.9762 17.8751C13.9777 17.7501 14.0173 17.6287 14.0898 17.5269H14.2336C14.3093 17.4436 14.4153 17.383 14.3926 17.2392C14.3699 17.0953 14.3926 17.118 14.2715 17.118C14.1504 17.118 14.1882 17.1181 14.1201 17.0121C14.0519 16.9061 14.1882 16.853 14.2185 16.7698L14.0973 16.6941C14.0811 16.687 14.0673 16.6753 14.0576 16.6605C14.048 16.6457 14.0428 16.6285 14.0428 16.6108C14.0428 16.5931 14.048 16.5758 14.0576 16.561C14.0673 16.5462 14.0811 16.5346 14.0973 16.5275H14.1655C14.2639 16.5275 14.2715 16.4593 14.2185 16.3685C14.1574 16.2075 14.1574 16.0298 14.2185 15.8689L14.3699 16.0278C14.3699 15.9748 14.3699 15.9294 14.3699 15.8613C14.3699 15.7931 14.4305 15.8612 14.438 15.9142C14.4416 15.9299 14.4493 15.9444 14.4603 15.9561C14.4712 15.9678 14.4851 15.9764 14.5005 15.981C14.5159 15.9857 14.5323 15.9861 14.5479 15.9823C14.5635 15.9786 14.5779 15.9708 14.5895 15.9597C14.621 15.9431 14.6561 15.9345 14.6917 15.9345C14.7273 15.9345 14.7624 15.9431 14.7939 15.9597C14.8299 15.9631 14.8662 15.9573 14.8994 15.9427C14.9325 15.9281 14.9614 15.9053 14.9832 15.8764C15.0362 15.831 15.0816 15.778 15.1421 15.7325C15.2027 15.6871 15.2557 15.6871 15.339 15.6493C15.4223 15.6114 15.339 15.5281 15.2936 15.4448H15.445C15.4354 15.3904 15.4202 15.3371 15.3996 15.2859C15.286 15.0815 15.3314 14.9755 15.5358 14.8997C15.5358 14.8013 15.6116 14.7029 15.6418 14.6045C15.6641 14.5599 15.6687 14.5086 15.6546 14.4608C15.6406 14.4131 15.6089 14.3725 15.5661 14.3471C15.5661 14.3471 15.5055 14.2637 15.4677 14.2032C15.7478 14.2032 15.869 14.0064 16.0052 13.7944L16.2097 13.7414C16.2097 13.8549 16.3232 13.8625 16.4368 13.8625C16.5718 13.8858 16.7038 13.9239 16.8305 13.9761L16.7245 14.1199C16.7699 14.2865 16.8078 14.4379 16.8532 14.5969C16.879 14.7148 16.9119 14.8311 16.9516 14.9451C16.997 15.0587 16.9516 15.089 16.8608 15.089H16.8002L16.7169 15.2102H16.5503V15.2783C16.5613 15.3384 16.5613 15.3999 16.5503 15.46C16.5503 15.4978 16.4595 15.513 16.4141 15.5433C16.3905 15.5617 16.3714 15.5852 16.3582 15.6121C16.3451 15.639 16.3383 15.6685 16.3383 15.6984C16.3383 15.7284 16.3451 15.7579 16.3582 15.7848C16.3714 15.8117 16.3905 15.8353 16.4141 15.8537C16.5579 15.9824 16.5731 16.0808 16.4671 16.2776L16.3535 16.2171V16.2625C16.3924 16.2912 16.4279 16.3242 16.4595 16.3609C16.3459 16.5275 16.3383 16.5275 16.1718 16.4669H16.1264C16.0916 16.4582 16.0552 16.4582 16.0204 16.4669C16.0094 16.4962 16.0094 16.5285 16.0204 16.5577C16.056 16.6145 16.0749 16.6801 16.0749 16.747C16.0749 16.814 16.056 16.8796 16.0204 16.9363C15.983 16.9939 15.9582 17.0588 15.9478 17.1267C15.9373 17.1946 15.9414 17.2638 15.9598 17.33C15.9977 17.33 16.0658 17.33 16.0734 17.33C16.1175 17.3939 16.1484 17.466 16.1642 17.542C16.175 17.6046 16.175 17.6686 16.1642 17.7313C16.293 17.7313 16.3232 17.8146 16.3535 17.913C16.3868 18.0298 16.4524 18.1348 16.5428 18.2158C16.6185 18.2764 16.6034 18.3294 16.5428 18.4127C16.51 18.4561 16.4939 18.5098 16.4974 18.5641C16.4912 18.6498 16.4912 18.7358 16.4974 18.8215C16.6034 18.776 16.7018 18.6928 16.8002 18.8215C16.7693 18.8655 16.7337 18.9061 16.6942 18.9426C16.6705 18.9557 16.6508 18.975 16.6371 18.9983C16.6233 19.0216 16.6161 19.0481 16.6161 19.0752C16.6161 19.1022 16.6233 19.1287 16.6371 19.152C16.6508 19.1753 16.6705 19.1945 16.6942 19.2076C16.8153 19.2833 16.8077 19.2833 16.6942 19.3817C16.6832 19.4162 16.6832 19.4532 16.6942 19.4877C16.6942 19.6013 16.6942 19.7149 16.7321 19.8285C16.7699 19.942 16.7321 19.9874 16.9062 19.9874C16.7851 20.0707 16.7699 20.1464 16.7926 20.2372C16.8153 20.3281 16.8456 20.3584 16.9289 20.3508C17.0122 20.3432 17.0727 20.4114 17.0955 20.5023C17.1015 20.5308 17.114 20.5576 17.1322 20.5805C17.1503 20.6034 17.1734 20.6217 17.1998 20.6342C17.2262 20.6466 17.2551 20.6528 17.2843 20.6523C17.3135 20.6517 17.3421 20.6444 17.368 20.6309C17.4513 20.5855 17.4362 20.5098 17.421 20.4341C17.4005 20.3114 17.3727 20.1901 17.3377 20.0707C17.316 20.0256 17.3108 19.9743 17.3233 19.9258C17.3358 19.8773 17.365 19.8347 17.4059 19.8057C17.4059 19.73 17.2696 19.7376 17.2847 19.6392C17.2999 19.5408 17.2848 19.5407 17.4437 19.4044L17.633 19.6468C17.635 19.6644 17.635 19.6821 17.633 19.6997C17.5195 19.8587 17.527 19.8815 17.7239 19.9193C17.7411 19.9218 17.7574 19.9286 17.7714 19.9389C17.7854 19.9492 17.7966 19.9628 17.8041 19.9785C17.8116 19.9943 17.8151 20.0116 17.8143 20.029C17.8135 20.0464 17.8084 20.0633 17.7996 20.0783L17.7239 20.2297H17.9056C17.8883 20.274 17.8681 20.3169 17.845 20.3584C17.792 20.472 17.845 20.5098 17.9283 20.5704H17.9964L17.9056 20.7066C18.004 20.7672 18.1024 20.8429 18.2084 20.8959C18.3144 20.9489 18.3447 20.9489 18.375 21.0398C18.4052 21.1306 18.4582 21.1079 18.5112 21.0398L18.5794 20.9565C18.6144 20.9254 18.6557 20.9021 18.7005 20.8884C18.8368 20.8884 18.9731 20.8278 19.1018 20.9641C19.1697 20.8759 19.2256 20.7792 19.2683 20.6764C19.2888 20.5793 19.3274 20.4868 19.3819 20.4039C19.4576 20.4039 19.5182 20.4947 19.5712 20.4039C19.6242 20.313 19.5712 20.2903 19.5712 20.2297C19.5597 20.1608 19.5445 20.0926 19.5258 20.0253C19.4909 19.9085 19.463 19.7896 19.4424 19.6694C19.4407 19.576 19.4146 19.4847 19.3668 19.4044C19.3247 19.3607 19.3011 19.3024 19.3011 19.2417C19.3011 19.181 19.3247 19.1227 19.3668 19.0789C19.3668 18.9124 19.3668 18.8443 19.5182 18.8064C19.4728 18.6928 19.5182 18.6096 19.6015 18.5263C19.6328 18.4757 19.6747 18.4325 19.7244 18.3998C19.7741 18.3672 19.8303 18.3457 19.8892 18.337L19.9573 18.4732C19.9614 18.4849 19.9679 18.4956 19.9764 18.5046C19.9848 18.5137 19.9951 18.5209 20.0064 18.5259C20.0178 18.5309 20.03 18.5334 20.0424 18.5335C20.0548 18.5335 20.067 18.5311 20.0784 18.5263C20.1314 18.5263 20.1314 18.4657 20.1239 18.4127C20.1209 18.3724 20.1209 18.3319 20.1239 18.2915C20.1271 18.2613 20.1271 18.2309 20.1239 18.2007C20.1152 18.1596 20.121 18.1168 20.1403 18.0795C20.1597 18.0423 20.1913 18.0128 20.2299 17.9962C20.3131 17.9508 20.3358 17.8978 20.2753 17.8146C20.2603 17.7921 20.2523 17.7658 20.2523 17.7389C20.2523 17.7119 20.2603 17.6856 20.2753 17.6632C20.3737 17.5042 20.3813 17.5041 20.2223 17.4057L20.2904 17.3148C20.0708 17.1861 20.1238 16.9818 20.1087 16.7925C20.298 16.7925 20.3737 16.8757 20.3434 17.0423C20.3131 17.2089 20.3434 17.2089 20.4646 17.2316C20.522 17.243 20.5812 17.243 20.6387 17.2316C20.6841 17.2316 20.7068 17.1483 20.7371 17.1104C20.7674 17.0726 20.9491 16.8303 21.0702 16.6941C21.1914 16.5578 21.2822 16.6259 21.3352 16.7622C21.3788 16.8097 21.403 16.8718 21.403 16.9363C21.403 17.0008 21.3788 17.0629 21.3352 17.1104C21.4715 17.1104 21.6078 17.0196 21.6911 16.8152C21.7516 16.8152 21.7895 16.8152 21.7819 16.8909C21.7743 16.9666 21.7819 17.0878 21.7819 17.1862C21.7634 17.2615 21.7381 17.335 21.7062 17.4057L21.8727 17.5193L21.8273 17.6404L21.7743 17.7994H21.8727C21.9409 17.7994 21.9712 17.7994 21.9788 17.8751C21.9863 17.9508 22.0545 18.1855 22.0772 18.3445C22.0792 18.3922 22.0909 18.439 22.1117 18.482C22.1326 18.525 22.162 18.5633 22.1983 18.5944C22.2286 18.6218 22.252 18.6559 22.2665 18.6941C22.2809 18.7323 22.2861 18.7733 22.2816 18.8139C22.2748 18.8793 22.2748 18.9453 22.2816 19.0107C22.2816 19.1546 22.2816 19.2 22.1302 19.2379C22.1302 19.2379 22.062 19.2379 22.0544 19.2909C22.0091 19.3705 21.9711 19.4542 21.9409 19.5408C21.9409 19.6468 21.9409 19.7149 22.062 19.7452H22.1529L22.0923 19.9269C22.0544 20.048 22.0923 20.0631 22.1604 20.1464C22.2008 20.1732 22.2303 20.2134 22.2437 20.26C22.2437 20.472 22.2437 20.6764 22.2816 20.8884C22.2933 20.9176 22.2933 20.9501 22.2816 20.9793C22.1604 21.0777 22.2286 21.1912 22.2816 21.2972C22.29 21.3151 22.3027 21.3307 22.3185 21.3426C22.3344 21.3544 22.3529 21.3623 22.3724 21.3654C22.5163 21.3654 22.5769 21.5168 22.698 21.5547C22.8191 21.5925 22.698 21.6455 22.698 21.6909C22.698 21.7363 22.5996 21.8347 22.698 21.971C22.7798 22.0431 22.8467 22.1305 22.8948 22.2284C22.8948 22.2284 22.9932 22.289 23.0462 22.3192C23.0992 22.3495 23.0841 22.607 23.0992 22.7584C23.1144 22.9098 23.0992 23.0688 23.0992 23.2202C23.1062 23.2527 23.1062 23.2862 23.0992 23.3187C23.016 23.4777 23.0311 23.5609 23.1749 23.6593C23.2144 23.6964 23.2404 23.7456 23.2486 23.7992C23.2568 23.8527 23.2469 23.9074 23.2204 23.9546C23.1938 23.9814 23.174 24.0142 23.1628 24.0503C23.1515 24.0863 23.1492 24.1245 23.1558 24.1616C23.1625 24.1988 23.1781 24.2338 23.2012 24.2637C23.2243 24.2935 23.2542 24.3173 23.2885 24.3332C23.2885 24.3786 23.2885 24.4392 23.2885 24.4543C23.4248 24.5755 23.3869 24.742 23.4248 24.8858C23.4626 25.0297 23.4248 24.9615 23.3718 24.9994C23.3188 25.0373 23.3036 25.1736 23.3718 25.2417C23.4399 25.3099 23.4929 25.4082 23.3718 25.4764C23.3265 25.5085 23.2784 25.5364 23.2279 25.5596C23.2047 25.5678 23.1848 25.5833 23.1711 25.6038C23.1575 25.6243 23.1509 25.6487 23.1522 25.6732C23.1492 25.701 23.1557 25.729 23.1709 25.7524C23.1861 25.7759 23.2089 25.7934 23.2355 25.802L23.3794 25.8777C23.322 25.9163 23.281 25.9748 23.2643 26.0419C23.2475 26.109 23.2561 26.1799 23.2885 26.2411C23.3031 26.2931 23.3352 26.3386 23.3794 26.3698C23.4074 26.3813 23.4318 26.4 23.4504 26.4239C23.469 26.4478 23.4811 26.4761 23.4854 26.506C23.4854 26.5666 23.4854 26.6271 23.5232 26.6877C23.5344 26.7247 23.5344 26.7643 23.5232 26.8013C23.4737 26.8822 23.4475 26.9752 23.4475 27.0701C23.4475 27.1649 23.4737 27.2579 23.5232 27.3388C23.5464 27.3976 23.5641 27.4584 23.5762 27.5205H23.4929L23.3945 27.5736L23.4626 27.672C23.4626 27.672 23.5232 27.7401 23.5232 27.778C23.5232 27.99 23.5232 28.2095 23.5232 28.4215C23.5308 28.4563 23.5284 28.4925 23.5164 28.5259C23.5043 28.5594 23.4831 28.5888 23.4551 28.6108C23.4395 28.6211 23.4267 28.6352 23.4178 28.6517C23.4089 28.6682 23.4043 28.6867 23.4043 28.7054C23.4043 28.7242 23.4089 28.7426 23.4178 28.7591C23.4267 28.7756 23.4395 28.7897 23.4551 28.8C23.49 28.821 23.5183 28.8511 23.537 28.8872C23.5557 28.9233 23.5641 28.9639 23.5611 29.0045C23.5611 29.1029 23.5081 29.1484 23.4475 29.2165C23.6595 29.3452 23.6216 29.5723 23.7049 29.754C23.7102 29.7646 23.713 29.7763 23.713 29.7881C23.713 29.7999 23.7102 29.8115 23.7049 29.8221C23.6216 29.913 23.7049 29.9811 23.7579 30.0417C23.8109 30.1023 23.8715 30.1553 23.8261 30.231C23.7712 30.305 23.7016 30.3669 23.6216 30.4127C23.5762 30.4127 23.5308 30.4127 23.5232 30.337C23.5162 30.3097 23.5162 30.281 23.5232 30.2537C23.6671 29.9433 23.3566 29.7388 23.0841 29.7918C22.9602 29.826 22.8294 29.826 22.7055 29.7918C22.5617 29.7464 22.5314 29.6707 22.5844 29.5268C22.591 29.5144 22.595 29.5009 22.5963 29.4869C22.5975 29.4729 22.596 29.4588 22.5918 29.4454C22.5875 29.432 22.5807 29.4196 22.5716 29.4089C22.5626 29.3982 22.5515 29.3894 22.539 29.383L22.274 29.2543C22.274 29.2543 22.2134 29.2543 22.1831 29.2543C22.1861 29.2114 22.1861 29.1685 22.1831 29.1256C22.1611 29.1175 22.137 29.1175 22.115 29.1256C22.0941 29.1364 22.0759 29.152 22.062 29.171C22.0552 29.1811 22.0515 29.193 22.0515 29.2051C22.0515 29.2173 22.0552 29.2291 22.062 29.2391C22.1 29.2601 22.1408 29.2754 22.1831 29.2846L22.3573 29.383ZM19.7453 19.4651C19.6166 19.5711 19.6166 19.5862 19.7453 19.6619V19.4651ZM14.4078 21.4032C14.3472 21.4032 14.3245 21.4562 14.3548 21.5092C14.3851 21.5622 14.4002 21.5092 14.4154 21.5092C14.4305 21.5092 14.4532 21.4335 14.4154 21.3956L14.4078 21.4032Z" fill="#1F5DA0"/>
<path id="Vector_3" fill-rule="evenodd" clip-rule="evenodd" d="M9.59246 22.1527C9.47132 22.236 9.46374 22.2587 9.53945 22.3572C9.61516 22.4556 9.63784 22.5086 9.78926 22.4859C9.69084 22.5843 9.69084 22.6524 9.78926 22.7433C9.84234 22.8502 9.90574 22.9516 9.97854 23.0461C10.0467 23.1067 10.024 23.1597 9.97854 23.2127C9.93311 23.2657 9.85741 23.296 9.94069 23.4095C9.99045 23.4747 10.036 23.543 10.077 23.614C10.0406 23.7889 9.96274 23.9525 9.84984 24.0909L9.759 23.9925C9.7433 23.9659 9.71899 23.9454 9.6901 23.9344C9.66121 23.9234 9.62943 23.9225 9.59999 23.9319C9.56773 23.9384 9.53848 23.9552 9.51663 23.9798C9.49477 24.0044 9.48152 24.0354 9.47887 24.0682C9.47887 24.1439 9.47886 24.1742 9.56214 24.212C9.64542 24.2499 9.69085 24.3711 9.56214 24.4695C9.56633 24.5174 9.56633 24.5654 9.56214 24.6133H9.38045C9.32745 24.689 9.38045 24.742 9.38045 24.8026C9.38045 24.8631 9.49399 25.0752 9.54699 25.2114C9.56426 25.2358 9.57356 25.2649 9.57356 25.2947C9.57356 25.3245 9.56426 25.3536 9.54699 25.378C9.46371 25.4688 9.46371 25.4688 9.54699 25.5521C9.63027 25.6354 9.50917 25.6808 9.49403 25.7414C9.47889 25.8019 9.494 25.8626 9.41829 25.8853C9.39007 25.8986 9.35781 25.9006 9.32818 25.8907C9.29856 25.8808 9.27389 25.8598 9.25933 25.8322C9.25933 25.8322 9.19116 25.7868 9.17602 25.8322C9.16148 25.8412 9.1492 25.8534 9.14002 25.8678C9.13084 25.8822 9.12501 25.8985 9.12301 25.9155C9.12301 25.9155 9.16844 25.9155 9.16844 25.961C9.20869 26.1221 9.2752 26.2756 9.36529 26.4152C9.36529 26.4152 9.3653 26.4985 9.41829 26.5288C9.47129 26.5591 9.51672 26.6272 9.41829 26.7862L9.5773 26.877C9.60809 26.8987 9.62969 26.9311 9.63788 26.9679C9.63788 26.9679 9.63787 26.9679 9.5773 27.0285C9.49468 27.0804 9.41621 27.1386 9.3426 27.2026C9.2896 27.248 9.25173 27.2858 9.18359 27.2556C9.14516 27.235 9.10227 27.2243 9.05869 27.2243C9.01511 27.2243 8.97217 27.235 8.93374 27.2556C8.75204 27.3313 8.63849 27.2556 8.57035 27.089H8.66877C8.66877 26.9603 8.5628 26.8922 8.54766 26.7862C8.50089 26.8079 8.45904 26.8389 8.4247 26.8774C8.39035 26.9158 8.3642 26.9609 8.34789 27.0098C8.33159 27.0587 8.32547 27.1105 8.32987 27.1618C8.33427 27.2132 8.34911 27.2632 8.37349 27.3086L8.56277 27.5584C8.56277 27.5584 8.64608 27.6038 8.68393 27.6341C8.72179 27.6644 8.63092 27.7704 8.52492 27.7477C8.45441 27.7411 8.38347 27.7411 8.31296 27.7477C8.20697 27.7477 8.18421 27.7477 8.17664 27.8916C8.16907 28.0354 8.17664 27.9672 8.17664 28.0127C8.11135 27.9667 8.06041 27.9032 8.0296 27.8296C7.9988 27.7559 7.98939 27.6751 8.00252 27.5963L8.16153 27.0511C8.16908 27.0137 8.16908 26.9751 8.16153 26.9376V26.6726C8.14436 26.6153 8.14968 26.5537 8.17641 26.5002C8.20314 26.4468 8.24928 26.4055 8.30538 26.3849C8.30538 26.3849 8.25237 26.3319 8.2448 26.3016C8.23772 26.2848 8.23408 26.2669 8.23408 26.2487C8.23408 26.2305 8.23772 26.2124 8.2448 26.1956C8.30537 26.082 8.37352 25.9761 8.44165 25.8625L8.23722 25.325C8.23722 25.2115 8.23725 25.2114 8.40381 25.2114C8.57037 25.2114 8.54009 25.1508 8.50223 25.06C8.46438 24.9691 8.41893 24.9388 8.4265 24.8858C8.43407 24.8328 8.51735 24.8253 8.57035 24.7874C8.62334 24.7496 8.6612 24.4694 8.57035 24.4164C8.51657 24.3968 8.45758 24.3968 8.40381 24.4164C8.339 24.4308 8.27565 24.4512 8.21453 24.4771C8.24733 24.5306 8.26467 24.5922 8.26467 24.655C8.26467 24.7178 8.24733 24.7793 8.21453 24.8329C8.16911 24.8935 8.21453 24.9994 8.16153 25.0827C8.10853 25.166 8.05554 25.219 8.01768 25.2947C7.99677 25.3233 7.98547 25.3577 7.98547 25.3931C7.98547 25.4285 7.99677 25.463 8.01768 25.4916C8.0566 25.5279 8.08647 25.5728 8.10488 25.6228C8.12329 25.6728 8.12973 25.7264 8.12369 25.7793C8.1126 25.8148 8.08816 25.8446 8.05553 25.8625C8.05553 25.8625 7.99498 25.8625 7.97984 25.8246C7.8907 25.7166 7.84721 25.5781 7.85867 25.4385C7.87776 25.3247 7.85915 25.2077 7.80567 25.1054C7.76897 24.9954 7.7486 24.8807 7.74514 24.7648C7.74514 24.7648 7.74514 24.689 7.69971 24.6285C7.62158 24.7074 7.57566 24.8127 7.57097 24.9237C7.56791 24.9581 7.55754 24.9914 7.54057 25.0214C7.52359 25.0515 7.5004 25.0775 7.47255 25.0979C7.4491 25.1129 7.42985 25.1336 7.41649 25.1581C7.40314 25.1826 7.39612 25.2101 7.39612 25.238C7.39612 25.2658 7.40314 25.2932 7.41649 25.3177C7.42985 25.3422 7.4491 25.3629 7.47255 25.378C7.49446 25.3916 7.51255 25.4105 7.52509 25.4331C7.53763 25.4556 7.54422 25.4809 7.54422 25.5067C7.54422 25.5325 7.53763 25.5578 7.52509 25.5804C7.51255 25.6029 7.49446 25.6218 7.47255 25.6354C7.36655 25.6959 7.37414 25.7793 7.38928 25.8777H7.71482C7.72106 25.908 7.7179 25.9395 7.70572 25.9679C7.69354 25.9963 7.67294 26.0203 7.64671 26.0366C7.63126 26.0545 7.62273 26.0773 7.62273 26.101C7.62273 26.1246 7.63126 26.1475 7.64671 26.1654L7.76025 26.5288C7.76025 26.6121 7.76025 26.6121 7.76025 26.7105L7.81325 26.8241C7.82017 26.8512 7.81611 26.8799 7.80193 26.904C7.78775 26.9281 7.76461 26.9456 7.73756 26.9527C7.67751 26.9687 7.62526 27.0059 7.59047 27.0574C7.55569 27.1089 7.54071 27.1712 7.54828 27.2329C7.54828 27.3162 7.54826 27.3994 7.48012 27.46C7.41199 27.5206 7.48012 27.5206 7.48012 27.5508C7.47643 27.5886 7.47643 27.6267 7.48012 27.6644C7.48012 27.8158 7.48013 27.8915 7.24543 27.8082C7.24543 27.7174 7.24543 27.619 7.24543 27.5205C7.24543 27.4221 7.24543 27.4146 7.24543 27.3995C7.24543 27.3843 7.18486 27.2253 7.24543 27.1269C7.30599 27.0285 7.29087 26.93 7.40443 26.8997C7.518 26.8695 7.40443 26.8998 7.40443 26.8544H7.35901C7.22273 26.8544 7.16216 26.7937 7.11673 26.6802C7.10923 26.6489 7.09356 26.6201 7.07131 26.5969C7.07131 26.5969 7.01829 26.5969 7.00315 26.5969C6.93308 26.6469 6.8695 26.7053 6.81388 26.771C6.81388 26.771 6.81388 26.8695 6.81388 26.9149C6.81388 26.9603 6.87447 27.1269 6.74576 27.2178L6.61702 27.1269C6.61702 27.2178 6.61704 27.3085 6.48833 27.3388C6.35962 27.3691 6.48833 27.3389 6.48833 27.3843C6.46774 27.4664 6.46805 27.5524 6.48921 27.6344C6.51037 27.7164 6.55172 27.7918 6.60949 27.8537C6.35208 27.9143 6.32177 27.8991 6.25363 27.6341C6.25363 27.5735 6.25362 27.513 6.19305 27.4373L6.00378 27.5205C5.91292 27.4675 5.76911 27.4676 5.75397 27.3086C5.73882 27.1496 5.62526 27.0814 5.75397 26.9754C5.73133 26.9495 5.71105 26.9217 5.69339 26.8922C5.67996 26.8751 5.67057 26.8552 5.66594 26.8339C5.66131 26.8127 5.66158 26.7907 5.66668 26.7695C5.67178 26.7484 5.68157 26.7287 5.69537 26.712C5.70918 26.6952 5.72664 26.6817 5.74639 26.6726C5.88267 26.5742 5.88267 26.5136 5.74639 26.4228C5.61011 26.3319 5.6404 26.2865 5.65554 26.1351C5.46627 26.0215 5.54953 25.8398 5.59496 25.7036C5.64038 25.5673 5.59496 25.4386 5.64038 25.3099C5.64459 25.295 5.64459 25.2792 5.64038 25.2644C5.53439 25.1811 5.54952 25.0752 5.5798 24.9465H5.44353C5.36782 24.9465 5.31485 24.9465 5.32999 24.848C5.34514 24.7496 5.36781 24.7042 5.38295 24.6285L5.24668 24.5528C5.2921 24.4695 5.3981 24.4316 5.3451 24.3408L5.21641 24.1591L5.31484 24.0379C5.20884 23.9319 5.23913 23.826 5.31484 23.72H5.26183C5.12556 23.72 5.08012 23.6367 5.11041 23.508C5.12432 23.4824 5.13162 23.4538 5.13162 23.4247C5.13162 23.3956 5.12432 23.367 5.11041 23.3414C5.07039 23.2836 5.04927 23.2149 5.04987 23.1446C5.04987 23.0916 5.10286 23.031 5.14072 22.9553L5.01198 22.872L5.07256 22.7509H4.92871C4.93792 22.6926 4.9353 22.6331 4.92099 22.5758C4.90668 22.5186 4.88099 22.4648 4.84544 22.4177C4.84544 22.3571 4.84544 22.3117 4.84544 22.2663C4.86808 22.2404 4.88836 22.2126 4.90602 22.183C4.90602 22.0922 4.99687 22.0468 5.09529 22.077H5.17099C5.1758 22.0571 5.1758 22.0364 5.17099 22.0165C5.10615 21.9338 5.04551 21.8478 4.98929 21.759C4.94121 21.6943 4.88803 21.6336 4.83028 21.5773V21.4108H4.74701C4.72412 21.4088 4.70211 21.4011 4.68301 21.3883C4.66391 21.3756 4.64835 21.3582 4.63777 21.3378C4.6272 21.3174 4.62196 21.2946 4.62252 21.2716C4.62309 21.2486 4.62944 21.2262 4.64101 21.2064C4.66882 21.1544 4.678 21.0945 4.66698 21.0367C4.65596 20.9788 4.62539 20.9265 4.58043 20.8884C4.54797 20.8582 4.52447 20.8195 4.51245 20.7768C4.50044 20.7341 4.50039 20.6889 4.51231 20.6461C4.51231 20.4947 4.51232 20.3357 4.70917 20.2524L4.81513 20.3206C4.86448 20.3082 4.90774 20.2783 4.93693 20.2366C4.96613 20.1949 4.97932 20.1441 4.97413 20.0934C4.96966 20.0582 4.97275 20.0224 4.98319 19.9885C4.99363 19.9545 5.01121 19.9232 5.03471 19.8966C5.05745 19.865 5.07296 19.8288 5.08014 19.7906C5.08014 19.7376 5.08012 19.677 5.01198 19.677C4.8513 19.6575 4.70462 19.576 4.60316 19.4499L4.3382 19.5029C4.30548 19.4994 4.27248 19.4994 4.23977 19.5029C4.13378 19.5937 4.02022 19.5483 3.91422 19.5029C3.80823 19.4575 3.8612 19.4499 3.83849 19.4272L3.72495 19.2607C3.75969 19.2282 3.78607 19.1879 3.80189 19.1431C3.81771 19.0983 3.82249 19.0502 3.8158 19.0032C3.8158 18.9199 3.89149 18.8366 3.93691 18.7382H4.08834L4.0126 18.5263C4.08074 18.4657 4.19434 18.5263 4.23219 18.39C4.27005 18.2537 4.2322 18.2234 4.14134 18.1552C4.05049 18.0871 4.20189 18.0947 4.20946 18.0568C4.22449 18.0152 4.22449 17.9697 4.20946 17.9282C4.20946 17.8752 4.12619 17.9282 4.08076 17.9282L3.97476 18.0114C3.84605 18.1023 3.76277 18.0644 3.73248 17.913V17.8222C3.54321 17.8222 3.5432 17.8222 3.44478 17.6708L3.37667 17.5193H3.10412C3.09947 17.4411 3.09947 17.3628 3.10412 17.2846H2.98296C2.93754 17.1862 2.98299 17.1256 3.0587 17.0726C3.1116 17.0269 3.14983 16.9667 3.16868 16.8993C3.18753 16.832 3.18613 16.7606 3.16466 16.6941C3.15349 16.669 3.13502 16.6479 3.11166 16.6336C3.01323 16.5578 3.01323 16.4897 3.11166 16.4215C3.21008 16.3534 3.26312 16.3761 3.24797 16.3004C3.23283 16.2247 3.1874 16.1868 3.14955 16.1263C3.11169 16.0657 3.31608 16.1263 3.39936 16.0657C3.48264 16.0052 3.55835 16.1187 3.64163 16.1414C3.72491 16.1641 3.59623 15.937 3.70979 15.8537C3.77943 15.7876 3.87118 15.7498 3.96718 15.7477L3.92176 15.2328C3.92197 15.1715 3.90599 15.1113 3.87541 15.0581C3.84483 15.0049 3.80076 14.9608 3.74764 14.9301H3.70979C3.61137 14.8468 3.61894 14.8014 3.70979 14.7332C3.70979 14.6424 3.65677 14.5288 3.77791 14.4455C3.82333 14.5818 3.98993 14.5818 4.0505 14.7105C4.11106 14.8392 4.1489 14.7862 4.22461 14.7559C4.45549 14.6878 4.67492 14.5858 4.87571 14.4531C4.89453 14.4438 4.91527 14.4389 4.93629 14.4389C4.9573 14.4389 4.97804 14.4438 4.99687 14.4531C5.02643 14.4842 5.04505 14.524 5.04987 14.5666C5.05493 14.6169 5.05493 14.6677 5.04987 14.7181C5.20886 14.7635 5.26186 14.9452 5.42842 14.9755C5.42842 14.9755 5.49652 15.0285 5.5268 15.0663C5.55708 15.1042 5.59495 15.195 5.48895 15.2707C5.4914 15.2832 5.4914 15.2961 5.48895 15.3086C5.67823 15.3616 5.70851 15.5585 5.82208 15.6872C5.93564 15.8159 5.82208 15.7931 5.82208 15.8461C5.85118 15.8032 5.89408 15.7716 5.94366 15.7564C5.99324 15.7413 6.04651 15.7436 6.09462 15.7629C6.18258 15.7744 6.27168 15.7744 6.35964 15.7629H6.65491C6.74577 15.7629 6.84417 15.7629 6.87446 15.8765C6.90474 15.99 6.92744 15.8764 6.95773 15.9218C6.9939 15.9325 7.02481 15.9562 7.04441 15.9884C7.06402 16.0206 7.07091 16.0589 7.06373 16.0959C7.06373 16.2171 7.06374 16.3534 6.88203 16.4064C6.88203 16.4064 6.88203 16.4594 6.88203 16.4821C6.88203 16.6184 6.88205 16.6487 6.75334 16.7092C6.62463 16.7698 6.63977 16.7774 6.64734 16.8985C6.65491 17.0197 6.64732 17.0348 6.77603 17.0423C6.80845 17.0449 6.83978 17.0551 6.86743 17.0723C6.89508 17.0894 6.91828 17.1129 6.93504 17.1407C6.96504 17.1912 7.01183 17.2294 7.0672 17.2488C7.12257 17.2682 7.18296 17.2674 7.23785 17.2468C7.27054 17.2316 7.30759 17.2286 7.34228 17.2383C7.37697 17.2481 7.40704 17.2698 7.42712 17.2997C7.45487 17.328 7.47042 17.3661 7.47042 17.4057C7.47042 17.4453 7.45487 17.4834 7.42712 17.5117C7.40107 17.5516 7.38072 17.595 7.36659 17.6405H7.53313C7.53313 17.6405 7.53313 17.7086 7.53313 17.7389C7.53712 17.7664 7.5494 17.792 7.56834 17.8123C7.58728 17.8326 7.612 17.8466 7.63913 17.8525C7.79055 17.9055 7.79813 17.9206 7.74514 18.0795C7.72455 18.1179 7.71782 18.1622 7.7261 18.205C7.73437 18.2477 7.75715 18.2864 7.79056 18.3143L7.91925 18.2537C8.02525 18.2537 8.08583 18.2537 8.12369 18.3445C8.13136 18.3703 8.14489 18.3941 8.16329 18.4138C8.18168 18.4335 8.20439 18.4487 8.22964 18.4581C8.3205 18.5035 8.38863 18.7156 8.32049 18.7913C8.25235 18.867 8.25236 19.0184 8.27507 19.1471C8.31989 19.2842 8.3454 19.4268 8.35081 19.571C8.35081 19.624 8.41138 19.6771 8.45681 19.7301C8.48174 19.7356 8.50757 19.7356 8.5325 19.7301C8.69906 19.7906 8.72179 19.8209 8.64608 19.9799C8.57037 20.1389 8.64608 20.101 8.64608 20.1388L8.88832 20.0934C8.88832 20.1616 8.88832 20.207 8.85047 20.2524L8.69904 20.207C8.68944 20.2334 8.68519 20.2613 8.68647 20.2893C8.68775 20.3173 8.69456 20.3448 8.70653 20.3702C8.7185 20.3955 8.73539 20.4182 8.7562 20.437C8.77701 20.4558 8.80134 20.4703 8.82778 20.4796C8.87256 20.492 8.9112 20.5205 8.93633 20.5596C8.96146 20.5987 8.97133 20.6457 8.96405 20.6916C8.95626 20.7848 8.95626 20.8785 8.96405 20.9717C9.0048 20.9478 9.05303 20.9399 9.09926 20.9497C9.1455 20.9595 9.1864 20.9862 9.21391 21.0247C9.25933 21.0928 9.3653 21.1307 9.32745 21.2443C9.28959 21.3578 9.32745 21.2972 9.32745 21.3124L9.63788 21.5849C9.71359 21.6455 9.81199 21.6758 9.84984 21.7893C9.8877 21.9029 9.91041 21.7893 9.94069 21.8499C9.97728 21.8671 10.0067 21.8966 10.024 21.9332C9.96615 21.9259 9.90765 21.9259 9.84984 21.9332C9.76656 21.9332 9.72871 21.9786 9.759 22.0467C9.78014 22.0862 9.78717 22.1318 9.77891 22.1758C9.77065 22.2199 9.74759 22.2599 9.71357 22.289C9.68837 22.3229 9.67033 22.3616 9.66057 22.4026L9.59246 22.1527Z" fill="#1F5DA0"/>
<path id="Vector_4" fill-rule="evenodd" clip-rule="evenodd" d="M5.34505 14.5515C5.34505 14.5515 5.38291 14.4682 5.39805 14.4227C5.24663 14.4227 5.23908 14.4228 5.13309 14.3319L4.97408 14.1426C4.9247 14.0891 4.86563 14.0454 4.79996 14.0139C4.75453 14.0139 4.66366 14.0139 4.63337 14.0139C4.60309 14.0139 4.3684 14.1275 4.2624 14.2183C4.25177 14.2298 4.23889 14.239 4.22456 14.2452C4.21023 14.2515 4.19477 14.2546 4.17913 14.2546C4.1635 14.2546 4.14804 14.2515 4.13371 14.2452C4.11938 14.239 4.1065 14.2298 4.09587 14.2183C4.03691 14.1618 3.96357 14.1225 3.88386 14.1047C3.81122 14.0641 3.7449 14.0131 3.687 13.9534C3.75173 13.8057 3.76765 13.6413 3.73243 13.484C3.73243 13.484 3.80057 13.3704 3.73243 13.3174C3.66429 13.2644 3.62647 13.2644 3.58104 13.2266C3.52916 13.1855 3.48102 13.1398 3.43719 13.0902C3.4034 13.0798 3.36785 13.0763 3.33267 13.0798C3.29748 13.0833 3.26335 13.0939 3.2323 13.1109C3.20126 13.1278 3.17392 13.1508 3.1519 13.1784C3.12987 13.2061 3.11362 13.2379 3.10407 13.2719C3.10407 13.3325 3.02079 13.34 2.96022 13.3249C2.89965 13.3098 2.77095 13.2719 2.6801 13.2341C2.64333 13.2135 2.6141 13.1816 2.59678 13.1432C2.58511 13.1059 2.56432 13.072 2.53625 13.0448V13.2038C2.3394 13.272 2.24098 13.2038 2.20312 13.0146C2.13498 13.0146 2.04413 13.0146 2.01385 12.9237C1.98356 12.8329 2.01383 12.9237 1.94569 12.8782C1.87755 12.8328 1.70343 12.7874 1.58229 12.7269C1.46116 12.6663 1.27943 12.5754 1.12801 12.4921C0.976589 12.4088 1.03719 12.4467 1.02205 12.4164C1.0032 12.3728 0.971115 12.3362 0.93037 12.3117C0.889625 12.2873 0.84224 12.2763 0.794884 12.2802C0.687798 12.2712 0.587912 12.2226 0.514761 12.1439C0.5829 11.9697 0.514783 11.8789 0.348222 11.8183C0.33245 11.812 0.318587 11.8017 0.307973 11.7884C0.297359 11.7752 0.290343 11.7594 0.287641 11.7426C0.287641 11.5836 0.166498 11.4928 0.0907882 11.3716L0.0150969 11.2656C-0.030329 11.1521 0.015108 11.1142 0.121102 11.1218H0.189215C0.189215 11.0082 0.264958 10.8871 0.12868 10.8038C0.211961 10.7054 0.295201 10.6145 0.370911 10.5161L0.605609 10.236C0.581998 10.1766 0.561809 10.1159 0.545075 10.0543C0.545075 9.918 0.545084 9.85741 0.696503 9.84227H0.794884C0.916019 9.84227 0.96146 9.8423 0.999315 9.97101C1.03717 10.0997 0.99932 10.0618 1.05232 10.1148C1.10531 10.1678 1.24916 10.1148 1.28702 10.2132C1.30338 10.2308 1.32335 10.2448 1.34556 10.2539C1.36778 10.2631 1.3917 10.2673 1.41571 10.2663C1.41571 10.2663 1.46874 10.2133 1.49903 10.183C1.52931 10.1527 1.49903 10.183 1.49903 10.1375C1.57474 9.90285 1.58984 9.88774 1.83968 9.88774C1.83968 9.88774 1.83968 9.81202 1.83968 9.78174C1.81715 9.73985 1.80539 9.69298 1.80539 9.64542C1.80539 9.59785 1.81715 9.55108 1.83968 9.50919C1.90025 9.38048 1.97596 9.25176 2.02896 9.11549C2.03828 9.0502 2.03828 8.98392 2.02896 8.91863H2.08196C2.17281 8.85806 2.19552 8.77476 2.08196 8.70662C1.96839 8.63848 2.08199 8.47953 2.02142 8.36597C2.02142 8.36597 2.10468 8.30535 2.13496 8.31292C2.25452 8.33565 2.37129 8.3712 2.48324 8.41892C2.50957 8.43017 2.53789 8.43602 2.56651 8.43602C2.59514 8.43602 2.62346 8.43017 2.64978 8.41892C2.72785 8.41182 2.80641 8.41182 2.88448 8.41892V8.2448L2.99806 8.34323C3.15705 8.26752 3.30092 8.26751 3.43719 8.52493C3.46781 8.47948 3.5129 8.44577 3.56515 8.42927C3.6174 8.41277 3.67373 8.41446 3.72489 8.43408C3.75885 8.44018 3.79386 8.43452 3.82415 8.418C3.85444 8.40148 3.87818 8.37509 3.89143 8.34323C3.90503 8.31792 3.92523 8.2968 3.94989 8.28205C3.97455 8.2673 4.00276 8.2595 4.0315 8.2595C4.06023 8.2595 4.08844 8.2673 4.1131 8.28205C4.13776 8.2968 4.15796 8.31792 4.17156 8.34323C4.17156 8.4038 4.17157 8.47198 4.27756 8.47955H4.61826C4.61826 8.47955 4.67127 8.41899 4.67127 8.3887C4.66089 8.30404 4.64315 8.22038 4.61826 8.1388C4.6051 8.10973 4.59843 8.0782 4.59872 8.04629C4.59901 8.01437 4.60623 7.98288 4.61993 7.95405C4.63362 7.92523 4.65341 7.89968 4.67797 7.87929C4.70252 7.8589 4.73126 7.8441 4.76212 7.83594C4.83243 7.826 4.90377 7.826 4.97408 7.83594C4.97408 7.74509 4.97409 7.66941 4.93623 7.58613C5.10279 7.52557 5.11038 7.52555 5.23151 7.66182C5.35697 7.60744 5.49222 7.57939 5.62896 7.57939C5.7657 7.57939 5.901 7.60744 6.02645 7.66182C6.00936 7.68732 5.99658 7.71545 5.98861 7.74509C5.97384 7.81243 5.97384 7.88219 5.98861 7.94953C5.98861 7.99495 6.087 8.01768 6.13999 8.06311C6.19932 8.11739 6.25499 8.17555 6.30658 8.23723C6.32804 8.2677 6.36 8.28919 6.39632 8.29758C6.43264 8.30596 6.47078 8.30068 6.50343 8.2827C6.57914 8.23727 6.69272 8.28266 6.75329 8.14638C6.81385 8.0101 6.85927 8.14642 6.88956 8.19185C6.91984 8.23727 6.98039 8.35085 7.10152 8.29785C7.14132 8.28822 7.18288 8.28822 7.22268 8.29785C7.29839 8.33571 7.36652 8.38865 7.4498 8.4265C7.48913 8.45305 7.53726 8.46318 7.58395 8.45469C7.63064 8.4462 7.67219 8.41982 7.69966 8.38112C7.72648 8.35543 7.76108 8.3394 7.79804 8.33565C7.92663 8.32808 8.05557 8.32808 8.18417 8.33565C8.25601 8.35328 8.32489 8.38132 8.3886 8.41892C8.3886 8.49463 8.3886 8.54763 8.3886 8.6082L8.26748 8.68398C8.26748 8.68398 8.26748 8.73694 8.26748 8.74451C8.29875 8.77068 8.3218 8.80529 8.33388 8.84424C8.34597 8.88318 8.34655 8.92483 8.33559 8.9641C8.33559 9.14581 8.33559 9.32749 8.33559 9.50919C8.34093 9.53566 8.34029 9.56294 8.33375 9.58913C8.3272 9.61533 8.31491 9.63973 8.29775 9.66057C8.2768 9.68596 8.26162 9.71562 8.25325 9.74745C8.24488 9.77928 8.24351 9.81255 8.24927 9.84495C8.25504 9.87735 8.26779 9.90806 8.28661 9.93506C8.30544 9.96205 8.32991 9.98472 8.35833 10.0013C8.39052 10.0158 8.41902 10.0372 8.44174 10.0643C8.46445 10.0913 8.48079 10.1231 8.48952 10.1573C8.49825 10.1915 8.49914 10.2273 8.49215 10.2619C8.48517 10.2964 8.47049 10.329 8.44918 10.3571C8.44918 10.4026 8.38861 10.4555 8.44918 10.5085C8.47 10.5271 8.49693 10.5374 8.52487 10.5374C8.5528 10.5374 8.57974 10.5271 8.60056 10.5085H8.6763H8.75199C9.07754 10.6902 9.1381 10.8265 9.03211 11.1748C9.01311 11.2442 9.01311 11.3174 9.03211 11.3868C9.03211 11.5079 9.03214 11.5533 8.91857 11.5761C8.80501 11.5988 8.78983 11.5761 8.78983 11.6972C8.78983 11.8184 8.78988 11.8789 8.88073 11.9167H8.92615C8.92615 11.9167 8.88069 12 8.88826 12.0303C8.89583 12.0606 8.84286 12.2044 8.72172 12.2423C8.74349 12.2824 8.76881 12.3204 8.79741 12.3559C8.85243 12.4112 8.88332 12.4861 8.88332 12.5641C8.88332 12.6421 8.85243 12.7169 8.79741 12.7722C8.69142 12.8479 8.66871 13.113 8.79741 13.1735C8.92612 13.2341 8.91854 13.3401 8.88826 13.4536V13.4991H8.97158C9.02143 13.5155 9.06633 13.5442 9.10207 13.5826C9.13782 13.621 9.16322 13.6677 9.17596 13.7186C9.18909 13.7779 9.20682 13.8361 9.22896 13.8927C9.2971 14.0214 9.30468 14.135 9.14569 14.2183C9.16549 14.2346 9.18107 14.2553 9.19112 14.2789C9.26683 14.3773 9.2441 14.4682 9.13054 14.506C9.06734 14.5254 9.00968 14.5595 8.96229 14.6056C8.91489 14.6516 8.87913 14.7084 8.85799 14.771C8.85799 14.8543 8.7747 14.8846 8.70656 14.9149C8.63843 14.9452 8.53243 15.0057 8.56271 15.1495C8.56813 15.2491 8.54728 15.3483 8.50218 15.4372C8.50218 15.5129 8.46432 15.5508 8.50218 15.6038C8.52928 15.6298 8.55456 15.6577 8.57787 15.6871C8.53852 15.7174 8.49326 15.7391 8.44502 15.7508C8.39677 15.7625 8.34661 15.7641 8.29775 15.7552C8.20461 15.7504 8.11293 15.78 8.04031 15.8385C7.99489 15.8915 7.89648 15.8991 7.81319 15.9142C7.72991 15.9294 7.66937 15.8158 7.69208 15.7325L7.74508 15.6038H7.60876C7.46491 15.6492 7.41949 15.6038 7.37406 15.4903C7.32864 15.3767 7.3741 15.3994 7.31353 15.3464C7.28053 15.3553 7.24965 15.3708 7.22268 15.3919C7.06369 15.5054 7.00309 15.4902 6.90467 15.3388C6.87877 15.3021 6.85098 15.2667 6.8214 15.2328C6.79899 15.2178 6.77266 15.2099 6.74571 15.2099C6.71875 15.2099 6.69238 15.2178 6.66997 15.2328C6.60849 15.2594 6.54105 15.2692 6.47455 15.2613C6.40804 15.2533 6.34486 15.2278 6.29142 15.1874C6.25272 15.1534 6.20292 15.1346 6.15136 15.1346C6.0998 15.1346 6.05 15.1534 6.0113 15.1874C5.85988 15.301 5.82205 15.2934 5.70849 15.1874C5.67782 15.156 5.63812 15.1347 5.5949 15.1268C5.54415 15.1159 5.49913 15.0868 5.46843 15.0449C5.43773 15.003 5.4235 14.9514 5.42836 14.8997C5.43621 14.8192 5.43621 14.738 5.42836 14.6574C5.43594 14.6574 5.3829 14.6121 5.34505 14.5515Z" fill="#1F5DA0"/>
<path id="Vector_5" fill-rule="evenodd" clip-rule="evenodd" d="M4.90624 2.34702C4.93082 2.29784 4.96719 2.25553 5.0121 2.22382C5.05702 2.19212 5.10906 2.17201 5.16362 2.16532C5.21662 2.16532 5.2772 2.11997 5.26963 2.05183C5.26206 1.98369 5.26961 1.9155 5.20147 1.90035C5.13333 1.88521 5.11064 1.79438 5.08035 1.72624H4.96677C4.96677 1.72624 4.96677 1.72628 4.96677 1.67328C4.96333 1.64309 4.96333 1.61262 4.96677 1.58243C4.96677 1.4613 4.96678 1.41581 4.8305 1.42338C4.77046 1.43466 4.70885 1.43466 4.6488 1.42338C4.5201 1.42338 4.49737 1.32495 4.5428 1.13568C4.61786 1.08806 4.7083 1.07101 4.79557 1.0879C4.88284 1.10479 4.96033 1.15434 5.0122 1.22653C5.05629 1.26457 5.10788 1.29293 5.16362 1.3098C5.23933 1.3098 5.25448 1.36283 5.21663 1.44611L5.16362 1.5597H5.36048C5.32853 1.6231 5.31186 1.69313 5.31186 1.76413C5.31186 1.83513 5.32853 1.90506 5.36048 1.96847C5.3999 2.03354 5.42073 2.10819 5.42073 2.18427C5.42073 2.26035 5.3999 2.335 5.36048 2.40006C5.40912 2.41932 5.45241 2.44999 5.48668 2.48953C5.52094 2.52906 5.54518 2.57634 5.55733 2.62723C5.55733 2.68023 5.63303 2.72559 5.68602 2.75588C5.73902 2.78616 5.898 2.86184 6.00399 2.91484C6.10999 2.96784 6.10999 2.98302 6.10242 3.05116C6.09485 3.1193 6.10244 3.18741 6.22358 3.21012C6.27849 3.22409 6.32981 3.24956 6.37418 3.28479C6.41854 3.32003 6.45492 3.36424 6.48097 3.41455C6.54859 3.51539 6.6395 3.59853 6.74598 3.65687C6.88126 3.6952 7.02201 3.71051 7.16237 3.70225C7.16237 3.70225 7.22293 3.70229 7.24564 3.64929C7.26487 3.61961 7.29123 3.59521 7.3223 3.57832C7.35338 3.56142 7.38818 3.55253 7.42355 3.55253C7.45892 3.55253 7.49377 3.56142 7.52484 3.57832C7.55592 3.59521 7.58227 3.61961 7.6015 3.64929V3.70225C7.75292 3.86881 7.76803 3.88395 7.94974 3.70225C7.95235 3.68215 7.95235 3.66182 7.94974 3.64172C7.88917 3.50544 7.88918 3.50539 8.01032 3.40697L8.08601 3.33128H8.27528C8.28488 3.24572 8.27254 3.15909 8.23943 3.07962C8.20631 3.00015 8.15352 2.93047 8.08601 2.87704C8.11561 2.83956 8.14103 2.79891 8.16175 2.75588L7.98758 2.65745C8.04058 2.5666 8.04061 2.56666 8.20717 2.5288C8.37373 2.49095 8.15417 2.33188 8.2526 2.25617C8.27995 2.24943 8.30851 2.24943 8.33587 2.25617C8.34022 2.29137 8.34022 2.32698 8.33587 2.36217C8.32676 2.392 8.3239 2.42342 8.32746 2.45441C8.33101 2.48539 8.34094 2.51531 8.35657 2.5423C8.37219 2.56929 8.3932 2.59273 8.4183 2.61124C8.4434 2.62976 8.47205 2.64292 8.50245 2.64987C8.62359 2.64987 8.6614 2.79374 8.74468 2.86188C8.78226 2.9131 8.81286 2.9691 8.83558 3.02842C8.79015 3.09656 8.72198 3.15714 8.71441 3.22528C8.70684 3.29341 8.82043 3.31616 8.881 3.35402L8.93396 3.39939L9.13839 3.68709C9.09296 3.77795 9.01724 3.68715 8.94153 3.74014V3.92184C9.03239 3.92184 9.13837 3.92178 9.16865 4.05049C9.19894 4.17919 9.16869 4.24738 9.01727 4.29281C9.01727 4.42909 9.01727 4.55781 9.01727 4.68651C9.01061 4.72859 8.99224 4.76796 8.96427 4.8001C8.9037 4.88338 8.89613 4.91363 8.96427 4.95906C9.00517 4.98068 9.03901 5.01354 9.06182 5.05379C9.08463 5.09404 9.09543 5.13994 9.09296 5.18613C9.08481 5.2066 9.07183 5.22483 9.05512 5.23918C8.98698 5.3376 8.99454 5.37547 9.09296 5.44361H9.16112C9.18323 5.46135 9.20103 5.48377 9.21329 5.50932C9.22555 5.53487 9.23192 5.56286 9.23192 5.59121C9.23192 5.61955 9.22555 5.64754 9.21329 5.67309C9.20103 5.69864 9.18323 5.72116 9.16112 5.73889C9.11688 5.77569 9.0816 5.82209 9.05798 5.87456C9.03437 5.92704 9.02305 5.98414 9.02485 6.04166C9.03266 6.18035 9.03266 6.31941 9.02485 6.4581C9.02485 6.54895 9.02481 6.58679 9.12323 6.63222C9.12658 6.69235 9.11357 6.75227 9.08557 6.80559C9.05757 6.85892 9.01567 6.90368 8.96427 6.93507C8.87212 7.02158 8.79306 7.12106 8.72957 7.23035C8.79771 7.35149 8.72954 7.42719 8.65383 7.5029C8.57812 7.57861 8.65383 7.50293 8.65383 7.54079C8.79768 7.63921 8.80525 7.71486 8.69926 7.85871L8.65383 7.90418C8.61798 7.92488 8.5872 7.95323 8.56363 7.98727C8.54007 8.0213 8.52432 8.06019 8.51756 8.10103C8.51756 8.2146 8.45701 8.22968 8.34344 8.22968H7.64693C7.61927 8.23309 7.59127 8.23309 7.56361 8.22968V8.08588C7.53324 8.05926 7.49425 8.04457 7.45386 8.04457C7.41347 8.04457 7.37444 8.05926 7.34407 8.08588C7.31819 8.10281 7.28794 8.11185 7.25701 8.11185C7.22608 8.11185 7.19583 8.10281 7.16995 8.08588L6.96552 8.02525C6.91211 7.99609 6.85225 7.98089 6.7914 7.98089C6.73055 7.98089 6.67065 7.99609 6.61724 8.02525C6.5491 8.07825 6.48853 8.02525 6.42796 8.02525C6.39501 7.98224 6.35385 7.94629 6.30685 7.91934C6.26087 7.9007 6.22361 7.86537 6.20255 7.82045C6.1815 7.77553 6.17818 7.72428 6.19327 7.67701C6.19327 7.61645 6.19327 7.55589 6.19327 7.49532C6.19327 7.43475 6.19327 7.41202 6.19327 7.38173C6.06824 7.44065 5.92949 7.46428 5.79203 7.44994H4.66396C4.5504 7.44994 4.45194 7.44989 4.44437 7.30604C4.4368 7.1622 4.23238 7.38179 4.15667 7.24551L4.23241 7.10919L3.98255 6.95023C3.98255 6.81395 4.08853 6.85932 4.15667 6.79875C4.16048 6.73572 4.16048 6.67251 4.15667 6.60948C4.15667 6.45049 4.15671 6.45055 4.00529 6.38998H3.95986C3.86901 6.26885 3.7403 6.27639 3.62674 6.26124C3.51318 6.2461 3.38444 6.41269 3.2633 6.47325C3.14217 6.53382 3.17248 6.47322 3.14976 6.43536C3.12391 6.40348 3.08959 6.37952 3.05078 6.36614C3.01197 6.35276 2.97019 6.3505 2.93018 6.35967C2.58948 6.30667 2.56676 6.41266 2.35478 6.06439C2.299 5.99579 2.22579 5.94352 2.14281 5.91301C2.09362 5.89445 2.05241 5.85941 2.02618 5.81384C1.99995 5.76828 1.99032 5.71497 1.99896 5.66311C1.99896 5.57983 1.99896 5.50417 1.99896 5.42846C2.01076 5.3883 2.00624 5.34507 1.98639 5.30822C1.96655 5.27137 1.93298 5.24386 1.89296 5.2316H1.77184H1.65826C1.46898 5.13318 1.45385 5.07261 1.56741 4.9439C1.56741 4.9439 1.56741 4.94393 1.56741 4.87579L1.46141 4.92875C1.44023 4.94019 1.41692 4.9471 1.39292 4.94908C1.36893 4.95105 1.3448 4.94803 1.32204 4.94021C1.29927 4.93238 1.27838 4.91992 1.26067 4.90361C1.24296 4.8873 1.22879 4.86752 1.21913 4.84548L1.05259 4.50482L0.939006 4.56535L0.84058 4.63347L0.666462 4.5502L0.409075 4.78494C0.348507 4.67895 0.287908 4.58808 0.234911 4.48966C0.234008 4.47375 0.237004 4.45787 0.243598 4.44336C0.250192 4.42885 0.260176 4.41617 0.272756 4.40639C0.303448 4.37522 0.339321 4.34962 0.378761 4.3307C0.181916 4.3307 0.181907 4.33067 0.227332 4.11111C0.254626 3.98778 0.290045 3.86639 0.333337 3.74772C0.366471 3.68028 0.407133 3.61678 0.454499 3.55845C0.454499 3.55845 0.492352 3.5584 0.499923 3.51298L0.719464 3.11927L0.643773 3.02842C0.552921 2.95271 0.54535 2.88464 0.643773 2.81651C0.792419 2.65706 0.980401 2.5395 1.18886 2.47576C1.34448 2.43244 1.49641 2.37676 1.64315 2.30922C1.64315 2.30922 1.64311 2.2259 1.60526 2.18048C1.57842 2.1552 1.55773 2.12413 1.54472 2.08963C1.5386 2.07362 1.53643 2.05637 1.53844 2.03935C1.54044 2.02234 1.54655 2.00608 1.55623 1.99194C1.5659 1.9778 1.57885 1.96624 1.59398 1.95821C1.60912 1.95017 1.62601 1.94592 1.64315 1.94582C1.68844 1.94094 1.73413 1.94094 1.77942 1.94582C1.78506 1.88371 1.80343 1.82336 1.83339 1.76866C1.86335 1.71395 1.90424 1.66602 1.95354 1.62781C1.97188 1.60859 1.99436 1.59384 2.01929 1.58465C2.04423 1.57546 2.07096 1.57213 2.09739 1.57485H2.26393C2.37749 1.57485 2.41538 1.57481 2.39267 1.43096C2.37105 1.23843 2.29778 1.05535 2.18066 0.901026C2.15598 0.878532 2.13797 0.849626 2.12863 0.817571C2.11928 0.785517 2.11894 0.751562 2.12766 0.71933C2.30179 0.71933 2.35479 0.878287 2.46836 0.969139L2.58194 0.916183C2.61207 0.906531 2.64477 0.908966 2.67307 0.923114C2.70136 0.937262 2.72297 0.961981 2.73332 0.991874C2.7557 1.06239 2.802 1.12287 2.86419 1.16294C2.92638 1.20302 3.00057 1.22012 3.07403 1.21137C3.10951 1.29585 3.15262 1.377 3.20277 1.45369C3.26259 1.52486 3.32841 1.59073 3.39957 1.65055L3.24061 1.82466L3.08161 1.76413C2.97561 1.87012 2.97561 1.87764 3.03618 1.9912C3.05584 2.02442 3.07111 2.06006 3.08161 2.09721C3.08161 2.16535 3.12702 2.21838 3.2103 2.22595C3.29358 2.23352 3.37689 2.22596 3.42989 2.14268L3.49042 2.04425C3.50772 2.01439 3.53256 1.98959 3.56246 1.97235C3.59236 1.95511 3.62629 1.94601 3.6608 1.94601C3.69531 1.94601 3.72919 1.95511 3.75908 1.97235C3.78898 1.98959 3.81383 2.01439 3.83113 2.04425C3.8497 2.08326 3.86489 2.12372 3.87655 2.16532C3.87655 2.20317 3.91443 2.25618 3.95229 2.26375C4.02324 2.29148 4.08961 2.32979 4.14914 2.37733C4.20971 2.4379 4.27784 2.37736 4.38384 2.30922C4.32327 2.11994 4.32327 2.11994 4.42926 2.02152L4.86081 2.43038L4.90624 2.34702ZM1.12075 2.7105C1.12075 2.61208 1.12074 2.61201 1.02232 2.6423L1.12075 2.7105Z" fill="#1F5DA0"/>
<path id="Vector_6" fill-rule="evenodd" clip-rule="evenodd" d="M21.5696 8.57805C21.6106 8.64903 21.6561 8.71723 21.7059 8.78239C21.736 8.81767 21.7753 8.84396 21.8194 8.85817C21.8569 8.86572 21.8955 8.86572 21.933 8.85817C22.0617 8.85817 22.092 8.85813 22.1299 9.00955C22.1473 9.05419 22.1624 9.09971 22.1753 9.14587C22.228 9.10176 22.2836 9.06126 22.3418 9.02471C22.5387 9.15342 22.5614 9.19882 22.5008 9.38052C22.6068 9.50923 22.6068 9.50923 22.7885 9.38052L23.0081 9.58495C23.0287 9.61204 23.0515 9.63734 23.0762 9.66065C23.2428 9.78935 23.2428 9.78942 23.1671 10.009C23.0791 9.98777 22.9871 9.98912 22.8997 10.0129C22.8124 10.0368 22.7325 10.0822 22.6674 10.1452C22.6361 10.1241 22.6081 10.0986 22.5841 10.0695C22.5544 10.0198 22.5137 9.97763 22.4652 9.94613C22.4166 9.91463 22.3615 9.89467 22.304 9.88781C22.2586 9.88781 22.2131 9.81965 22.1828 9.76665C22.1682 9.74152 22.1472 9.7207 22.1219 9.70621C22.0967 9.69172 22.0681 9.68403 22.039 9.68403C22.0099 9.68403 21.9813 9.69172 21.9561 9.70621C21.9308 9.7207 21.9098 9.74152 21.8952 9.76665L21.6756 10.0392C21.6756 10.0392 21.8573 10.1906 21.7437 10.3193C21.6302 10.448 21.7437 10.4178 21.7437 10.4556C21.7437 10.4935 21.7967 10.5086 21.827 10.5389C21.827 10.6903 21.7816 10.8418 21.5545 10.8493L21.6529 11.084L21.5393 11.137C21.4485 11.137 21.4182 11.2279 21.4712 11.3036C21.5242 11.3793 21.509 11.5988 21.4712 11.7502C21.4638 11.7751 21.4512 11.7981 21.4342 11.8177C21.4173 11.8373 21.3963 11.853 21.3728 11.8638C21.2879 11.9057 21.2227 11.9791 21.191 12.0683C21.191 12.1137 21.1305 12.1515 21.1078 12.1893C21.1078 12.1893 21.0169 12.3484 21.1078 12.4468C21.1299 12.4797 21.1477 12.5154 21.1608 12.5528C21.1608 12.5528 21.2062 12.6512 21.1986 12.6588C21.1616 12.6883 21.117 12.7067 21.0699 12.7118C21.0321 12.7153 20.9941 12.7153 20.9563 12.7118C20.9595 12.7546 20.9595 12.7977 20.9563 12.8405C20.8503 12.6664 20.7368 12.636 20.6157 12.7875C20.4643 12.6663 20.4188 12.6663 20.275 12.7875H20.1841C20.0176 12.8405 20.0251 12.8405 20.0554 12.9995C20.0704 13.0462 20.0704 13.0965 20.0554 13.1433C20.0238 13.2095 20.0074 13.2819 20.0074 13.3553C20.0074 13.4286 20.0238 13.5011 20.0554 13.5673C20.0888 13.6357 20.1062 13.7108 20.1062 13.7869C20.1062 13.863 20.0888 13.938 20.0554 14.0064L19.851 13.8626C19.851 13.7187 19.7677 13.7036 19.6844 13.6506L19.6163 13.5825C19.5709 13.5825 19.5179 13.6279 19.48 13.5825C19.4422 13.537 19.4195 13.5143 19.3816 13.484C19.3416 13.4761 19.3004 13.4761 19.2604 13.484C19.2323 13.4875 19.2063 13.5008 19.1869 13.5215C19.1675 13.5423 19.156 13.5693 19.1544 13.5976C19.1388 13.6586 19.1389 13.7225 19.1548 13.7835C19.1707 13.8444 19.2019 13.9003 19.2453 13.9458C19.2453 13.9458 19.2453 13.9912 19.2908 14.014C19.2889 14.0279 19.2842 14.0414 19.2771 14.0536C19.27 14.0658 19.2605 14.0764 19.2493 14.0848C19.238 14.0933 19.2251 14.0994 19.2115 14.1029C19.1978 14.1063 19.1835 14.1069 19.1696 14.1048C19.1454 14.1014 19.1232 14.0897 19.1067 14.0718C19.0901 14.0539 19.0802 14.0307 19.0787 14.0064C19.0544 13.9454 19.024 13.8871 18.9879 13.8323C19.0016 13.7706 19.0193 13.7099 19.0409 13.6506L18.738 13.7111C18.6903 13.7188 18.6457 13.7398 18.6094 13.7717C18.6094 13.8172 18.6094 13.8701 18.6094 13.9231C18.6504 13.9924 18.6668 14.0735 18.6558 14.1532C18.6448 14.233 18.6071 14.3067 18.5488 14.3623C18.5167 14.3915 18.4749 14.4078 18.4314 14.4078C18.388 14.4078 18.3462 14.3915 18.3141 14.3623L18.2308 14.4531L18.1021 14.3623L18.0037 14.4228L17.8901 14.2563C17.8295 14.3698 17.7311 14.3699 17.6251 14.3623C17.3526 14.3623 17.292 14.4001 17.2769 14.6726C17.2676 14.7705 17.2473 14.867 17.2163 14.9603C17.1633 14.7408 17.0119 14.5515 17.0422 14.3168C17.032 14.2732 17.0194 14.2302 17.0043 14.1881C17.0043 14.1502 17.0043 14.0897 17.0043 14.0746C17.0484 14.059 17.0965 14.059 17.1406 14.0746C17.1864 14.0913 17.2297 14.1142 17.2693 14.1427C17.3223 13.9837 17.2693 13.9004 17.0649 13.8626C17.3602 13.6354 17.3753 13.6203 17.3374 13.4461C17.2087 13.5294 17.08 13.6203 16.9059 13.5294L16.8605 13.6127C16.7999 13.7111 16.762 13.7263 16.656 13.6733L16.3911 13.537C16.4139 13.4634 16.4444 13.3923 16.4819 13.325C16.5111 13.2804 16.5534 13.2461 16.603 13.2266C16.6939 13.1736 16.7848 13.1282 16.7696 12.9919C16.7545 12.8556 16.8226 12.848 16.8529 12.7875V12.7345C16.7242 12.6134 16.7242 12.6058 16.8075 12.4544L16.8831 12.2953H16.7469C16.6257 12.2953 16.5955 12.2348 16.6409 12.1212C16.6863 12.0076 16.6939 12.0304 16.709 11.9926C16.9816 11.9926 17.0194 11.9093 16.9513 11.6897C16.8687 11.6776 16.7876 11.6572 16.709 11.6291C16.6106 11.6291 16.6106 11.5534 16.6409 11.4474C16.6712 11.3414 16.6939 11.2279 16.7318 11.1143C16.7574 11.0515 16.7878 10.9908 16.8226 10.9326H16.5349H16.4365C16.4365 10.9326 16.3456 10.9325 16.3381 10.8644C16.3363 10.8432 16.3394 10.822 16.3473 10.8023C16.3552 10.7826 16.3676 10.765 16.3835 10.7509C16.5198 10.6374 16.5198 10.5768 16.3835 10.4632C16.3673 10.4462 16.3548 10.4259 16.347 10.4037C16.3391 10.3815 16.3361 10.3579 16.3381 10.3345C16.3414 10.2591 16.3201 10.1847 16.2775 10.1225C16.2478 10.024 16.2301 9.92239 16.2245 9.8197C16.2146 9.80963 16.2029 9.8016 16.1899 9.79613C16.1769 9.79067 16.1629 9.78781 16.1488 9.78781C16.1347 9.78781 16.1207 9.79067 16.1077 9.79613C16.0947 9.8016 16.083 9.80963 16.0731 9.8197C16.0731 9.86513 16.0125 9.92561 15.9368 9.92561C15.9009 9.93017 15.8645 9.92643 15.8304 9.91461C15.7963 9.90279 15.7653 9.88324 15.74 9.8575H15.7021L15.6491 9.92561C15.581 10.0013 15.4825 9.98618 15.475 9.92561C15.4707 9.89468 15.4597 9.8651 15.4427 9.83892C15.4257 9.81275 15.4031 9.79066 15.3765 9.77423C15.3765 9.77423 15.3765 9.6985 15.3765 9.66065C15.3901 9.60778 15.4105 9.55693 15.4371 9.50926C15.2781 9.50926 15.2327 9.50922 15.1948 9.36537C15.1854 9.30491 15.1931 9.24305 15.2172 9.18681C15.2413 9.13057 15.2808 9.08228 15.3311 9.04744C15.475 8.99445 15.4598 8.89603 15.4371 8.76732H15.2706C15.2631 8.70192 15.2631 8.63587 15.2706 8.57047C15.266 8.53454 15.2752 8.49819 15.2962 8.46872C15.3173 8.43924 15.3486 8.41875 15.3841 8.41142C15.4598 8.41142 15.5128 8.37356 15.581 8.41142C15.6491 8.44927 15.687 8.47955 15.7324 8.41142C15.747 8.3827 15.7685 8.35809 15.7949 8.33961C15.8213 8.32113 15.8518 8.30943 15.8838 8.3055C15.9543 8.29867 16.0253 8.29867 16.0958 8.3055C16.1449 8.28877 16.1981 8.28877 16.2472 8.3055C16.3 8.34086 16.3597 8.36447 16.4224 8.37491C16.4851 8.38535 16.5492 8.38237 16.6106 8.36604C16.6106 8.36604 16.6863 8.31305 16.6939 8.28277C16.7014 8.25248 16.7469 8.17679 16.815 8.1995C16.8832 8.22221 16.9664 8.19945 16.9816 8.33572C16.9967 8.472 17.0573 8.50986 17.1936 8.43415C17.2302 8.39899 17.2791 8.37935 17.3299 8.37935C17.3807 8.37935 17.4295 8.39899 17.4661 8.43415L17.557 8.50984L17.6554 8.58563C17.7235 8.49477 17.822 8.50986 17.9204 8.525C17.9754 8.53622 18.032 8.53622 18.087 8.525C18.1327 8.51041 18.1813 8.50693 18.2287 8.51483C18.2761 8.52273 18.3209 8.54182 18.3595 8.57047V8.50226C18.3595 8.50226 18.3595 8.41142 18.4049 8.41142C18.426 8.41067 18.447 8.41441 18.4665 8.42223C18.4861 8.43005 18.5038 8.44183 18.5185 8.45689C18.5604 8.50549 18.6129 8.54376 18.672 8.56871C18.7311 8.59367 18.7952 8.60458 18.8592 8.60069C18.9172 8.60378 18.9749 8.59054 19.0258 8.56243C19.0767 8.53432 19.1186 8.4925 19.1469 8.44173C19.2302 8.53258 19.268 8.66891 19.4346 8.58563C19.4095 8.54253 19.3892 8.49679 19.374 8.44931C19.3666 8.43395 19.3628 8.41718 19.3628 8.40014C19.3628 8.3831 19.3666 8.36624 19.374 8.35088C19.4057 8.33862 19.4408 8.33862 19.4725 8.35088C19.5179 8.48716 19.6314 8.46446 19.7374 8.46446C19.8307 8.47183 19.9243 8.47183 20.0175 8.46446C20.058 8.45544 20.0933 8.43102 20.116 8.39635C20.131 8.363 20.1581 8.33657 20.1918 8.32251C20.2256 8.30845 20.2634 8.30773 20.2977 8.32057C20.429 8.35666 20.5676 8.35666 20.6989 8.32057C20.8536 8.28589 21.0155 8.31026 21.1532 8.38877C21.1532 8.38877 21.2062 8.43418 21.2289 8.46446C21.2516 8.49475 21.2289 8.57797 21.2819 8.59311C21.3444 8.60464 21.4086 8.60464 21.4712 8.59311C21.5136 8.60233 21.5575 8.60233 21.5999 8.59311L21.5696 8.57805ZM16.8907 13.1206C16.8599 13.1226 16.8311 13.1361 16.81 13.1586C16.7888 13.1811 16.7771 13.2108 16.7772 13.2417C16.776 13.2539 16.7776 13.2663 16.7817 13.2778C16.7859 13.2894 16.7925 13.2999 16.8012 13.3086C16.8099 13.3173 16.8203 13.3239 16.8319 13.328C16.8435 13.3322 16.8558 13.3337 16.868 13.3326C16.882 13.3339 16.896 13.3321 16.9091 13.3271C16.9222 13.3221 16.934 13.3143 16.9435 13.304C16.953 13.2937 16.9601 13.2814 16.9641 13.268C16.968 13.2545 16.9689 13.2404 16.9665 13.2266C16.9665 13.1736 16.9664 13.1282 16.8907 13.1206ZM16.1336 8.43415C16.1336 8.33573 16.0882 8.30543 16.0352 8.32815C15.9822 8.35086 16.0352 8.32821 16.0352 8.38877L16.1564 8.43415H16.1336Z" fill="#1F5DA0"/>
<path id="Vector_7" fill-rule="evenodd" clip-rule="evenodd" d="M12.3556 21.9407L12.1437 22.0619L12.4314 22.3572L12.5525 22.2966C12.6888 22.2361 12.7493 22.2966 12.7796 22.4253C12.8099 22.554 12.8326 22.713 12.8629 22.8796L12.5146 23.1824C12.5146 23.3414 12.5146 23.4777 12.5146 23.6291L12.8478 23.4171C12.9008 23.349 12.7266 23.2657 12.7872 23.1597C12.8447 23.1481 12.9038 23.1481 12.9613 23.1597C13.0488 23.2136 13.1258 23.2827 13.1885 23.3641C13.2602 23.4707 13.2873 23.6012 13.2642 23.7276C13.2519 23.787 13.253 23.8483 13.2674 23.9072C13.2818 23.9661 13.3091 24.0212 13.3474 24.0682C13.3687 24.0907 13.3806 24.1205 13.3806 24.1515C13.3806 24.1825 13.3687 24.2123 13.3474 24.2347C13.249 24.3407 13.2642 24.3711 13.3474 24.4771C13.316 24.6622 13.2492 24.8396 13.1506 24.9994C13.037 24.9994 12.931 24.9616 12.878 25.0751H12.6736C12.6736 25.1508 12.719 25.1963 12.7342 25.2417C12.7596 25.3046 12.7613 25.3746 12.739 25.4386C12.7167 25.5026 12.672 25.5564 12.6131 25.59C12.574 25.6214 12.5385 25.6569 12.5071 25.696C12.4799 25.7298 12.4465 25.758 12.4086 25.7793C12.3958 25.7873 12.3808 25.7913 12.3656 25.7908C12.3504 25.7903 12.3358 25.7852 12.3235 25.7762C12.3113 25.7672 12.302 25.7548 12.297 25.7404C12.2919 25.7261 12.2912 25.7107 12.2951 25.696C12.3329 25.5976 12.3784 25.4991 12.4162 25.3931C12.4541 25.2871 12.4768 25.1963 12.5146 25.0827H12.4465C12.4759 25.0506 12.5014 25.015 12.5222 24.9767C12.53 24.9341 12.53 24.8906 12.5222 24.848L12.2194 24.7572C12.2194 24.8859 12.2194 24.9919 12.0831 25.0525C11.9468 25.113 12.0225 25.1509 12.0831 25.2039C12.1343 25.2375 12.1824 25.2755 12.2269 25.3174C12.3027 25.378 12.2951 25.4386 12.2269 25.484C12.1786 25.5112 12.1279 25.534 12.0755 25.5521C11.9847 25.5521 11.9771 25.6279 12.0301 25.7036C12.0831 25.7793 12.1209 25.8625 12.0301 26.0063C11.9623 26.1136 11.8685 26.2022 11.7575 26.2638C11.7526 26.2758 11.75 26.2886 11.75 26.3016C11.75 26.3146 11.7526 26.3275 11.7575 26.3395C11.742 26.4816 11.6955 26.6186 11.6213 26.7408C11.6103 26.7547 11.6025 26.7708 11.5985 26.788C11.5944 26.8052 11.5942 26.8231 11.5978 26.8404C11.6014 26.8577 11.6088 26.8741 11.6194 26.8883C11.63 26.9025 11.6435 26.9141 11.6591 26.9225C11.7575 27.0133 11.7575 27.0209 11.6591 27.1193L11.432 27.354L11.2503 27.3162L11.1821 27.4752C11.0482 27.4498 10.9183 27.4065 10.796 27.3464C10.8642 27.248 10.955 27.248 11.0459 27.2178C11.0481 27.1825 11.0481 27.1471 11.0459 27.1118C11.0143 27.0662 10.9974 27.012 10.9974 26.9565C10.9974 26.901 11.0143 26.8469 11.0459 26.8013C11.0989 26.7029 11.0913 26.6802 10.9929 26.6348C10.8945 26.5894 10.8415 26.5287 10.9172 26.4V26.3547L10.8414 26.2108L11.1897 25.8398L11.5834 25.8853C11.5834 25.8096 11.5834 25.7565 11.5153 25.6808L11.6288 25.6203C11.6818 25.6203 11.7197 25.5218 11.6818 25.484C11.644 25.4461 11.5758 25.2569 11.4244 25.2342V25.3628L11.326 25.4083C11.3218 25.4257 11.3218 25.4438 11.326 25.4612C11.3639 25.5824 11.326 25.6657 11.1973 25.6884C11.137 25.6963 11.0759 25.6963 11.0156 25.6884C10.9096 25.6884 10.8414 25.7338 10.8339 25.8322C10.831 25.89 10.8144 25.9462 10.7854 25.9963C10.7565 26.0463 10.716 26.0887 10.6673 26.1199C10.6336 26.142 10.6061 26.1725 10.5875 26.2083C10.569 26.2441 10.5599 26.284 10.5613 26.3243C10.5613 26.4228 10.4932 26.453 10.4099 26.4152C10.3963 26.4126 10.3837 26.4067 10.373 26.3979C10.3623 26.3892 10.354 26.3779 10.3487 26.3651C10.3435 26.3523 10.3415 26.3385 10.3429 26.3248C10.3443 26.3111 10.3491 26.2979 10.3569 26.2865C10.3569 26.2865 10.3569 26.2335 10.4023 26.2183C10.4466 26.1762 10.4795 26.1236 10.498 26.0654C10.5165 26.0072 10.5201 25.9452 10.5083 25.8853C10.5083 25.7111 10.6295 25.6278 10.7506 25.5369L10.8642 25.4537C10.7638 25.4318 10.659 25.4447 10.5669 25.4901C10.4748 25.5355 10.4008 25.6107 10.3569 25.7036C10.3493 25.723 10.3493 25.7446 10.3569 25.7641C10.3716 25.8007 10.3728 25.8414 10.3604 25.8788C10.3479 25.9162 10.3225 25.9481 10.2888 25.9685C10.237 26.0111 10.1967 26.066 10.1715 26.1281C10.1464 26.1903 10.1373 26.2577 10.1449 26.3243C10.1449 26.3773 10.1449 26.4531 10.0843 26.4682C10.0238 26.4834 9.9708 26.4001 9.96323 26.3243C9.95956 26.3018 9.95956 26.2788 9.96323 26.2562C9.98719 26.2155 9.99503 26.1673 9.98523 26.121C9.97542 26.0748 9.94866 26.0338 9.91023 26.0063C9.87189 25.8165 9.87189 25.6209 9.91023 25.431V25.3856C9.79666 25.3326 9.78911 25.219 9.78154 25.113C9.79826 25.0639 9.79826 25.0107 9.78154 24.9616C9.75419 24.9394 9.73544 24.9083 9.72853 24.8737C9.72162 24.8392 9.72695 24.8034 9.74364 24.7724C9.83652 24.5406 9.96698 24.3256 10.1298 24.1363C10.1298 24.0833 10.2357 24.0682 10.3039 24.0303V23.9395C10.3039 23.841 10.3039 23.8032 10.4402 23.7654C10.5765 23.7275 10.5538 23.7654 10.5311 23.5761C10.3796 23.5761 10.213 23.682 10.1146 23.4549C10.1146 23.4549 10.1146 23.3944 10.1752 23.3868C10.3266 23.3414 10.2812 23.2203 10.2736 23.1294C10.2741 23.0781 10.256 23.0283 10.2226 22.9893C10.1892 22.9503 10.1428 22.9247 10.0919 22.9174C10.0723 22.9243 10.0509 22.9243 10.0313 22.9174C10.0187 22.9075 10.0086 22.8949 10.0016 22.8804C9.99458 22.866 9.99091 22.8502 9.99091 22.8341C9.99091 22.8181 9.99458 22.8023 10.0016 22.7878C10.0086 22.7734 10.0187 22.7608 10.0313 22.7509C10.0995 22.7054 10.1601 22.6752 10.1525 22.5767C10.1584 22.5251 10.1533 22.4728 10.1376 22.4232C10.122 22.3737 10.0961 22.328 10.0617 22.289C10.0164 22.2417 9.97818 22.1881 9.94807 22.13C9.94807 22.0391 10.0086 21.9635 10.0465 21.8726H10.1525C10.1729 21.8691 10.1918 21.8597 10.2069 21.8455C10.222 21.8314 10.2326 21.8131 10.2374 21.7929C10.2423 21.7728 10.2411 21.7517 10.2341 21.7322C10.227 21.7128 10.2145 21.6957 10.1979 21.6833L10.0768 21.5849C10.2133 21.519 10.3587 21.4732 10.5083 21.4487C10.6219 21.4487 10.6522 21.4487 10.6067 21.3275C10.5857 21.2867 10.5803 21.2396 10.5914 21.195C10.6025 21.1504 10.6295 21.1113 10.6673 21.0852C10.6959 21.0659 10.7192 21.0399 10.7354 21.0095C10.8005 20.869 10.8994 20.7468 11.0231 20.6537C11.0445 20.6312 11.0704 20.6135 11.0992 20.6018C11.1279 20.59 11.1587 20.5845 11.1897 20.5856C11.273 20.419 11.2957 20.4115 11.4244 20.5023C11.3639 20.6159 11.2654 20.737 11.3714 20.8809C11.5683 20.7749 11.6515 20.9565 11.7727 21.0398C11.7945 21.0619 11.8124 21.0874 11.8257 21.1155C11.9259 21.0455 12.0012 20.9454 12.0407 20.8297C12.0802 20.7139 12.0818 20.5887 12.0453 20.472C12.2118 20.472 12.2269 20.472 12.2951 20.6385L12.6963 20.737L12.6131 20.9869C12.7569 20.9869 12.8251 21.0625 12.9008 21.1458C12.9765 21.2291 12.8326 21.214 12.825 21.2518C12.8333 21.2957 12.8514 21.337 12.878 21.3729L12.6055 21.5092C12.4919 21.5698 12.4844 21.6076 12.6055 21.7061V21.7514C12.6055 21.8726 12.4086 21.8802 12.4389 22.0089L12.3556 21.9407ZM12.1058 20.843L12.0604 20.8959H12.1058V20.843Z" fill="#1F5DA0"/>
<path id="Vector_8" fill-rule="evenodd" clip-rule="evenodd" d="M13.62 25.9004C13.5937 25.8012 13.5937 25.6968 13.62 25.5975C13.62 25.5597 13.62 25.5218 13.62 25.4915C13.62 25.4612 13.62 25.3325 13.6654 25.2719C13.7108 25.2114 13.7411 25.1054 13.8623 25.1206C13.8993 25.0347 13.9296 24.9461 13.9531 24.8556C13.9699 24.8145 13.9723 24.769 13.9599 24.7264C13.9475 24.6838 13.9212 24.6466 13.885 24.6208C13.832 24.6208 13.8244 24.5149 13.885 24.4846C13.9215 24.4713 13.9525 24.4462 13.973 24.4133C13.9936 24.3804 14.0026 24.3414 13.9985 24.3028C13.9962 24.2655 13.9837 24.2296 13.9624 24.1989C13.941 24.1682 13.9116 24.1439 13.8774 24.1287C13.8946 24.0978 13.9073 24.0647 13.9153 24.0303C13.9251 24.0008 13.9251 23.9689 13.9153 23.9394C13.8244 23.841 13.8547 23.7351 13.9153 23.6215C13.8017 23.5761 13.7714 23.47 13.7108 23.3792C13.6101 23.1777 13.4621 23.0037 13.2793 22.872H13.2263C13.2149 22.7967 13.2149 22.7201 13.2263 22.6448C13.2466 22.5867 13.2774 22.5328 13.3172 22.4859C13.3172 22.4859 13.3172 22.4026 13.3172 22.3496C13.3172 22.2966 13.3626 22.1982 13.4989 22.2133C13.5392 22.2097 13.5797 22.2097 13.62 22.2133C13.6486 22.222 13.6746 22.2376 13.6957 22.2587C13.7457 22.4165 13.8116 22.5686 13.8926 22.7129C13.8892 22.7482 13.8892 22.7837 13.8926 22.819C13.9096 22.8636 13.9384 22.9029 13.9759 22.9325C14.0484 22.985 14.0973 23.0639 14.1121 23.1521V23.2959C14.1422 23.4175 14.1935 23.5329 14.2636 23.6367C14.3672 23.7946 14.4864 23.9417 14.6194 24.0758C14.6194 24.0758 14.5816 24.1287 14.5588 24.1363C14.5235 24.1544 14.493 24.1806 14.4699 24.2128C14.4467 24.245 14.4315 24.2822 14.4256 24.3214C14.4197 24.3606 14.4232 24.4006 14.4358 24.4382C14.4485 24.4758 14.4699 24.5099 14.4983 24.5376C14.5277 24.5769 14.5437 24.6248 14.5437 24.6739C14.5437 24.8632 14.5437 25.0599 14.5437 25.2568C14.5474 25.2886 14.5415 25.3208 14.5266 25.3492C14.5118 25.3776 14.4887 25.4008 14.4604 25.4158L14.3468 25.5143C14.256 25.6051 14.256 25.6202 14.309 25.7413C14.362 25.8625 14.309 25.9761 14.1954 25.9837C14.0818 25.9912 13.9683 26.1123 13.885 26.2259C13.8398 26.3127 13.7644 26.38 13.673 26.4152C13.6276 26.2562 13.673 26.1881 13.8472 26.0821V25.9609C13.8433 25.9232 13.8433 25.8851 13.8472 25.8473C13.726 25.8019 13.7184 25.9685 13.62 25.9609V25.9004Z" fill="#1F5DA0"/>
<path id="Vector_9" fill-rule="evenodd" clip-rule="evenodd" d="M16.3384 25.2342L16.1643 25.1963C16.1611 25.2341 16.1611 25.2721 16.1643 25.3099C16.1568 25.3319 16.1568 25.3559 16.1643 25.378C16.1763 25.4214 16.1731 25.4676 16.1552 25.5089C16.1373 25.5503 16.1058 25.5843 16.0658 25.6051C15.922 25.6657 15.8538 25.908 15.6191 25.7793C15.7403 25.6278 15.7327 25.4083 15.8993 25.325C15.8993 25.2039 15.8993 25.1206 15.8993 25.0297C15.8993 24.9389 15.8993 24.7647 15.8993 24.6284C15.8993 24.4922 15.8993 24.4694 15.9825 24.4089C16.0658 24.3483 15.9826 24.3407 16.0734 24.3029C16.0734 24.4013 16.0734 24.4921 16.134 24.5906C16.293 24.5906 16.3384 24.5906 16.3687 24.7345C16.3757 24.8378 16.3757 24.9415 16.3687 25.0449C16.3645 25.1088 16.3544 25.1722 16.3384 25.2342Z" fill="#1F5DA0"/>
<path id="Vector_10" fill-rule="evenodd" clip-rule="evenodd" d="M20.0936 28.2095L20.2525 28.1111C20.2525 28.1943 20.2525 28.2625 20.2525 28.361L20.3358 28.3155C20.3812 28.3155 20.4267 28.2322 20.4872 28.3155C20.5003 28.3275 20.5108 28.3422 20.5179 28.3585C20.525 28.3747 20.5287 28.3923 20.5287 28.4101C20.5287 28.4279 20.525 28.4455 20.5179 28.4618C20.5108 28.4781 20.5003 28.4927 20.4872 28.5048C20.4115 28.5956 20.4115 28.6335 20.4872 28.7243C20.5195 28.7512 20.5411 28.7889 20.5478 28.8304C20.5419 28.9157 20.524 28.9998 20.4948 29.0802C20.4948 29.0802 20.4191 29.1256 20.3737 29.1256C20.2898 29.0999 20.2001 29.0999 20.1163 29.1256H20.0481C20.0366 29.0938 20.0366 29.059 20.0481 29.0272C20.0832 29.0001 20.1213 28.9772 20.1617 28.959C20.2147 28.959 20.2525 28.8682 20.1617 28.8228C20.0708 28.7773 20.0557 28.535 20.0254 28.3836C20.0254 28.3836 20.0254 28.308 19.9876 28.2625C19.9833 28.1894 19.9833 28.1161 19.9876 28.0429C19.9876 28.0429 20.033 27.9975 20.0557 27.9672C20.0784 27.937 20.0557 28.0202 20.0557 28.0505C20.0605 28.1034 20.0605 28.1566 20.0557 28.2095H20.0936Z" fill="#1F5DA0"/>
<path id="Vector_11" fill-rule="evenodd" clip-rule="evenodd" d="M13.6582 21.759H13.484C13.4353 21.7464 13.3841 21.7475 13.336 21.7622C13.2879 21.7769 13.2448 21.8046 13.2115 21.8422C13.1282 21.9482 12.9843 21.8953 12.8632 21.971C12.8671 21.8662 12.832 21.7637 12.7647 21.6833C12.7118 21.6303 12.7648 21.5546 12.8329 21.5546C12.9551 21.5586 13.0767 21.5352 13.1888 21.4864C13.2329 21.4705 13.2807 21.4677 13.3264 21.4785C13.3721 21.4892 13.4137 21.5131 13.4462 21.5471C13.5208 21.6192 13.5992 21.6873 13.6809 21.7514L13.6582 21.759Z" fill="#1F5DA0"/>
<path id="Vector_12" fill-rule="evenodd" clip-rule="evenodd" d="M17.8749 23.137C17.9763 23.2264 18.0583 23.3357 18.1156 23.4581C18.1729 23.5806 18.2043 23.7135 18.208 23.8486L18.3368 23.9017C18.3368 23.985 18.3367 24.0228 18.261 24.0606C18.2553 24.0718 18.2466 24.0811 18.2359 24.0876C18.2252 24.0941 18.213 24.0976 18.2005 24.0976C18.188 24.0976 18.1757 24.0941 18.165 24.0876C18.1543 24.0811 18.1456 24.0718 18.1399 24.0606C18.0847 23.9489 17.9942 23.8585 17.8825 23.8032C17.8825 23.8032 17.8295 23.7124 17.8295 23.6669C17.8358 23.6352 17.835 23.6024 17.8271 23.571C17.8193 23.5396 17.8045 23.5103 17.784 23.4852C17.7767 23.4712 17.7729 23.4557 17.7729 23.4399C17.7729 23.424 17.7767 23.4084 17.784 23.3944C17.8061 23.3059 17.8365 23.2197 17.8749 23.137Z" fill="#1F5DA0"/>
<path id="Vector_13" fill-rule="evenodd" clip-rule="evenodd" d="M1.97599 0.492163L2.11231 0.431628C2.11945 0.480869 2.11257 0.53111 2.09248 0.576634C2.0724 0.622157 2.03991 0.661099 1.99872 0.689015C1.89273 0.734441 1.83974 0.636007 1.7716 0.583011C1.55205 0.620865 1.54446 0.583018 1.6126 0.401315C1.68074 0.219611 1.70344 0.15145 1.74887 3.05176e-05C1.78672 0.0378854 1.81703 0.0605799 1.81703 0.0757218C1.81592 0.229551 1.87264 0.378216 1.97599 0.492163Z" fill="#1F5DA0"/>
<path id="Vector_14" fill-rule="evenodd" clip-rule="evenodd" d="M10.7809 26.824C10.7783 26.8924 10.7572 26.9588 10.7199 27.0161C10.6825 27.0734 10.6304 27.1195 10.5689 27.1495C10.5558 27.1552 10.5416 27.1581 10.5273 27.1581C10.513 27.1581 10.4988 27.1552 10.4857 27.1495C10.4769 27.136 10.4722 27.1203 10.4722 27.1042C10.4722 27.088 10.4769 27.0722 10.4857 27.0587C10.4965 27.0272 10.5179 27.0005 10.5462 26.983C10.5712 26.966 10.589 26.9402 10.596 26.9108C10.603 26.8814 10.5988 26.8505 10.5841 26.824C10.5808 26.7938 10.5808 26.7634 10.5841 26.7332C10.5841 26.6802 10.584 26.6196 10.637 26.612C10.6604 26.6126 10.6835 26.6183 10.7044 26.6288C10.7254 26.6392 10.7437 26.6542 10.7582 26.6726C10.7701 26.7223 10.7777 26.773 10.7809 26.824Z" fill="#1F5DA0"/>
<path id="Vector_15" fill-rule="evenodd" clip-rule="evenodd" d="M13.2491 20.6008L13.4762 20.8051C13.4762 20.8051 13.4762 20.8733 13.4762 20.9111C13.4762 20.949 13.4005 20.9111 13.3778 20.9111C13.3168 20.8885 13.2496 20.8885 13.1886 20.9111C13.1696 20.9143 13.1502 20.9138 13.1315 20.9094C13.1128 20.9051 13.0953 20.897 13.0797 20.8857C13.0642 20.8744 13.0511 20.8601 13.0412 20.8436C13.0313 20.8272 13.0247 20.809 13.022 20.79C13.075 20.7068 13.1658 20.5629 13.2491 20.6008Z" fill="#1F5DA0"/>
<path id="Vector_16" fill-rule="evenodd" clip-rule="evenodd" d="M12.6737 26.6575L12.4314 26.877C12.3557 26.7483 12.3633 26.6575 12.4314 26.6045C12.4996 26.5515 12.5904 26.5515 12.6737 26.6575Z" fill="#1F5DA0"/>
<path id="Vector_17" fill-rule="evenodd" clip-rule="evenodd" d="M12.6357 18.6171C12.7609 18.6345 12.8803 18.6811 12.984 18.7534C12.9235 18.8821 12.8856 18.9048 12.7947 18.8366C12.7504 18.8184 12.7121 18.7883 12.684 18.7495C12.6559 18.7107 12.6392 18.6649 12.6357 18.6171Z" fill="#1F5DA0"/>
<path id="Vector_18" fill-rule="evenodd" clip-rule="evenodd" d="M20.6385 28.3003C20.6385 28.1489 20.7218 27.9976 20.5098 27.9673C20.5185 27.9502 20.5306 27.9351 20.5453 27.9227C20.5601 27.9104 20.577 27.9011 20.5954 27.8955C20.6137 27.8898 20.633 27.8879 20.6521 27.8898C20.6712 27.8917 20.6898 27.8975 20.7066 27.9066C20.7332 27.9183 20.7543 27.9398 20.7655 27.9665C20.7768 27.9933 20.7774 28.0234 20.7672 28.0505C20.7444 28.1338 20.7672 28.2246 20.6385 28.3003Z" fill="#1F5DA0"/>
<path id="Vector_19" fill-rule="evenodd" clip-rule="evenodd" d="M13.3023 26.6575C13.2838 26.7063 13.2583 26.7522 13.2266 26.7937C13.2029 26.8289 13.1683 26.8555 13.1282 26.8694C13.0955 26.8731 13.0625 26.8731 13.0298 26.8694C13.0298 26.8694 13.0298 26.7861 13.0298 26.7634C13.061 26.7224 13.103 26.6908 13.1511 26.6721C13.1992 26.6534 13.2515 26.6484 13.3023 26.6575Z" fill="#1F5DA0"/>
<path id="Vector_20" fill-rule="evenodd" clip-rule="evenodd" d="M12.8706 26.0063C12.8943 25.9438 12.9389 25.8915 12.9969 25.8584C13.055 25.8252 13.1228 25.8133 13.1886 25.8246C13.1886 25.8246 13.1886 25.8247 13.1886 25.8701C13.1903 25.9029 13.1903 25.9358 13.1886 25.9685L12.8706 26.0063Z" fill="#1F5DA0"/>
<path id="Vector_21" fill-rule="evenodd" clip-rule="evenodd" d="M16.4742 23.5912L16.2471 23.7502L16.1714 23.6669C16.2017 23.5912 16.3455 23.5912 16.4742 23.5912Z" fill="#1F5DA0"/>
<path id="Vector_22" fill-rule="evenodd" clip-rule="evenodd" d="M22.2436 32.8354C22.0998 32.8354 22.0165 32.737 22.0165 32.6461C22.0101 32.629 22.0101 32.6102 22.0165 32.5931C22.0246 32.5885 22.0337 32.586 22.043 32.586C22.0523 32.586 22.0615 32.5885 22.0695 32.5931L22.2436 32.8354Z" fill="#1F5DA0"/>
<path id="Vector_23" fill-rule="evenodd" clip-rule="evenodd" d="M15.1874 25.3174C15.1874 25.4234 15.2328 25.5294 15.1874 25.6278C15.0586 25.5445 15.0586 25.4764 15.1874 25.3174Z" fill="#1F5DA0"/>
<path id="Vector_24" fill-rule="evenodd" clip-rule="evenodd" d="M6.17773 28.2928C6.24383 28.2033 6.31457 28.1174 6.3897 28.0354C6.3897 28.1111 6.3897 28.1717 6.3897 28.2247C6.3897 28.2777 6.32158 28.3458 6.17773 28.2928Z" fill="#1F5DA0"/>
<path id="Vector_25" fill-rule="evenodd" clip-rule="evenodd" d="M19.5485 24.6284C19.4955 24.5224 19.5485 24.4694 19.5939 24.4391C19.6072 24.434 19.6217 24.433 19.6355 24.4365C19.6493 24.44 19.6616 24.4478 19.6707 24.4586C19.6799 24.4695 19.6855 24.4829 19.6866 24.4971C19.6878 24.5112 19.6845 24.5254 19.6772 24.5375C19.6402 24.5755 19.5966 24.6063 19.5485 24.6284Z" fill="#1F5DA0"/>
<path id="Vector_26" fill-rule="evenodd" clip-rule="evenodd" d="M15.3689 24.5679C15.4295 24.6815 15.369 24.7496 15.3008 24.8404C15.2877 24.7442 15.3121 24.6466 15.3689 24.5679Z" fill="#1F5DA0"/>
<path id="Vector_27" fill-rule="evenodd" clip-rule="evenodd" d="M5.67053 27.8613L5.5721 27.8007C5.56451 27.7761 5.56451 27.7496 5.5721 27.7249C5.58165 27.7208 5.59199 27.7187 5.60241 27.7187C5.61283 27.7187 5.62313 27.7208 5.63268 27.7249C5.70082 27.7325 5.70838 27.7704 5.67053 27.8613Z" fill="#1F5DA0"/>
<path id="Vector_28" fill-rule="evenodd" clip-rule="evenodd" d="M13.128 26.1806C13.1248 26.2004 13.1172 26.2193 13.1058 26.2359C13.0944 26.2524 13.0795 26.2663 13.0621 26.2764C13.0448 26.2866 13.0254 26.2927 13.0053 26.2944C12.9853 26.2962 12.9652 26.2936 12.9463 26.2866C12.969 26.1882 13.022 26.1579 13.128 26.1806Z" fill="#1F5DA0"/>
<path id="Vector_29" fill-rule="evenodd" clip-rule="evenodd" d="M22.2588 32.9186L22.3345 33.1837C22.2058 33.0777 22.1982 33.0549 22.2588 32.9186Z" fill="#1F5DA0"/>
<path id="Vector_30" fill-rule="evenodd" clip-rule="evenodd" d="M7.88162 26.0973V26.294C7.80591 26.2107 7.81348 26.1503 7.88162 26.0973Z" fill="#1F5DA0"/>
<path id="Vector_31" fill-rule="evenodd" clip-rule="evenodd" d="M9.12282 7.06383C9.12658 7.10412 9.12658 7.14461 9.12282 7.1849C9.12282 7.1849 9.12282 7.1849 9.0774 7.1849C9.06042 7.174 9.04721 7.15819 9.03955 7.13952C9.03955 7.0941 9.07741 7.06379 9.09255 7.02594L9.12282 7.06383Z" fill="#1F5DA0"/>
<path id="Vector_32" fill-rule="evenodd" clip-rule="evenodd" d="M20.0023 27.1571C19.9569 27.1041 19.9569 27.0587 20.0023 26.9754C20.0023 27.0511 20.0023 27.1041 20.0023 27.1496V27.1571Z" fill="#1F5DA0"/>
<path id="Vector_33" fill-rule="evenodd" clip-rule="evenodd" d="M16.2095 16.9211C16.2095 16.8681 16.2473 16.8455 16.3003 16.8682C16.3533 16.8909 16.3003 16.9061 16.3003 16.9137C16.3003 16.9212 16.2473 16.959 16.2095 16.9211Z" fill="#1F5DA0"/>
<path id="Vector_34" fill-rule="evenodd" clip-rule="evenodd" d="M7.04833 3.64171C6.96505 3.60385 6.94993 3.55837 6.98022 3.49023C7.0105 3.42209 7.06347 3.55843 7.04833 3.64171Z" fill="#1F5DA0"/>
<path id="Vector_35" fill-rule="evenodd" clip-rule="evenodd" d="M13.5445 26.0366H13.4915C13.4746 26.0194 13.4617 25.9988 13.4536 25.9761C13.4536 25.9761 13.4536 25.9761 13.499 25.9761C13.5445 25.9761 13.5445 26.0139 13.5445 26.0366Z" fill="#1F5DA0"/>
<path id="Vector_36" fill-rule="evenodd" clip-rule="evenodd" d="M12.0303 26.8846L11.9849 26.93V26.8921C11.9849 26.8921 12.0303 26.877 12.0303 26.8846Z" fill="#1F5DA0"/>
<path id="Vector_37" fill-rule="evenodd" clip-rule="evenodd" d="M12.9692 22.1376V22.0922C12.9692 22.0922 12.9692 22.0922 13.0071 22.0922C13.0449 22.0922 12.9617 22.1224 12.9692 22.1376Z" fill="#1F5DA0"/>
<path id="Vector_38" fill-rule="evenodd" clip-rule="evenodd" d="M9.59229 22.1527C9.64528 22.1527 9.69823 22.1527 9.73609 22.2587L9.59229 22.1527Z" fill="#1F5DA0"/>
<path id="Vector_39" fill-rule="evenodd" clip-rule="evenodd" d="M12.1895 26.5515L12.144 26.6196C12.144 26.6196 12.144 26.6196 12.144 26.5742L12.1895 26.5515Z" fill="#1F5DA0"/>
</g>
<defs>
<clipPath id="clip0_992_26689">
<rect width="24" height="33.1836" fill="white"/>
</clipPath>
</defs>
</svg>
