<svg width="25" height="20" viewBox="0 0 25 20" fill="none" xmlns="http://www.w3.org/2000/svg">
<g id="Payment 1" clip-path="url(#clip0_992_26677)">
<path id="Vector" fill-rule="evenodd" clip-rule="evenodd" d="M2.21378 6.10352e-05H22.7862C23.373 0.00138176 23.9353 0.236487 24.3501 0.653938C24.765 1.07139 24.9987 1.6372 25 2.22756V17.7726C24.9987 18.3629 24.765 18.9287 24.3501 19.3462C23.9353 19.7636 23.373 19.9987 22.7862 20.0001H2.21378C1.62705 19.9987 1.06473 19.7636 0.649848 19.3462C0.234969 18.9287 0.00131259 18.3629 0 17.7726V2.22756C0.00131259 1.6372 0.234969 1.07139 0.649848 0.653938C1.06473 0.236487 1.62705 0.00138176 2.21378 6.10352e-05ZM22.7862 1.38256H2.21378C1.99145 1.38387 1.7786 1.47332 1.62139 1.63151C1.46418 1.78969 1.37528 2.00386 1.37398 2.22756V17.7726C1.37528 17.9963 1.46418 18.2104 1.62139 18.3686C1.7786 18.5268 1.99145 18.6162 2.21378 18.6176H22.7862C23.0086 18.6162 23.2214 18.5268 23.3786 18.3686C23.5358 18.2104 23.6247 17.9963 23.626 17.7726V2.22756C23.6247 2.00386 23.5358 1.78969 23.3786 1.63151C23.2214 1.47332 23.0086 1.38387 22.7862 1.38256Z" fill="#1F5DA0"/>
<path id="Vector_2" d="M13.2849 15.0626H8.43994V16.6401H13.2849V15.0626Z" fill="#1F5DA0"/>
<path id="Vector_3" d="M6.65639 15.0626H3.36182V16.6401H6.65639V15.0626Z" fill="#1F5DA0"/>
<path id="Vector_4" d="M25 4.92755H0V9.99755H25V4.92755Z" fill="#01A601"/>
</g>
<defs>
<clipPath id="clip0_992_26677">
<rect width="25" height="20" fill="white"/>
</clipPath>
</defs>
</svg>
