<svg width="29" height="27" viewBox="0 0 29 27" fill="none" xmlns="http://www.w3.org/2000/svg">
<g id="Retrun 1" clip-path="url(#clip0_992_26669)">
<path id="Vector" fill-rule="evenodd" clip-rule="evenodd" d="M16.3345 6.64206C16.3345 6.79506 16.4237 6.81307 16.5844 6.93007C18.0929 7.94707 19.5924 9.00005 21.1098 9.98105C21.1723 9.98105 21.208 10.062 21.2972 10.062C21.3865 10.062 21.4579 10.0171 21.4579 9.92705V8.18105C21.9158 8.14894 22.3743 8.23253 22.792 8.42426C23.2097 8.61599 23.5734 8.9098 23.85 9.27905C23.9688 9.46909 24.0412 9.68478 24.0614 9.90849C24.0816 10.1322 24.0489 10.3575 23.9661 10.566C23.8546 10.8506 23.6807 11.106 23.4573 11.3131C23.3591 11.4031 23.2609 11.4661 23.2609 11.5651C23.2609 11.6641 23.5108 11.718 23.5376 11.718C23.8645 11.5428 24.165 11.3216 24.4302 11.0611C24.5819 10.8991 24.7426 10.7371 24.8854 10.5571C25.0702 10.3121 25.2204 10.0426 25.3317 9.75605C25.5336 9.24086 25.5912 8.67967 25.4984 8.1337C25.4055 7.58773 25.1657 7.07797 24.8051 6.66005C24.4321 6.21449 23.9656 5.85792 23.4394 5.61605C22.8963 5.36553 22.3126 5.21614 21.7167 5.17506C21.3419 5.17506 21.4311 5.38206 21.4311 4.27506V3.37506C21.4311 3.24906 21.2973 3.15907 21.1009 3.30307C19.6638 4.33807 18.0661 5.36406 16.5933 6.36306C16.5487 6.45306 16.3345 6.57006 16.3345 6.64206Z" fill="#01A601"/>
<path id="Vector_2" fill-rule="evenodd" clip-rule="evenodd" d="M4.98047 9.63007L11.6392 6.13806C11.5639 6.58713 11.5251 7.04162 11.5231 7.49704C11.5262 8.12708 11.598 8.75487 11.7373 9.36906L8.0956 11.2861V16.4791L6.3997 14.4631L4.99834 14.895L4.98047 9.63007Z" fill="#01A601"/>
<path id="Vector_3" fill-rule="evenodd" clip-rule="evenodd" d="M0.464134 6.75907L11.7285 0.819069C12.0156 0.706551 12.3341 0.706551 12.6211 0.819069L13.96 1.55708L13.8172 1.71006L13.6833 1.86307L13.5583 2.00708L13.4512 2.14207V2.18706L13.353 2.31307V2.36707L13.2727 2.46606C13.254 2.49751 13.2331 2.52759 13.2102 2.55606L13.1567 2.63706L13.0763 2.74505V2.80806L12.9871 2.93407V2.97906L12.8978 3.13208L12.3176 2.84407L3.3918 7.55108L4.78423 8.28906L3.80241 8.84705L3.73992 10.0081L2.28501 9.24306V19.4671L11.2108 24.2911V14.0221L9.56848 13.1221V12.0601L10.6842 11.4571L12.2998 12.3121L12.9424 11.9521C12.9871 12.0331 13.0406 12.1141 13.0942 12.1951C13.2013 12.3571 13.3173 12.5101 13.4334 12.6631L13.6119 12.8881C13.6388 12.9292 13.6686 12.9683 13.7011 13.0051L13.8886 13.2121L13.9778 13.3201L14.1653 13.5181L14.2545 13.6171L14.442 13.7881L14.5402 13.8781L14.7098 14.0221L14.799 14.1031H14.8436L15.0132 14.2381L15.1025 14.3011L15.1561 14.3461L15.3167 14.4541H15.3792L15.4684 14.5171L15.5309 14.5621L15.6827 14.6521L15.7541 14.6971L15.8433 14.7511L15.9237 14.8051L16.0486 14.8771L16.1468 14.9221L16.2271 14.9671L16.3253 15.0211L16.4414 15.0751L16.5485 15.1291H16.6288L16.7538 15.1831H16.8341L16.9591 15.2371H17.0394L17.1644 15.2911H17.2447L17.3875 15.3451H17.4589L17.6017 15.3991H17.6731L17.8159 15.4441H17.8874L18.048 15.4891H18.0926L18.2622 15.5341H18.3247L18.5032 15.5791L18.6817 15.6241H18.7353L18.9317 15.6691H19.128H19.1816H19.378H19.5743H19.6279H19.8332H20.0385H20.0831H20.2973H21.2792H21.5023H21.7165H21.9218H22.1182H22.1628H22.3503H22.3949H22.5734H22.6359H22.7966H22.868H23.0197H23.109H23.2339H23.3321H23.4481H23.5731H23.6534H23.7873H23.8676L24.0194 15.6151H24.0908V20.0161C24.083 20.2047 24.0251 20.3879 23.923 20.5462C23.8209 20.7045 23.6785 20.8323 23.5106 20.9161L12.3176 26.7751C12.1758 26.8402 12.0203 26.8693 11.8647 26.8599C11.7091 26.8505 11.5582 26.8028 11.425 26.7211L0.187436 20.8081C-0.223152 20.5831 -0.223145 20.2141 -0.223145 19.7191V7.41606C-0.16504 7.26143 -0.0730533 7.12203 0.045954 7.00827C0.164961 6.89451 0.307906 6.80934 0.464134 6.75907Z" fill="#1F5DA0"/>
<path id="Vector_4" fill-rule="evenodd" clip-rule="evenodd" d="M9.21135 20.7901C9.13102 20.8621 8.93463 20.9701 8.80075 20.8981C8.73514 20.8589 8.68033 20.8038 8.64134 20.7378C8.60235 20.6717 8.58043 20.5969 8.5776 20.52C8.5776 20.214 8.92571 20.457 8.97034 20.268C9.01497 20.079 8.80077 19.935 8.71151 19.791C8.62591 19.66 8.57941 19.507 8.5776 19.3501C8.57366 19.2674 8.59552 19.1855 8.64009 19.116C8.664 19.0848 8.69536 19.0602 8.73126 19.0444C8.76715 19.0287 8.80642 19.0224 8.84539 19.0261C8.97471 19.036 9.09997 19.0761 9.21135 19.143C9.34027 19.2154 9.46013 19.303 9.56838 19.4041C9.65403 19.4966 9.72346 19.6031 9.77368 19.7191C9.81755 19.8184 9.84179 19.9254 9.84508 20.0341C9.85214 20.0899 9.84329 20.1467 9.81958 20.1977C9.79588 20.2486 9.7583 20.2918 9.7112 20.322C9.61301 20.367 9.41664 20.322 9.45234 20.52C9.48804 20.718 9.84508 20.898 9.84508 21.195C9.84508 21.339 9.7469 21.4021 9.62193 21.3301C9.4457 21.1843 9.3052 20.9995 9.21135 20.7901ZM9.39879 19.8901C9.4117 19.8841 9.42318 19.8754 9.43243 19.8645C9.44167 19.8536 9.44847 19.8408 9.45234 19.8271V19.8001C9.45234 19.5121 8.96143 19.2421 8.96143 19.5391C8.96816 19.5835 8.9833 19.6263 9.00605 19.6651C9.00605 19.7281 9.15779 19.8901 9.20242 19.9441C9.26891 19.9461 9.33528 19.937 9.39879 19.9171V19.8901Z" fill="white"/>
<path id="Vector_5" fill-rule="evenodd" clip-rule="evenodd" d="M7.61353 20.2051L7.68492 20.2501H7.72957V20.2951C7.73433 20.3097 7.73433 20.3255 7.72957 20.3401C7.72957 20.3401 7.72957 20.3401 7.72957 20.4031C7.73043 20.4181 7.73043 20.4331 7.72957 20.4481H7.66708H7.58675V20.2051H7.61353ZM7.65814 20.2681V20.4301V20.3401V20.2681ZM7.29221 20.2681V20.0701H7.23863L7.39038 20.1511V20.1961H7.33683V20.4031H7.29221V20.2681ZM6.90838 20.0611V19.8001V19.9981L7.00658 20.0521L6.87269 19.9801L6.90838 20.0611ZM6.25681 19.7101V19.4761L6.39963 19.5481L6.29249 19.4851V19.5391L6.39069 19.5931V19.6381L6.29249 19.5841V19.647L6.39963 19.7101L6.25681 19.6291V19.7101ZM5.89085 19.5211V19.2781V19.4761L5.98902 19.5301L5.85514 19.4581L5.89085 19.5211ZM5.5606 19.3411V19.2421L5.48918 19.0621H5.53382C5.55109 19.1001 5.56598 19.1392 5.57844 19.1791L5.63199 19.1161H5.67661L5.60522 19.2151V19.3231L5.5606 19.3411ZM5.19464 19.1431V18.9451H5.13215L5.29281 19.0261V19.0711H5.23032V19.2781L5.19464 19.1431ZM4.75725 18.8371C4.74016 18.8245 4.72512 18.8093 4.71263 18.7921C4.70583 18.7716 4.70583 18.7495 4.71263 18.7291H4.77512C4.77512 18.7291 4.81975 18.7291 4.82867 18.7831C4.83396 18.8037 4.83396 18.8254 4.82867 18.8461C4.80658 18.8329 4.78816 18.8143 4.77512 18.7921C4.76616 18.7689 4.76616 18.7432 4.77512 18.7201L4.75725 18.8371ZM4.39132 18.7201V18.4771L4.53411 18.5581L4.427 18.5041V18.5581V18.6301L4.53411 18.6841L4.39132 18.6031V18.7201ZM4.02535 18.522V18.2881L4.15924 18.3601L4.06997 18.3061V18.3691V18.4771H4.02535V18.522ZM3.75756 18.3781V18.1351V18.3691V18.3781ZM3.3916 18.1891V18.0001H3.43625V18.1981L3.53442 18.2431V18.2881L3.3916 18.1891Z" fill="white"/>
<path id="Vector_6" fill-rule="evenodd" clip-rule="evenodd" d="M7.05127 18.783L6.69425 18.558C6.70465 18.5033 6.72591 18.4513 6.75673 18.405C6.78521 18.3752 6.82303 18.3561 6.86384 18.3511H6.99772L7.19409 18.432L7.46185 18.594C7.52465 18.6484 7.57885 18.7121 7.62254 18.783C7.66147 18.8367 7.68883 18.8981 7.70287 18.963C7.71084 19.0228 7.71084 19.0833 7.70287 19.143V19.665C7.69778 19.7099 7.69778 19.7552 7.70287 19.8C7.69686 19.8448 7.69686 19.8902 7.70287 19.935L7.35475 19.755V19.674C7.35475 19.674 7.35475 19.629 7.35475 19.593C7.31118 19.6188 7.26232 19.6343 7.21193 19.638C7.12953 19.6289 7.05024 19.6012 6.97988 19.557C6.90829 19.5225 6.84447 19.4735 6.79242 19.413L6.32828 19.161C6.24795 18.954 6.17654 18.756 6.10514 18.549C6.08432 18.4937 6.06049 18.4397 6.03374 18.387C6.00778 18.3503 5.97429 18.3196 5.93555 18.297V18.954L5.56068 18.747L5.24827 18.585C5.24298 18.5583 5.24298 18.5308 5.24827 18.504C5.24827 18.504 5.24827 18.459 5.24827 18.423C5.2047 18.4489 5.15584 18.4642 5.10545 18.468C5.00539 18.4562 4.90926 18.4217 4.82426 18.3671C4.73926 18.3126 4.66759 18.2394 4.61454 18.1531C4.58069 18.0934 4.55371 18.0299 4.53418 17.964C4.51112 17.991 4.48225 18.0124 4.44977 18.0264C4.41729 18.0404 4.38205 18.0468 4.34675 18.045C4.23412 18.0342 4.12483 18.0005 4.02543 17.946C3.83973 17.852 3.68019 17.7128 3.56127 17.541C3.47902 17.3915 3.43027 17.2256 3.41846 17.055L3.80229 17.235C3.80824 17.3037 3.82638 17.3708 3.85584 17.433C3.89306 17.5164 3.95555 17.5857 4.03434 17.631C4.09682 17.631 4.14147 17.631 4.16825 17.631C4.19503 17.631 4.16825 17.586 4.16825 17.541C4.1814 17.497 4.1814 17.4501 4.16825 17.406C4.10954 17.3279 4.04045 17.2582 3.96295 17.199C3.81493 17.0885 3.68537 16.9548 3.57914 16.8031C3.50859 16.6927 3.46853 16.5653 3.4631 16.434C3.46348 16.3604 3.4852 16.2884 3.52559 16.227C3.54682 16.2002 3.57408 16.1789 3.60513 16.1648C3.63617 16.1507 3.67009 16.1443 3.70409 16.146C3.81943 16.1564 3.93016 16.1967 4.02543 16.263C4.17637 16.3358 4.30793 16.4438 4.40924 16.5781C4.50206 16.7107 4.55757 16.8662 4.5699 17.0281L4.18609 16.848C4.17614 16.7819 4.155 16.718 4.1236 16.659C4.08809 16.6082 4.04251 16.5652 3.98972 16.533C3.93617 16.533 3.90047 16.533 3.88262 16.533C3.87635 16.544 3.87306 16.5564 3.87306 16.569C3.87306 16.5817 3.87635 16.5941 3.88262 16.605C3.87493 16.6315 3.87493 16.6596 3.88262 16.686C3.91737 16.74 3.96298 16.786 4.0165 16.821C4.15331 16.9278 4.28163 17.0451 4.4003 17.172C4.47402 17.2464 4.53175 17.3352 4.5699 17.433C4.5962 17.5119 4.61415 17.5934 4.62345 17.6761C4.69317 17.6539 4.76796 17.6539 4.83769 17.6761L5.10545 17.748H5.2304C5.24068 17.7036 5.24068 17.6574 5.2304 17.613C5.20351 17.5796 5.1701 17.552 5.13223 17.532C5.08912 17.5154 5.04145 17.5154 4.99835 17.532C4.99835 17.532 4.95372 17.532 4.94479 17.604L4.58776 17.37C4.59782 17.318 4.61913 17.2688 4.65022 17.2261C4.67981 17.1977 4.7171 17.1789 4.75733 17.172C4.80113 17.1597 4.84744 17.1597 4.89124 17.172C4.96066 17.1923 5.0268 17.2226 5.08761 17.262C5.17988 17.3056 5.26673 17.36 5.34644 17.424C5.41586 17.4702 5.47387 17.5318 5.51603 17.604C5.55203 17.6584 5.57637 17.7197 5.58745 17.784C5.59493 17.8468 5.59493 17.9103 5.58745 17.973V18.486C5.58745 18.54 5.58745 18.585 5.58745 18.621V17.118L6.2658 17.487C6.37 17.535 6.46632 17.5988 6.55143 17.6761C6.62257 17.7421 6.68018 17.8216 6.72102 17.91C6.75759 18.0047 6.77577 18.1055 6.77457 18.207C6.79521 18.2745 6.79521 18.3466 6.77457 18.414C6.76121 18.4362 6.743 18.455 6.72135 18.4691C6.6997 18.4831 6.67519 18.492 6.64963 18.495C6.6029 18.5081 6.55354 18.5081 6.50681 18.495L6.61392 18.612L6.6764 18.729L6.72996 18.864L6.77457 18.972C6.77963 18.9283 6.79839 18.8873 6.82813 18.855C6.82813 18.855 6.95311 18.855 7.06914 18.855L7.33691 18.927H7.36368C7.37511 18.8858 7.37511 18.8423 7.36368 18.8011C7.3423 18.7605 7.30761 18.7286 7.26551 18.711C7.20303 18.711 7.15838 18.666 7.1316 18.711C7.11719 18.7173 7.10467 18.7272 7.09526 18.7398C7.08586 18.7524 7.07992 18.7673 7.07805 18.783H7.05127ZM5.159 18.018H5.00725C4.92692 18.018 4.88231 18.018 4.86446 18.018C4.84661 18.018 4.86446 18.018 4.86446 18.081C4.85203 18.1128 4.85203 18.1482 4.86446 18.18C4.88271 18.2177 4.91468 18.2467 4.9537 18.261C4.97059 18.2685 4.98882 18.2723 5.00725 18.2723C5.02568 18.2723 5.04394 18.2685 5.06083 18.261C5.07656 18.2595 5.09177 18.2546 5.10559 18.2469C5.1194 18.2392 5.13152 18.2287 5.14116 18.216C5.14754 18.1743 5.14754 18.1318 5.14116 18.09V18L5.159 18.018ZM5.94448 18.018L6.11407 18.108C6.14957 18.1135 6.18568 18.1135 6.22118 18.108C6.22118 18.108 6.27474 18.108 6.28367 18.108C6.29409 18.0821 6.29409 18.053 6.28367 18.027C6.29706 17.98 6.29706 17.9301 6.28367 17.883C6.24279 17.8304 6.19099 17.7874 6.13191 17.757L5.95341 17.667V18L5.94448 18.018ZM7.36368 19.188H7.21193C7.16521 19.175 7.11587 19.175 7.06914 19.188C7.06423 19.1994 7.06168 19.2116 7.06168 19.224C7.06168 19.2364 7.06423 19.2487 7.06914 19.26C7.06309 19.2928 7.06309 19.3263 7.06914 19.359C7.08739 19.3967 7.11936 19.4257 7.15838 19.44C7.19662 19.4483 7.23618 19.4483 7.27442 19.44C7.30333 19.4302 7.32837 19.4113 7.34584 19.386C7.35652 19.3478 7.35652 19.3073 7.34584 19.269L7.36368 19.188Z" fill="white"/>
<path id="Vector_7" fill-rule="evenodd" clip-rule="evenodd" d="M20.9487 7.43861e-05C23.0534 -0.0165004 25.0868 0.767654 26.6434 2.19608C27.387 2.85984 27.9823 3.67522 28.39 4.58827C28.7977 5.50132 29.0086 6.49125 29.0086 7.49259C29.0086 8.49392 28.7977 9.48385 28.39 10.3969C27.9823 11.31 27.387 12.1253 26.6434 12.7891C25.0782 14.2033 23.0504 14.9854 20.9487 14.9854C18.847 14.9854 16.8193 14.2033 15.2541 12.7891C14.513 12.1237 13.92 11.3079 13.5139 10.395C13.1079 9.48219 12.8979 8.49305 12.8979 7.49259C12.8979 6.49212 13.1079 5.50298 13.5139 4.59013C13.92 3.67729 14.513 2.8614 15.2541 2.19608C16.8106 0.767654 18.8441 -0.0165004 20.9487 7.43861e-05ZM25.8222 2.96108C24.4829 1.7505 22.7474 1.08102 20.9487 1.08102C19.15 1.08102 17.4146 1.7505 16.0752 2.96108C15.441 3.53017 14.9334 4.22817 14.5859 5.00918C14.2383 5.7902 14.0586 6.63654 14.0586 7.49259C14.0586 8.34863 14.2383 9.19497 14.5859 9.97599C14.9334 10.757 15.441 11.455 16.0752 12.0241C17.4146 13.2346 19.15 13.9041 20.9487 13.9041C22.7474 13.9041 24.4829 13.2346 25.8222 12.0241C26.4564 11.455 26.964 10.757 27.3116 9.97599C27.6592 9.19497 27.8389 8.34863 27.8389 7.49259C27.8389 6.63654 27.6592 5.7902 27.3116 5.00918C26.964 4.22817 26.4564 3.53017 25.8222 2.96108Z" fill="#1F5DA0"/>
</g>
<defs>
<clipPath id="clip0_992_26669">
<rect width="29" height="27" fill="white"/>
</clipPath>
</defs>
</svg>
