<svg width="650" height="120" viewBox="0 0 650 120" fill="none" xmlns="http://www.w3.org/2000/svg">
<rect x="1" y="1" width="648" height="118" rx="9" fill="white" stroke="url(#paint0_linear_3270_19567)" stroke-width="2" stroke-linejoin="round"/>
<path d="M62 30H60.0146C60.9433 27.3105 61.7363 26.0225 64.375 24.9229C64.8154 24.7393 65.0645 24.2706 64.9707 23.8028C64.877 23.3359 64.4668 23 63.9902 23H63.9882C58.4833 23.0098 55.3212 25.2168 53.079 30.6113C52.3633 32.3057 52 34.1191 52 36C52 38.8926 52.875 40.4678 54.209 42.541C54.3926 42.8271 54.71 43 55.0498 43H62C63.6543 43 65 41.6543 65 40V33C65 31.3457 63.6543 30 62 30ZM77 30H75.0146C75.9433 27.3105 76.7363 26.0225 79.375 24.9229C79.8154 24.7393 80.0645 24.2706 79.9707 23.8028C79.877 23.3359 79.4668 23 78.9902 23H78.9882C73.4833 23.0098 70.3212 25.2168 68.079 30.6113C67.3633 32.3057 67 34.1191 67 36C67 38.8926 67.875 40.4678 69.209 42.541C69.3926 42.8271 69.71 43 70.0498 43H77C78.6543 43 80 41.6543 80 40V33C80 31.3457 78.6543 30 77 30Z" fill="#1F5DA0"/>
<path d="M588 89L589.985 89C589.057 91.6895 588.264 92.9775 585.625 94.0771C585.185 94.2607 584.936 94.7294 585.029 95.1972C585.123 95.6641 585.533 96 586.01 96L586.012 96C591.517 95.9902 594.679 93.7832 596.921 88.3887C597.637 86.6943 598 84.8809 598 83C598 80.1074 597.125 78.5322 595.791 76.459C595.607 76.1729 595.29 76 594.95 76L588 76C586.346 76 585 77.3457 585 79L585 86C585 87.6543 586.346 89 588 89ZM573 89L574.985 89C574.057 91.6895 573.264 92.9775 570.625 94.0771C570.185 94.2607 569.936 94.7294 570.029 95.1972C570.123 95.6641 570.533 96 571.01 96L571.012 96C576.517 95.9902 579.679 93.7832 581.921 88.3887C582.637 86.6943 583 84.8809 583 83C583 80.1074 582.125 78.5322 580.791 76.459C580.607 76.1729 580.29 76 579.95 76L573 76C571.346 76 570 77.3457 570 79L570 86C570 87.6543 571.346 89 573 89Z" fill="#1F5DA0"/>
<path d="M91.646 50.58C93.3447 50.58 94.8093 50.9353 96.04 51.646C97.2707 52.3567 98.2153 53.3707 98.874 54.688C99.55 56.0053 99.888 57.5827 99.888 59.42C99.888 61.2573 99.55 62.8347 98.874 64.152C98.2153 65.4693 97.2707 66.4833 96.04 67.194C94.8093 67.9047 93.3447 68.26 91.646 68.26C89.9473 68.26 88.474 67.9047 87.226 67.194C85.9953 66.4833 85.042 65.4693 84.366 64.152C83.7073 62.8347 83.378 61.2573 83.378 59.42C83.378 57.5827 83.7073 56.0053 84.366 54.688C85.042 53.3707 85.9953 52.3567 87.226 51.646C88.474 50.9353 89.9473 50.58 91.646 50.58ZM91.646 53.518C90.6753 53.518 89.852 53.7433 89.176 54.194C88.5 54.6447 87.98 55.312 87.616 56.196C87.2693 57.0627 87.096 58.1373 87.096 59.42C87.096 60.6853 87.2693 61.76 87.616 62.644C87.98 63.528 88.5 64.1953 89.176 64.646C89.852 65.0967 90.6753 65.322 91.646 65.322C92.5993 65.322 93.414 65.0967 94.09 64.646C94.766 64.1953 95.2773 63.528 95.624 62.644C95.988 61.76 96.17 60.6853 96.17 59.42C96.17 58.1373 95.988 57.0627 95.624 56.196C95.2773 55.312 94.766 54.6447 94.09 54.194C93.414 53.7433 92.5993 53.518 91.646 53.518ZM117.833 50.84V61.24C117.833 63.58 117.209 65.3393 115.961 66.518C114.713 67.6793 112.893 68.26 110.501 68.26C108.109 68.26 106.289 67.6793 105.041 66.518C103.793 65.3393 103.169 63.58 103.169 61.24V50.84H106.757V61.084C106.757 62.5227 107.061 63.5887 107.667 64.282C108.291 64.9753 109.236 65.322 110.501 65.322C111.767 65.322 112.703 64.9753 113.309 64.282C113.916 63.5887 114.219 62.5227 114.219 61.084V50.84H117.833ZM129.532 50.84C131.474 50.84 132.999 51.308 134.108 52.244C135.218 53.18 135.772 54.4367 135.772 56.014C135.772 57.6953 135.218 58.9867 134.108 59.888C132.999 60.772 131.482 61.214 129.558 61.214L129.194 61.422H125.502V68H121.966V50.84H129.532ZM129.116 58.692C130.122 58.692 130.867 58.4927 131.352 58.094C131.855 57.678 132.106 57.0453 132.106 56.196C132.106 55.3467 131.855 54.7227 131.352 54.324C130.867 53.908 130.122 53.7 129.116 53.7H125.502V58.692H129.116ZM131.222 59.446L136.786 68H132.756L128.154 60.486L131.222 59.446ZM153.852 50.58C155.412 50.58 156.781 50.8487 157.96 51.386C159.138 51.9233 160.144 52.7207 160.976 53.778L158.974 56.092C158.263 55.1907 157.483 54.532 156.634 54.116C155.802 53.6827 154.831 53.466 153.722 53.466C152.994 53.466 152.387 53.5613 151.902 53.752C151.434 53.9427 151.087 54.194 150.862 54.506C150.654 54.818 150.55 55.1647 150.55 55.546C150.55 56.014 150.732 56.4127 151.096 56.742C151.46 57.054 152.084 57.314 152.968 57.522L156.166 58.25C157.864 58.6313 159.078 59.2033 159.806 59.966C160.551 60.7113 160.924 61.682 160.924 62.878C160.924 64.0047 160.629 64.9753 160.04 65.79C159.45 66.5873 158.627 67.2027 157.57 67.636C156.512 68.052 155.299 68.26 153.93 68.26C152.734 68.26 151.633 68.1213 150.628 67.844C149.64 67.5493 148.756 67.1507 147.976 66.648C147.196 66.1453 146.546 65.5647 146.026 64.906L148.054 62.488C148.452 63.0427 148.946 63.5367 149.536 63.97C150.125 64.4033 150.792 64.75 151.538 65.01C152.3 65.2527 153.098 65.374 153.93 65.374C154.64 65.374 155.238 65.296 155.724 65.14C156.226 64.9667 156.599 64.7327 156.842 64.438C157.102 64.126 157.232 63.7533 157.232 63.32C157.232 62.8693 157.076 62.488 156.764 62.176C156.469 61.8467 155.914 61.5953 155.1 61.422L151.616 60.642C150.61 60.3993 149.744 60.0873 149.016 59.706C148.305 59.3073 147.759 58.8047 147.378 58.198C147.014 57.574 146.832 56.8373 146.832 55.988C146.832 54.9653 147.109 54.0467 147.664 53.232C148.218 52.4173 149.016 51.776 150.056 51.308C151.113 50.8227 152.378 50.58 153.852 50.58ZM164.318 68V50.84H177.188V53.726H167.906V57.99H175.212V60.746H167.906V65.114H177.552V68H164.318ZM195.513 50.84V68H191.405L185.399 57.912L183.917 55.104H183.891L183.995 58.068V68H180.771V50.84H184.853L190.859 60.902L192.341 63.736H192.393L192.289 60.772V50.84H195.513ZM206.258 50.58C207.818 50.58 209.187 50.8487 210.366 51.386C211.545 51.9233 212.55 52.7207 213.382 53.778L211.38 56.092C210.669 55.1907 209.889 54.532 209.04 54.116C208.208 53.6827 207.237 53.466 206.128 53.466C205.4 53.466 204.793 53.5613 204.308 53.752C203.84 53.9427 203.493 54.194 203.268 54.506C203.06 54.818 202.956 55.1647 202.956 55.546C202.956 56.014 203.138 56.4127 203.502 56.742C203.866 57.054 204.49 57.314 205.374 57.522L208.572 58.25C210.271 58.6313 211.484 59.2033 212.212 59.966C212.957 60.7113 213.33 61.682 213.33 62.878C213.33 64.0047 213.035 64.9753 212.446 65.79C211.857 66.5873 211.033 67.2027 209.976 67.636C208.919 68.052 207.705 68.26 206.336 68.26C205.14 68.26 204.039 68.1213 203.034 67.844C202.046 67.5493 201.162 67.1507 200.382 66.648C199.602 66.1453 198.952 65.5647 198.432 64.906L200.46 62.488C200.859 63.0427 201.353 63.5367 201.942 63.97C202.531 64.4033 203.199 64.75 203.944 65.01C204.707 65.2527 205.504 65.374 206.336 65.374C207.047 65.374 207.645 65.296 208.13 65.14C208.633 64.9667 209.005 64.7327 209.248 64.438C209.508 64.126 209.638 63.7533 209.638 63.32C209.638 62.8693 209.482 62.488 209.17 62.176C208.875 61.8467 208.321 61.5953 207.506 61.422L204.022 60.642C203.017 60.3993 202.15 60.0873 201.422 59.706C200.711 59.3073 200.165 58.8047 199.784 58.198C199.42 57.574 199.238 56.8373 199.238 55.988C199.238 54.9653 199.515 54.0467 200.07 53.232C200.625 52.4173 201.422 51.776 202.462 51.308C203.519 50.8227 204.785 50.58 206.258 50.58ZM216.724 68V50.84H229.594V53.726H220.312V57.99H227.618V60.746H220.312V65.114H229.958V68H216.724ZM250.251 59.576V62.644H241.073V59.576H250.251ZM262.631 68V50.84H270.145C272.225 50.84 273.759 51.2473 274.747 52.062C275.735 52.8767 276.229 54.0293 276.229 55.52C276.229 56.4387 275.951 57.2533 275.397 57.964C274.842 58.6747 274.027 59.1253 272.953 59.316V59.342C274.149 59.5153 275.067 59.966 275.709 60.694C276.35 61.422 276.671 62.2887 276.671 63.294C276.671 64.7673 276.133 65.92 275.059 66.752C274.001 67.584 272.45 68 270.405 68H262.631ZM266.115 65.296H270.093C271.063 65.296 271.783 65.0967 272.251 64.698C272.719 64.2993 272.953 63.7447 272.953 63.034C272.953 62.306 272.719 61.7513 272.251 61.37C271.783 60.9887 271.063 60.798 270.093 60.798H266.115V65.296ZM266.115 58.042H269.677C271.566 58.042 272.511 57.3053 272.511 55.832C272.511 54.3587 271.566 53.622 269.677 53.622H266.115V58.042ZM280.099 68V50.84H292.969V53.726H283.687V57.99H290.993V60.746H283.687V65.114H293.333V68H280.099ZM319.242 50.84V68H315.654V50.84H319.242ZM308.088 50.84V68H304.5V50.84H308.088ZM317.526 57.886V60.772H306.294V57.886H317.526ZM338.618 68H334.9L333.47 63.814H326.892L325.462 68H321.796L328.062 50.84H332.352L338.618 68ZM327.698 61.162H332.664L330.168 53.674L327.698 61.162ZM348.366 50.84C349.683 50.84 350.81 51.0653 351.746 51.516C352.682 51.9493 353.401 52.582 353.904 53.414C354.424 54.2287 354.684 55.2167 354.684 56.378C354.684 57.5393 354.424 58.536 353.904 59.368C353.401 60.1827 352.682 60.8153 351.746 61.266C350.81 61.6993 349.683 61.916 348.366 61.916H344.752V68H341.164V50.84H348.366ZM347.82 59.082C348.894 59.082 349.7 58.8567 350.238 58.406C350.775 57.938 351.044 57.262 351.044 56.378C351.044 55.4767 350.775 54.8007 350.238 54.35C349.7 53.8993 348.894 53.674 347.82 53.674H344.752V59.082H347.82ZM365.174 50.84C366.492 50.84 367.618 51.0653 368.554 51.516C369.49 51.9493 370.21 52.582 370.712 53.414C371.232 54.2287 371.492 55.2167 371.492 56.378C371.492 57.5393 371.232 58.536 370.712 59.368C370.21 60.1827 369.49 60.8153 368.554 61.266C367.618 61.6993 366.492 61.916 365.174 61.916H361.56V68H357.972V50.84H365.174ZM364.628 59.082C365.703 59.082 366.509 58.8567 367.046 58.406C367.584 57.938 367.852 57.262 367.852 56.378C367.852 55.4767 367.584 54.8007 367.046 54.35C366.509 53.8993 365.703 53.674 364.628 53.674H361.56V59.082H364.628ZM387.774 50.84L381.69 61.578V68H378.102V61.578L372.018 50.84H375.84L378.596 55.988L379.896 58.666L381.222 55.988L383.978 50.84H387.774ZM387.915 64.022C388.469 64.022 388.929 64.1607 389.293 64.438C389.657 64.698 389.934 65.0533 390.125 65.504C390.315 65.9373 390.411 66.4227 390.411 66.96C390.411 67.6707 390.263 68.3553 389.969 69.014C389.691 69.6727 389.301 70.262 388.799 70.782C388.296 71.302 387.724 71.7093 387.083 72.004L385.549 70.782C386.017 70.5913 386.441 70.3573 386.823 70.08C387.221 69.8027 387.559 69.4907 387.837 69.144C388.114 68.7973 388.313 68.442 388.435 68.078L388.305 68C388.218 68.052 388.114 68.0953 387.993 68.13C387.871 68.182 387.698 68.208 387.473 68.208C387.195 68.208 386.918 68.1387 386.641 68C386.363 67.844 386.129 67.6273 385.939 67.35C385.748 67.0553 385.653 66.6913 385.653 66.258C385.653 65.79 385.757 65.3913 385.965 65.062C386.173 64.7327 386.45 64.4813 386.797 64.308C387.143 64.1173 387.516 64.022 387.915 64.022ZM420.465 50.84V68H417.215V59.056L417.397 54.038H417.345L412.587 68H409.649L404.917 54.038H404.865L405.047 59.056V68H401.797V50.84H406.997L410.091 60.2L411.183 64.074H411.235L412.353 60.226L415.421 50.84H420.465ZM439.825 68H436.107L434.677 63.814H428.099L426.669 68H423.003L429.269 50.84H433.559L439.825 68ZM428.905 61.162H433.871L431.375 53.674L428.905 61.162ZM457.165 50.84L449.313 59.758L449.027 59.472L444.737 64.334L444.191 61.006L453.005 50.84H457.165ZM445.959 50.84V68H442.371V50.84H445.959ZM450.301 56.768L457.373 68H453.265L447.545 58.77L450.301 56.768ZM460.017 68V50.84H472.887V53.726H463.605V57.99H470.911V60.746H463.605V65.114H473.251V68H460.017ZM499.16 50.84V68H495.572V50.84H499.16ZM488.006 50.84V68H484.418V50.84H488.006ZM497.444 57.886V60.772H486.212V57.886H497.444ZM518.536 68H514.818L513.388 63.814H506.81L505.38 68H501.714L507.98 50.84H512.27L518.536 68ZM507.616 61.162H512.582L510.086 53.674L507.616 61.162ZM528.284 50.84C529.601 50.84 530.728 51.0653 531.664 51.516C532.6 51.9493 533.319 52.582 533.822 53.414C534.342 54.2287 534.602 55.2167 534.602 56.378C534.602 57.5393 534.342 58.536 533.822 59.368C533.319 60.1827 532.6 60.8153 531.664 61.266C530.728 61.6993 529.601 61.916 528.284 61.916H524.67V68H521.082V50.84H528.284ZM527.738 59.082C528.812 59.082 529.618 58.8567 530.156 58.406C530.693 57.938 530.962 57.262 530.962 56.378C530.962 55.4767 530.693 54.8007 530.156 54.35C529.618 53.8993 528.812 53.674 527.738 53.674H524.67V59.082H527.738ZM545.092 50.84C546.41 50.84 547.536 51.0653 548.472 51.516C549.408 51.9493 550.128 52.582 550.63 53.414C551.15 54.2287 551.41 55.2167 551.41 56.378C551.41 57.5393 551.15 58.536 550.63 59.368C550.128 60.1827 549.408 60.8153 548.472 61.266C547.536 61.6993 546.41 61.916 545.092 61.916H541.478V68H537.89V50.84H545.092ZM544.546 59.082C545.621 59.082 546.427 58.8567 546.964 58.406C547.502 57.938 547.77 57.262 547.77 56.378C547.77 55.4767 547.502 54.8007 546.964 54.35C546.427 53.8993 545.621 53.674 544.546 53.674H541.478V59.082H544.546ZM567.692 50.84L561.608 61.578V68H558.02V61.578L551.936 50.84H555.758L558.514 55.988L559.814 58.666L561.14 55.988L563.896 50.84H567.692Z" fill="#282628"/>
<defs>
<linearGradient id="paint0_linear_3270_19567" x1="183.253" y1="-8.07272" x2="218.822" y2="181.067" gradientUnits="userSpaceOnUse">
<stop stop-color="#1F5DA0"/>
<stop offset="0.435" stop-color="#921B95"/>
<stop offset="0.727471" stop-color="#5261AD"/>
</linearGradient>
</defs>
</svg>
