<svg width="37" height="20" viewBox="0 0 37 20" fill="none" xmlns="http://www.w3.org/2000/svg">
<g id="Delivery 1" clip-path="url(#clip0_992_26682)">
<path id="Vector" fill-rule="evenodd" clip-rule="evenodd" d="M27.9799 16.2721H25.4647C25.4395 16.9993 25.213 17.706 24.8095 18.3161C24.4896 18.7942 24.0617 19.1931 23.559 19.4818C23.0564 19.7704 22.4926 19.941 21.9118 19.9801C21.389 20.0277 20.8619 19.9669 20.3645 19.8017C19.8671 19.6365 19.4106 19.3706 19.0243 19.0211C18.638 18.6717 18.3307 18.2464 18.1221 17.7729C17.9135 17.2993 17.8084 16.788 17.8135 16.2721H10.1663C10.1687 16.9691 9.97203 17.6528 9.59863 18.2453C9.22522 18.8379 8.69008 19.3156 8.05412 19.6241C7.47004 19.8951 6.82641 20.0187 6.18149 19.9835C5.53657 19.9484 4.91076 19.7556 4.36075 19.4228C3.81074 19.09 3.35392 18.6275 3.03164 18.0773C2.70937 17.5272 2.53184 16.9067 2.51513 16.2721H0V10.0441C0.114851 9.81007 0.262827 9.59326 0.439533 9.40006C1.08663 8.54806 3.15816 5.74406 3.69537 5.12806C3.7727 5.04006 3.732 4.99606 3.88665 4.99606H7.60238V6.10352e-05H27.9839V1.36807H18.8798C18.4664 1.36807 18.0699 1.52947 17.7776 1.81677C17.4853 2.10408 17.3211 2.49375 17.3211 2.90006C17.3211 3.30637 17.4853 3.69604 17.7776 3.98335C18.0699 4.27066 18.4664 4.43206 18.8798 4.43206H27.9799V4.76006H22.5996C22.1862 4.76006 21.7897 4.92147 21.4974 5.20878C21.2051 5.49608 21.0408 5.88575 21.0408 6.29207C21.0408 6.69838 21.2051 7.08805 21.4974 7.37535C21.7897 7.66266 22.1862 7.82406 22.5996 7.82406H27.9799V16.2721ZM21.6147 14.3761C21.2362 14.3753 20.866 14.4849 20.5509 14.691C20.2358 14.897 19.99 15.1904 19.8446 15.5338C19.6992 15.8773 19.6607 16.2554 19.7341 16.6204C19.8074 16.9853 19.9893 17.3207 20.2566 17.584C20.524 17.8473 20.8648 18.0268 21.236 18.0996C21.6071 18.1725 21.9919 18.1355 22.3417 17.9933C22.6914 17.8512 22.9904 17.6102 23.2008 17.301C23.4111 16.9917 23.5234 16.6281 23.5234 16.2561C23.524 16.0094 23.475 15.765 23.3793 15.5369C23.2836 15.3088 23.1431 15.1016 22.9658 14.9269C22.7885 14.7523 22.5779 14.6138 22.3461 14.5193C22.1142 14.4247 21.8657 14.3761 21.6147 14.3761ZM6.36516 14.3761C5.98684 14.3761 5.61702 14.4863 5.30246 14.6929C4.9879 14.8995 4.74273 15.1931 4.59796 15.5366C4.45318 15.8801 4.4153 16.2581 4.48911 16.6228C4.56292 16.9875 4.74509 17.3225 5.0126 17.5854C5.28011 17.8483 5.62094 18.0274 5.99198 18.0999C6.36303 18.1725 6.74764 18.1353 7.09716 17.993C7.44668 17.8507 7.74542 17.6097 7.9556 17.3005C8.16579 16.9914 8.27797 16.6279 8.27797 16.2561C8.2785 16.009 8.2294 15.7643 8.13346 15.536C8.03752 15.3077 7.89664 15.1002 7.71891 14.9255C7.54119 14.7508 7.3301 14.6124 7.09779 14.5181C6.86547 14.4238 6.6165 14.3755 6.36516 14.3761ZM7.63087 6.85607H4.47678L1.99012 10.0001H7.63087V6.85607Z" fill="#1F5DA0"/>
<path id="Vector_2" fill-rule="evenodd" clip-rule="evenodd" d="M22.9371 11.7961C22.7825 11.9801 22.404 12.3401 22.1232 12.3401C22.0044 12.3401 21.8906 12.2937 21.8066 12.2112C21.7227 12.1287 21.6755 12.0168 21.6755 11.9001C21.6755 11.3921 22.3674 11.4801 22.4528 11.1241C22.522 10.8361 22.1232 10.7241 21.94 10.5481C21.8544 10.4711 21.7865 10.3771 21.7409 10.2722C21.6952 10.1673 21.6729 10.0541 21.6755 9.94007C21.6753 9.77737 21.7219 9.61792 21.8098 9.48008C21.9084 9.32882 22.0499 9.20923 22.2168 9.13607C22.6735 8.97617 23.1723 8.97617 23.629 9.13607C23.7959 9.20923 23.9374 9.32882 24.036 9.48008C24.1239 9.61792 24.1705 9.77737 24.1703 9.94007C24.1728 10.0541 24.1505 10.1673 24.1049 10.2722C24.0593 10.3771 23.9914 10.4711 23.9057 10.5481C23.7226 10.7161 23.3238 10.8361 23.3929 11.1241C23.4784 11.4801 24.1703 11.3921 24.1703 11.9001C24.1703 12.0168 24.1231 12.1287 24.0392 12.2112C23.9552 12.2937 23.8413 12.3401 23.7226 12.3401C23.4581 12.3401 23.0796 11.9801 22.9086 11.7961H22.9371ZM23.3116 10.1521C23.3638 10.1107 23.3998 10.0527 23.4133 9.98807C23.4153 9.96545 23.4153 9.94269 23.4133 9.92007C23.4133 9.43607 22.4488 9.41207 22.4488 9.92007C22.4468 9.94269 22.4468 9.96545 22.4488 9.98807C22.4655 10.0514 22.5009 10.1085 22.5505 10.1521C22.6697 10.2619 22.7976 10.3622 22.9331 10.4521C23.068 10.3633 23.1947 10.2629 23.3116 10.1521Z" fill="white"/>
<path id="Vector_3" fill-rule="evenodd" clip-rule="evenodd" d="M19.8118 12.244H19.9543H20.0275C20.0515 12.2511 20.0727 12.2651 20.0886 12.2841C20.1054 12.3025 20.1179 12.3243 20.1252 12.3481C20.1297 12.3799 20.1297 12.4122 20.1252 12.444C20.13 12.4732 20.13 12.5029 20.1252 12.532C20.1167 12.5585 20.1028 12.583 20.0845 12.6041C20.0675 12.6179 20.0483 12.6287 20.0275 12.6361H19.9583H19.8118V12.2361V12.244ZM19.8892 12.3161V12.5841H19.995H20.0275C20.0382 12.573 20.0453 12.5591 20.0479 12.544C20.0505 12.5188 20.0505 12.4933 20.0479 12.4681C20.0506 12.4441 20.0506 12.42 20.0479 12.3961C20.0437 12.3807 20.0353 12.3669 20.0235 12.3561C20.0129 12.3524 20.0014 12.3524 19.9909 12.3561H19.8892V12.3161ZM19.181 12.6521V12.3161H19.063V12.244H19.3723V12.3161H19.2583V12.6521H19.181ZM18.4159 12.6521V12.2521H18.4932V12.5881H18.6886V12.6561L18.4159 12.6521ZM17.1258 12.6521V12.2521H17.4147V12.3241H17.2072V12.4001H17.4025V12.4681H17.2072V12.5801H17.4229V12.6481L17.1258 12.6521ZM16.4095 12.6521V12.2521H16.4909V12.5881H16.6862V12.6561L16.4095 12.6521ZM15.7624 12.6521V12.4801L15.6199 12.244H15.7135L15.8031 12.4081L15.8926 12.244H15.9822L15.8397 12.4841V12.6521H15.7624ZM15.0298 12.6521V12.3161H14.9281V12.244H15.2374V12.3161H15.1234V12.6521H15.0298ZM14.1711 12.5201H14.2484C14.2488 12.5314 14.2515 12.5426 14.2564 12.5529C14.2613 12.5632 14.2683 12.5725 14.2769 12.5801C14.2929 12.5931 14.3131 12.6002 14.3339 12.6002C14.3547 12.6002 14.3748 12.5931 14.3909 12.5801C14.3968 12.5759 14.4016 12.5705 14.4052 12.5643C14.4087 12.5581 14.4108 12.5512 14.4112 12.544C14.4136 12.5349 14.4136 12.5252 14.4112 12.5161H14.3827H14.3176C14.2864 12.5094 14.2571 12.4957 14.2321 12.4761C14.2206 12.4652 14.2114 12.4522 14.2051 12.4378C14.1988 12.4233 14.1955 12.4078 14.1955 12.3921C14.1896 12.3738 14.1896 12.3543 14.1955 12.3361C14.2077 12.3175 14.2245 12.3023 14.2444 12.2921C14.2699 12.2872 14.2961 12.2872 14.3217 12.2921C14.361 12.2896 14.3999 12.301 14.4316 12.3241C14.444 12.336 14.4536 12.3503 14.46 12.3662C14.4663 12.382 14.4691 12.399 14.4682 12.4161H14.3909C14.3912 12.4071 14.3895 12.3983 14.3856 12.3902C14.3818 12.3821 14.3761 12.375 14.3689 12.3695C14.3617 12.364 14.3533 12.3603 14.3444 12.3587C14.3355 12.357 14.3263 12.3575 14.3176 12.3601C14.3003 12.3555 14.282 12.3555 14.2647 12.3601C14.2628 12.3645 14.2618 12.3692 14.2618 12.3741C14.2618 12.3789 14.2628 12.3836 14.2647 12.3881C14.2619 12.3958 14.2619 12.4043 14.2647 12.4121L14.338 12.4401C14.3677 12.4451 14.3966 12.4545 14.4234 12.4681C14.4399 12.4782 14.4538 12.4919 14.4641 12.5081C14.4706 12.5303 14.4706 12.5538 14.4641 12.5761C14.4696 12.597 14.4696 12.6191 14.4641 12.6401C14.4507 12.659 14.4325 12.6742 14.4112 12.6841C14.3831 12.6905 14.3539 12.6905 14.3257 12.6841C14.2844 12.6871 14.2435 12.6742 14.2118 12.6481C14.1836 12.6201 14.1663 12.5833 14.163 12.544L14.1711 12.5201ZM13.4426 12.6521V12.2521H13.7316V12.3241H13.5199V12.4001H13.7071V12.4681H13.5118V12.5801H13.7316V12.6481L13.4426 12.6521ZM12.7263 12.6521V12.2521H12.9909V12.3241H12.8036V12.4001H12.9664V12.4681H12.8036V12.6401L12.7263 12.6521ZM12.185 12.6521V12.2521H12.2624V12.6521H12.185ZM11.4688 12.6521V12.2521H11.5502V12.5881H11.7455V12.6561L11.4688 12.6521Z" fill="white"/>
<path id="Vector_4" fill-rule="evenodd" clip-rule="evenodd" d="M18.6926 10.3561L17.9967 10.2801C18.0159 10.1741 18.0545 10.0725 18.1107 9.98007C18.1661 9.90271 18.2384 9.83849 18.3223 9.79207C18.4084 9.74665 18.5022 9.71684 18.599 9.70407C18.7237 9.68048 18.8506 9.66975 18.9775 9.67207C19.1519 9.66895 19.3262 9.681 19.4985 9.70806C19.6215 9.72981 19.7358 9.78528 19.8281 9.86807C19.8952 9.93427 19.9454 10.0151 19.9746 10.1041C20.0089 10.1978 20.0268 10.2965 20.0275 10.3961V11.2721C20.0219 11.344 20.0219 11.4162 20.0275 11.4881C20.0459 11.5586 20.0718 11.6269 20.1049 11.6921H19.4211C19.3967 11.6401 19.3764 11.6001 19.3682 11.5761C19.3575 11.5339 19.3493 11.4912 19.3438 11.4481C19.2648 11.5336 19.1694 11.6029 19.063 11.6521C18.9213 11.7102 18.7688 11.7388 18.6153 11.7361C18.4853 11.7402 18.3559 11.7156 18.2368 11.6641V11.6921H17.37L16.9386 10.8561C16.9063 10.7768 16.8562 10.7057 16.792 10.6481C16.7364 10.6051 16.6674 10.5825 16.5967 10.5841H16.5235V11.6921H15.1031C15.0822 11.6549 15.0645 11.6161 15.0502 11.5761C15.0502 11.5481 15.0502 11.5041 15.0217 11.4481C14.9427 11.5336 14.8473 11.6029 14.7409 11.6521C14.5993 11.7105 14.4468 11.7391 14.2932 11.7361C14.1071 11.7487 13.9233 11.6899 13.7804 11.5721C13.7031 11.5022 13.648 11.4119 13.6217 11.3121C13.5291 11.4485 13.3993 11.5566 13.2473 11.6241C13.049 11.7054 12.8352 11.7436 12.6205 11.7361C12.4561 11.7553 12.2894 11.7415 12.1306 11.6954C11.9717 11.6493 11.8241 11.572 11.6967 11.4681C11.521 11.2825 11.4185 11.0413 11.4077 10.7881L12.1728 10.7401C12.1822 10.8453 12.2171 10.9468 12.2746 11.0361C12.3152 11.091 12.3694 11.135 12.432 11.1637C12.4947 11.1923 12.5638 11.2049 12.6327 11.2001C12.7286 11.2065 12.8233 11.1764 12.8973 11.1161C12.9263 11.0919 12.9497 11.0619 12.9658 11.0281C12.982 10.9943 12.9905 10.9574 12.9909 10.9201C12.9906 10.8842 12.9825 10.8489 12.9671 10.8164C12.9516 10.784 12.9292 10.7552 12.9013 10.7321C12.7794 10.6497 12.6404 10.5951 12.4943 10.5721C12.2178 10.5251 11.9576 10.411 11.7374 10.2401C11.6624 10.1747 11.6031 10.0937 11.5637 10.0032C11.5243 9.91256 11.5058 9.81453 11.5095 9.71607C11.508 9.57481 11.5476 9.43607 11.6234 9.31607C11.7073 9.1837 11.8311 9.08025 11.9775 9.02006C12.1802 8.93962 12.3981 8.9028 12.6164 8.91207C12.8864 8.89368 13.1551 8.96251 13.3816 9.10806C13.475 9.1841 13.5512 9.27857 13.6052 9.38537C13.6592 9.49217 13.6898 9.60893 13.6949 9.72807L12.9339 9.77207C12.9232 9.67145 12.8789 9.57718 12.8077 9.50407C12.7312 9.44552 12.636 9.41572 12.5391 9.42006C12.4628 9.41337 12.3868 9.43635 12.3275 9.48406C12.3043 9.50228 12.2857 9.52543 12.273 9.55177C12.2603 9.5781 12.2539 9.60693 12.2542 9.63607C12.255 9.65865 12.2609 9.68077 12.2714 9.70084C12.282 9.7209 12.297 9.73841 12.3153 9.75207C12.3958 9.80526 12.4877 9.83948 12.5839 9.85207C12.8452 9.90136 13.0995 9.98197 13.3409 10.0921C13.4793 10.1602 13.595 10.2656 13.6746 10.3961C13.7377 10.5048 13.7726 10.627 13.7763 10.7521C13.896 10.6634 14.0356 10.6044 14.1833 10.5801L14.7124 10.4601C14.7938 10.4361 14.8793 10.4041 14.9688 10.3681C14.9767 10.2985 14.9578 10.2286 14.9159 10.1721C14.8606 10.1293 14.7906 10.1093 14.7205 10.1161C14.627 10.1101 14.5337 10.1309 14.4519 10.1761C14.3972 10.2218 14.3587 10.2834 14.342 10.3521L13.6502 10.2761C13.6659 10.1698 13.7033 10.0678 13.7601 9.97607C13.8171 9.89862 13.8907 9.83444 13.9758 9.78807C14.0606 9.74309 14.1529 9.7133 14.2484 9.70007C14.3732 9.67682 14.5 9.6661 14.6269 9.66807C14.8027 9.66514 14.9783 9.67718 15.1519 9.70407C15.2743 9.72758 15.3882 9.78282 15.4816 9.86407C15.5488 9.92948 15.5978 10.0107 15.624 10.1001C15.6594 10.1936 15.6787 10.2923 15.681 10.3921V11.2681C15.6733 11.3399 15.6733 11.4123 15.681 11.4841V8.94007H17.024C17.2177 8.93314 17.4114 8.95608 17.5979 9.00806C17.729 9.05333 17.8409 9.1407 17.9153 9.25607C17.9986 9.38799 18.041 9.54086 18.0374 9.69606C18.0421 9.83513 18.0099 9.973 17.9438 10.0961C17.8842 10.205 17.7974 10.2973 17.6915 10.3641C17.6031 10.415 17.5069 10.4515 17.4066 10.4721C17.4818 10.4948 17.5531 10.5286 17.6182 10.5721C17.6653 10.6156 17.7076 10.6638 17.7444 10.7161C17.7876 10.7685 17.8258 10.8247 17.8583 10.8841L17.9357 11.0361C17.949 10.9421 17.9884 10.8535 18.0496 10.7801C18.1782 10.6615 18.3424 10.5871 18.5177 10.5681L19.0467 10.4481C19.1281 10.4241 19.2136 10.3921 19.3031 10.3561C19.3075 10.3213 19.3048 10.286 19.295 10.2524C19.2852 10.2187 19.2686 10.1873 19.2461 10.1601C19.2196 10.1388 19.189 10.123 19.1562 10.1133C19.1234 10.1037 19.0889 10.1006 19.0549 10.1041C18.9613 10.0981 18.868 10.1189 18.7863 10.1641C18.7315 10.2098 18.693 10.2714 18.6764 10.3401L18.6926 10.3561ZM14.9647 10.7561C14.8639 10.796 14.7606 10.8294 14.6554 10.8561C14.554 10.8755 14.4582 10.9164 14.3746 10.9761C14.3554 10.9942 14.3401 11.016 14.3297 11.04C14.3192 11.064 14.3137 11.0899 14.3135 11.1161C14.3128 11.1435 14.3179 11.1709 14.3284 11.1963C14.3389 11.2218 14.3546 11.2448 14.3746 11.2641C14.4237 11.3037 14.4862 11.3237 14.5496 11.3201C14.629 11.3206 14.7068 11.2984 14.7734 11.2561C14.8377 11.2229 14.8902 11.1713 14.924 11.1081C14.9542 11.0358 14.9681 10.9581 14.9647 10.8801V10.7561ZM16.5072 10.0721H16.849C16.9205 10.0664 16.9914 10.0544 17.0607 10.0361C17.1142 10.0248 17.161 9.99313 17.1909 9.94807C17.227 9.90398 17.2458 9.84863 17.2438 9.79207C17.2459 9.75432 17.2397 9.71657 17.2257 9.68138C17.2116 9.64618 17.19 9.61436 17.1624 9.58807C17.073 9.53194 16.9666 9.50791 16.8612 9.52006H16.5072V10.0721ZM19.3194 10.7561C19.2174 10.7966 19.1127 10.83 19.006 10.8561C18.9055 10.8743 18.8107 10.9154 18.7293 10.9761C18.7101 10.9942 18.6948 11.016 18.6844 11.04C18.6739 11.064 18.6684 11.0899 18.6682 11.1161C18.6675 11.1435 18.6726 11.1709 18.6831 11.1963C18.6936 11.2218 18.7093 11.2448 18.7293 11.2641C18.7779 11.3045 18.8407 11.3245 18.9043 11.3201C18.9836 11.3206 19.0615 11.2984 19.1281 11.2561C19.1914 11.2229 19.2426 11.1711 19.2746 11.1081C19.3062 11.0362 19.3215 10.9584 19.3194 10.8801V10.7561Z" fill="white"/>
<path id="Vector_5" d="M31.5328 1.80807H18.8757C18.2621 1.80807 17.7646 2.29698 17.7646 2.90007V2.90408C17.7646 3.50717 18.2621 3.99607 18.8757 3.99607H31.5328C32.1464 3.99607 32.6438 3.50717 32.6438 2.90408V2.90007C32.6438 2.29698 32.1464 1.80807 31.5328 1.80807Z" fill="#01A601"/>
<path id="Vector_6" d="M35.2525 5.19608H22.5954C21.9818 5.19608 21.4844 5.68498 21.4844 6.28808V6.29208C21.4844 6.89517 21.9818 7.38408 22.5954 7.38408H35.2525C35.8661 7.38408 36.3636 6.89517 36.3636 6.29208V6.28808C36.3636 5.68498 35.8661 5.19608 35.2525 5.19608Z" fill="#01A601"/>
</g>
<defs>
<clipPath id="clip0_992_26682">
<rect width="36.3636" height="20" fill="white"/>
</clipPath>
</defs>
</svg>
