<svg width="26" height="30" viewBox="0 0 26 30" fill="none" xmlns="http://www.w3.org/2000/svg">
<g id="Customer_Serv 1" clip-path="url(#clip0_992_26662)">
<path id="Vector" fill-rule="evenodd" clip-rule="evenodd" d="M5.86572 10.2541C5.86572 11.8111 5.96915 12.1711 6.52883 13.5271C6.69885 13.9067 6.91213 14.266 7.16455 14.5981C7.83069 15.4981 8.88313 16.4821 9.93253 16.9081C12.1621 17.8081 13.7864 17.8081 16.016 16.9261C16.9425 16.4831 17.7698 15.862 18.4494 15.0991C19.4792 13.9056 20.0717 12.4051 20.1315 10.8391C20.1315 9.28207 20.028 8.92507 19.4684 7.56607C19.019 6.65322 18.3904 5.83745 17.619 5.16607C17.4639 5.03707 17.3148 4.93506 17.1445 4.81506C15.8335 3.84606 14.4252 3.51007 12.7066 3.51007C9.18426 3.51607 5.86572 6.75006 5.86572 10.2541Z" fill="#1F5DA0"/>
<path id="Vector_2" fill-rule="evenodd" clip-rule="evenodd" d="M4.08643 24.3151V27.5401C4.08643 28.7641 5.33657 30.0001 6.58064 30.0001H19.4137C20.6547 30.0001 21.9079 28.7641 21.9079 27.5401C21.9079 25.0441 22.1361 23.4301 21.1597 21.1261L20.7186 20.2261L19.4228 21.0571C17.5704 22.1611 14.8116 23.0401 12.6398 22.8061C12.0933 22.7375 11.5827 22.5009 11.1803 22.1298C10.7779 21.7588 10.5042 21.2722 10.398 20.7391C10.2698 20.1439 10.3695 19.523 10.6779 18.9961C10.3007 18.8161 9.8353 18.7591 9.09616 18.3961C8.29923 18.0001 8.19884 17.8501 7.70912 17.5951L6.98215 18.1681C6.29889 18.7989 5.71639 19.5282 5.25445 20.3311C4.53229 21.5413 4.13061 22.9114 4.08643 24.3151Z" fill="#1F5DA0"/>
<path id="Vector_3" fill-rule="evenodd" clip-rule="evenodd" d="M0.527508 9.49208C0.527508 11.1691 0.223332 12.7621 1.79895 13.6921C2.65672 14.1991 3.56316 14.0671 4.86198 14.0671L4.39964 12.7051C3.9636 11.0358 4.03749 9.27664 4.61202 7.64865C5.18656 6.02066 6.23611 4.59646 7.6288 3.55497C9.0215 2.51347 10.6952 1.90116 12.4397 1.79496C14.1841 1.68877 15.9215 2.09341 17.4335 2.95807C19.4035 4.10236 20.8617 5.93928 21.5155 8.10007C21.8426 9.21092 21.943 10.3747 21.8109 11.5241C21.6788 12.6735 21.3168 13.7856 20.7459 14.7961L20.025 15.9001C19.0537 17.1304 17.775 18.0908 16.3141 18.6871C15.6042 18.9755 14.8567 19.1644 14.0936 19.2481C13.1629 19.3891 12.1043 19.0681 12.1043 20.3341C12.1249 20.5292 12.2129 20.7115 12.3536 20.8502C12.4943 20.989 12.6791 21.0758 12.8769 21.0961C14.8662 21.0961 15.9552 20.7961 17.689 20.0431C17.834 19.9744 17.9742 19.8962 18.1087 19.8091C20.2744 18.5761 22.0173 16.8091 22.9177 14.4751C23.161 13.8481 23.0941 14.1181 23.7086 13.9081C24.6211 13.5901 25.4728 12.6151 25.4728 11.6041C25.4728 9.98707 25.7161 8.83207 24.7154 7.83907C24.1709 7.29607 23.885 7.23908 23.0363 7.03508C22.9846 6.43508 22.0113 4.85708 21.6189 4.33508C20.5725 2.92808 18.6775 1.35308 16.9407 0.735077C15.1157 0.105077 14.5651 -0.00292969 12.6397 -0.00292969C10.3006 -0.00292969 7.43832 1.16708 5.85054 2.67608C4.62924 3.76084 3.67968 5.11019 3.07648 6.61807C2.7206 7.53307 2.42859 6.76207 1.42482 7.68607C1.15988 7.91218 0.94386 8.18865 0.789686 8.49895C0.635513 8.80925 0.546343 9.14702 0.527508 9.49208Z" fill="#01A601"/>
<path id="Vector_4" fill-rule="evenodd" clip-rule="evenodd" d="M17.0074 27.933C16.8858 28.08 16.5907 28.3591 16.3839 28.3591C16.2919 28.3591 16.2037 28.323 16.1387 28.2589C16.0736 28.1947 16.0371 28.1078 16.0371 28.0171C16.0371 27.6211 16.5755 27.6871 16.6455 27.4171C16.6972 27.1951 16.39 27.0991 16.247 26.9701C16.1797 26.91 16.1264 26.8362 16.0907 26.7539C16.0549 26.6715 16.0377 26.5826 16.0402 26.493C16.0407 26.3665 16.0776 26.2427 16.1466 26.136C16.2196 26.0198 16.3253 25.9271 16.4508 25.869C16.8042 25.741 17.1924 25.741 17.5458 25.869C17.6716 25.9266 17.7774 26.0195 17.85 26.136C17.919 26.2427 17.9559 26.3665 17.9564 26.493C17.9589 26.5826 17.9417 26.6715 17.906 26.7539C17.8703 26.8362 17.8169 26.91 17.7496 26.9701C17.6066 27.0991 17.2994 27.1951 17.3542 27.4171C17.4181 27.6931 17.9625 27.6271 17.9625 28.0171C17.9625 28.1078 17.926 28.1947 17.861 28.2589C17.7959 28.323 17.7077 28.3591 17.6158 28.3591C17.4089 28.3591 17.1169 28.08 17.0074 27.933ZM17.2964 26.655C17.3355 26.621 17.3631 26.576 17.3755 26.526C17.3769 26.5091 17.3769 26.492 17.3755 26.475C17.3755 26.097 16.6242 26.076 16.6242 26.475C16.6227 26.492 16.6227 26.5091 16.6242 26.526C16.6366 26.576 16.6642 26.621 16.7032 26.655C16.7984 26.7406 16.9001 26.8188 17.0074 26.8891C17.1095 26.8182 17.2061 26.74 17.2964 26.655Z" fill="white"/>
<path id="Vector_5" fill-rule="evenodd" clip-rule="evenodd" d="M14.5739 28.2841H14.6864H14.7442C14.7621 28.2894 14.778 28.2998 14.7898 28.3141C14.8019 28.3294 14.8112 28.3466 14.8172 28.3651C14.8208 28.3899 14.8208 28.4152 14.8172 28.4401C14.8206 28.4629 14.8206 28.4862 14.8172 28.5091C14.8115 28.5292 14.801 28.5476 14.7868 28.5631C14.7751 28.5754 14.7605 28.5847 14.7442 28.5901H14.6895H14.5739V28.2721V28.2841ZM14.6347 28.3381V28.5481H14.7168H14.7412C14.7412 28.5481 14.7412 28.5301 14.7594 28.5181C14.7615 28.4981 14.7615 28.478 14.7594 28.4581C14.7614 28.4391 14.7614 28.42 14.7594 28.4011L14.7412 28.3711H14.7138H14.6347V28.3381ZM14.0842 28.6021V28.3381H13.996V28.2841H14.2363V28.3381H14.145V28.6021H14.0842ZM13.491 28.6021V28.2871H13.5519V28.5481H13.7039V28.6021H13.491ZM12.4903 28.6021V28.2841H12.7154V28.3381H12.5511V28.4101H12.7032V28.4611H12.5511V28.5481H12.7215V28.6021H12.4903ZM11.9367 28.6021V28.2871H11.9975V28.5481H12.1496V28.6021H11.9367ZM11.4318 28.6021V28.4701L11.3192 28.2841H11.3922L11.4622 28.4101L11.5321 28.2841H11.6021L11.4926 28.4701V28.6021H11.4318ZM10.863 28.6021V28.3381H10.7717V28.2841H11.012V28.3381H10.9238V28.6021H10.863ZM10.1968 28.5001H10.2577C10.2579 28.5086 10.26 28.517 10.2636 28.5247C10.2673 28.5325 10.2725 28.5394 10.279 28.5451C10.2927 28.5501 10.3078 28.5501 10.3215 28.5451C10.3364 28.5493 10.3523 28.5493 10.3672 28.5451C10.3711 28.5344 10.3711 28.5227 10.3672 28.5121C10.3685 28.5061 10.3685 28.5 10.3672 28.4941L10.3459 28.4791H10.2972C10.2715 28.4737 10.2476 28.4624 10.2273 28.4461C10.2183 28.4382 10.2112 28.4284 10.2065 28.4176C10.2017 28.4067 10.1995 28.3949 10.1999 28.3831C10.1957 28.3683 10.1957 28.3528 10.1999 28.3381C10.2089 28.3242 10.2215 28.3128 10.2364 28.3051C10.2565 28.3017 10.2771 28.3017 10.2972 28.3051C10.3123 28.3033 10.3276 28.3046 10.3422 28.3087C10.3568 28.3128 10.3705 28.3197 10.3824 28.3291C10.3926 28.338 10.4006 28.3492 10.4059 28.3616C10.4112 28.3741 10.4135 28.3876 10.4128 28.4011H10.352C10.3505 28.3879 10.3452 28.3754 10.3367 28.3651C10.324 28.3602 10.3099 28.3602 10.2972 28.3651C10.2833 28.3612 10.2686 28.3612 10.2546 28.3651C10.2532 28.3684 10.2525 28.372 10.2525 28.3756C10.2525 28.3792 10.2532 28.3827 10.2546 28.3861C10.2525 28.3919 10.2525 28.3982 10.2546 28.4041C10.2712 28.4148 10.2898 28.422 10.3094 28.4251C10.3326 28.4305 10.355 28.4385 10.3763 28.4491C10.3901 28.4558 10.4017 28.4662 10.4097 28.4791C10.4143 28.4958 10.4143 28.5134 10.4097 28.5301C10.4093 28.5481 10.4041 28.5657 10.3945 28.5811C10.3863 28.5974 10.3722 28.6102 10.355 28.6171C10.333 28.6222 10.3101 28.6222 10.2881 28.6171C10.2564 28.6187 10.2251 28.6091 10.1999 28.5901C10.1782 28.5683 10.1652 28.5395 10.1634 28.5091L10.1968 28.5001ZM9.63107 28.6021V28.2841H9.85616V28.3381H9.6919V28.4101H9.84399V28.4611H9.6919V28.5481H9.86224V28.6021H9.63107ZM9.07443 28.6021V28.2841H9.28127V28.3381H9.13526V28.4131H9.25997V28.4671H9.13526V28.6021H9.07443ZM8.65467 28.6021V28.2841H8.71551V28.6021H8.65467ZM8.10107 28.6021V28.2871H8.16191V28.5481H8.314V28.6021H8.10107Z" fill="white"/>
<path id="Vector_6" fill-rule="evenodd" clip-rule="evenodd" d="M13.7072 26.8111L13.1718 26.7541C13.1849 26.6715 13.2138 26.5921 13.257 26.5201C13.3008 26.4593 13.358 26.409 13.4243 26.3731C13.4903 26.3373 13.5625 26.3139 13.6372 26.3041C13.7375 26.2857 13.8394 26.2777 13.9414 26.2801C14.0779 26.277 14.2144 26.287 14.349 26.3101C14.4443 26.3261 14.533 26.3688 14.6045 26.4331C14.6573 26.4835 14.696 26.5466 14.717 26.6161C14.7438 26.6903 14.7582 26.7683 14.7596 26.8471V27.5251C14.7539 27.5819 14.7539 27.6392 14.7596 27.6961C14.7728 27.7501 14.7921 27.8024 14.8174 27.8521H14.2881C14.2718 27.8235 14.2586 27.7933 14.2486 27.7621C14.2389 27.7296 14.2318 27.6966 14.2273 27.6631C14.1652 27.7301 14.0909 27.7851 14.0083 27.8251C13.8982 27.8689 13.7802 27.8903 13.6615 27.8881C13.557 27.893 13.4528 27.8735 13.3574 27.8311V27.8521H12.6486L12.314 27.2041C12.2875 27.1425 12.2493 27.0865 12.2015 27.0391C12.1565 27.0068 12.102 26.99 12.0464 26.9911H11.9916V27.8521H10.8875C10.8712 27.8235 10.8579 27.7933 10.8479 27.7621C10.8383 27.7296 10.8312 27.6966 10.8266 27.6631C10.7645 27.7301 10.6903 27.7851 10.6076 27.8251C10.4975 27.8689 10.3796 27.8903 10.2609 27.8881C10.1891 27.8935 10.117 27.8848 10.0486 27.8627C9.98025 27.8406 9.91697 27.8054 9.86241 27.7591C9.80211 27.7053 9.75881 27.6355 9.7377 27.5581C9.66207 27.6662 9.55647 27.7506 9.43352 27.8011C9.27927 27.8634 9.11346 27.893 8.94685 27.8881C8.81926 27.902 8.69016 27.8908 8.56696 27.8553C8.44376 27.8198 8.32891 27.7606 8.229 27.6811C8.09527 27.5343 8.01592 27.3471 8.00391 27.1501L8.61225 27.1111C8.61774 27.1936 8.64501 27.2732 8.69134 27.3421C8.7218 27.3858 8.76346 27.4208 8.81209 27.4434C8.86071 27.4661 8.91456 27.4756 8.96814 27.4711C9.04297 27.475 9.11663 27.4514 9.17498 27.4051C9.19801 27.3866 9.21653 27.3633 9.22917 27.3368C9.2418 27.3103 9.24824 27.2814 9.24798 27.2521C9.24715 27.2242 9.24051 27.1967 9.22847 27.1714C9.21644 27.1461 9.19926 27.1235 9.17802 27.1051C9.08648 27.0435 8.98285 27.0016 8.87385 26.9821C8.65875 26.9448 8.45616 26.8563 8.28375 26.7241C8.22634 26.6719 8.1809 26.6083 8.15047 26.5374C8.12004 26.4665 8.10534 26.39 8.10733 26.3131C8.11028 26.2069 8.14177 26.1033 8.19858 26.0131C8.26375 25.9122 8.35802 25.8328 8.46929 25.7851C8.62751 25.722 8.79767 25.6934 8.96814 25.7011C9.18255 25.6837 9.39669 25.7376 9.57649 25.8541C9.64873 25.9129 9.70769 25.986 9.7496 26.0687C9.7915 26.1514 9.81542 26.2418 9.81982 26.3341L9.22972 26.3701C9.22327 26.2912 9.18753 26.2175 9.12935 26.1631C9.071 26.1167 8.99735 26.0932 8.92252 26.0971C8.86358 26.092 8.8049 26.1092 8.75826 26.1451C8.74105 26.1595 8.72724 26.1774 8.71779 26.1976C8.70833 26.2178 8.70346 26.2398 8.70351 26.2621C8.70361 26.2799 8.70776 26.2976 8.71565 26.3137C8.72355 26.3298 8.73499 26.3439 8.74913 26.3551C8.81188 26.397 8.8838 26.4238 8.95901 26.4331C9.16204 26.4712 9.35931 26.5347 9.54607 26.6221C9.6528 26.6746 9.7424 26.7557 9.80462 26.8561C9.85321 26.9404 9.88035 27.0351 9.8837 27.1321C9.98144 27.0631 10.0938 27.017 10.2122 26.9971C10.4251 26.9551 10.562 26.9221 10.6228 26.9041C10.6837 26.8861 10.7536 26.8621 10.8236 26.8351C10.8284 26.7807 10.8133 26.7264 10.781 26.6821C10.7379 26.6488 10.6833 26.6337 10.6289 26.6401C10.557 26.6354 10.4853 26.6511 10.4221 26.6851C10.3792 26.7199 10.3483 26.7671 10.3339 26.8201L9.79854 26.7631C9.81164 26.6805 9.84054 26.601 9.8837 26.5291C9.92753 26.4683 9.98471 26.418 10.051 26.3821C10.117 26.3463 10.1892 26.3229 10.2639 26.3131C10.3642 26.2947 10.4661 26.2867 10.5681 26.2891C10.7046 26.286 10.8411 26.296 10.9757 26.3191C11.071 26.3351 11.1597 26.3778 11.2312 26.4421C11.284 26.4926 11.3227 26.5556 11.3437 26.6251C11.3705 26.6993 11.3849 26.7773 11.3863 26.8561V27.5341C11.3806 27.5909 11.3806 27.6482 11.3863 27.7051V25.7221H12.4327C12.5827 25.7165 12.7326 25.7347 12.8768 25.7761C12.9784 25.8111 13.0651 25.8787 13.1231 25.9681C13.181 26.0658 13.2133 26.1763 13.217 26.2894C13.2207 26.4026 13.1958 26.5148 13.1444 26.6161C13.0977 26.7015 13.0297 26.7738 12.9467 26.8261C12.8783 26.8645 12.8045 26.8929 12.7277 26.9101C12.7856 26.9268 12.8401 26.9532 12.8889 26.9881C12.9272 27.0206 12.9609 27.0579 12.9893 27.0991C13.0231 27.1401 13.0527 27.1843 13.0775 27.2311L13.1353 27.3481C13.1492 27.2758 13.1805 27.2079 13.2266 27.1501C13.327 27.059 13.4533 27.0004 13.5885 26.9821C13.8015 26.9401 13.9383 26.9071 13.9992 26.8891C14.06 26.8711 14.13 26.8471 14.1999 26.8201C14.2048 26.7657 14.1896 26.7114 14.1573 26.6671C14.1143 26.6338 14.0596 26.6187 14.0052 26.6251C13.9334 26.6204 13.8616 26.6361 13.7984 26.6701C13.7555 26.705 13.7247 26.7521 13.7102 26.8051L13.7072 26.8111ZM10.8175 27.1111C10.7384 27.1381 10.6593 27.1651 10.5742 27.1861C10.4958 27.2016 10.4219 27.2344 10.3582 27.2821C10.3291 27.3107 10.3127 27.3495 10.3126 27.3901C10.312 27.4111 10.3157 27.4321 10.3236 27.4517C10.3314 27.4713 10.3432 27.4891 10.3582 27.5041C10.3768 27.5202 10.3985 27.5325 10.422 27.5402C10.4455 27.548 10.4704 27.551 10.4951 27.5491C10.5561 27.548 10.6158 27.5315 10.6685 27.5011C10.7172 27.4734 10.7572 27.4329 10.7841 27.3841C10.8082 27.3272 10.8196 27.2657 10.8175 27.2041V27.1111ZM12.0129 26.5771H12.2775C12.3342 26.5729 12.3903 26.5628 12.4448 26.5471C12.4858 26.539 12.5219 26.5153 12.5452 26.4811C12.5722 26.4457 12.5861 26.4023 12.5848 26.3581C12.5862 26.3289 12.5816 26.2997 12.5711 26.2723C12.5607 26.245 12.5446 26.22 12.5239 26.1991C12.4541 26.1559 12.3717 26.1369 12.2897 26.1451H12.0129V26.5771ZM14.1969 27.1111C14.1178 27.1381 14.0387 27.1651 13.9535 27.1861C13.8751 27.2016 13.8013 27.2344 13.7376 27.2821C13.7076 27.3104 13.6901 27.3492 13.6889 27.3901C13.6889 27.4113 13.6932 27.4324 13.7015 27.4519C13.7099 27.4715 13.7222 27.4892 13.7376 27.5041C13.7557 27.52 13.7769 27.5321 13.7999 27.5399C13.8229 27.5476 13.8472 27.5507 13.8714 27.5491C13.9334 27.5484 13.9942 27.5318 14.0478 27.5011C14.0966 27.4734 14.1366 27.4329 14.1634 27.3841C14.1876 27.3272 14.199 27.2657 14.1969 27.2041V27.1111Z" fill="white"/>
</g>
<defs>
<clipPath id="clip0_992_26662">
<rect width="25" height="30" fill="white" transform="translate(0.5 6.10352e-05)"/>
</clipPath>
</defs>
</svg>
