<svg width="101" height="101" viewBox="0 0 101 101" fill="none" xmlns="http://www.w3.org/2000/svg">
<path fill-rule="evenodd" clip-rule="evenodd" d="M34.875 57.8298C34.9491 58.3871 35.2023 58.9052 35.5965 59.306C35.9906 59.7068 36.5043 59.9687 37.0602 60.0521H40.0232L40.3565 64.2373C40.3565 64.8669 40.3565 65.4965 40.3565 66.2743L40.912 72.6076C41.3565 75.6446 41.5787 81.7187 41.9491 85.3113C42.0361 86.4896 42.5041 87.6075 43.2824 88.4965C44.1207 89.3628 45.233 89.9124 46.4305 90.0519H52.9861C54.1601 89.9215 55.256 89.3998 56.0972 88.5706C56.4436 88.1751 56.7419 87.7398 56.9861 87.2742C57.253 86.7002 57.428 86.0878 57.5046 85.4594L59.5787 60.0521H62.5416C63.0975 59.9687 63.6113 59.7068 64.0054 59.306C64.3996 58.9052 64.6527 58.3871 64.7268 57.8298C64.6948 56.7368 64.5834 55.6475 64.3935 54.5706L62.7268 41.5336C62.4675 39.7558 62.4675 37.3854 60.6527 36.1261C58.8379 34.8669 57.4675 35.0521 54.3934 35.0521C52.912 35.0521 50.875 38.0151 49.7269 38.7558C48.5417 37.978 46.5416 35.0521 45.0231 35.0521C42.0972 35.0521 38.7268 34.4596 37.2824 38.2003C37.0972 39.0521 34.875 55.4965 34.875 57.8298Z" fill="#01A601"/>
<path fill-rule="evenodd" clip-rule="evenodd" d="M65.5042 64.2394L66.7264 76.6097C66.7438 78.5741 67.0688 80.5236 67.6894 82.3875C68.0854 83.1729 68.6874 83.836 69.4311 84.3057C70.1748 84.7754 71.0322 85.0341 71.9116 85.0541H78.1338C79.1597 84.9548 80.1299 84.5409 80.9115 83.8689C81.6237 83.2315 82.1487 82.4119 82.4301 81.4985C82.6603 80.3625 82.8088 79.2114 82.8745 78.0541C83.356 74.3504 83.5412 70.6467 83.9857 67.2763L84.7263 60.0542H87.6894C88.2453 59.9707 88.7589 59.7089 89.1531 59.3081C89.5472 58.9073 89.8005 58.3892 89.8745 57.8319C89.8745 56.3134 87.6524 39.3134 87.3561 38.3505C85.9857 34.6468 82.393 35.0542 79.5412 35.0542C78.0597 35.0542 76.0228 38.0172 74.8746 38.7579C73.7265 37.9801 71.6894 35.0542 70.1708 35.0542C65.4671 35.0542 66.0597 34.7949 66.8005 36.3875C67.0412 36.9613 67.2272 37.5566 67.356 38.1653C68.0227 41.4246 68.9487 50.6098 69.5413 54.7579C69.7819 56.1426 69.7819 57.5583 69.5413 58.943C69.3411 60.1181 68.8294 61.2181 68.0597 62.1282C67.4028 63.0392 66.5228 63.7662 65.5042 64.2394Z" fill="white"/>
<path fill-rule="evenodd" clip-rule="evenodd" d="M9.875 57.8277C9.94908 58.385 10.2023 58.9031 10.5965 59.3039C10.9906 59.7047 11.5043 59.9665 12.0602 60.05H15.0232L17.2824 81.3832C17.5391 82.3631 18.0873 83.2419 18.8545 83.9033C19.6217 84.5646 20.5717 84.9774 21.5787 85.0869H28.0602C28.9084 85.0032 29.7211 84.7041 30.4212 84.2179C31.1213 83.7318 31.6854 83.0747 32.0601 82.3091C32.8567 78.3887 33.3642 74.4151 33.5786 70.4203C33.7638 68.5314 34.1712 66.1611 34.1712 64.1241C33.076 63.7094 32.111 63.0105 31.3754 62.0992C30.6398 61.1878 30.1602 60.0969 29.986 58.9388C29.746 57.5665 29.746 56.163 29.986 54.7907C30.3564 51.7536 31.7268 39.9759 32.1343 38.1611C32.875 34.4574 35.0972 35.087 29.3194 35.087C27.8379 35.087 25.8009 38.0499 24.6527 38.7907C23.4675 38.0129 21.4676 35.087 19.9491 35.087C16.875 35.087 15.875 34.6796 13.8009 36.087C11.7268 37.4945 11.6898 41.5315 11.2453 44.6426C10.912 46.8278 10.7269 48.9389 10.3936 51.1241C10.4306 52.5685 9.875 56.4944 9.875 57.8277Z" fill="white"/>
<path fill-rule="evenodd" clip-rule="evenodd" d="M14.8758 19.422C14.7753 20.7536 14.9424 22.0918 15.3675 23.3577C15.7925 24.6236 16.4668 25.7916 17.3505 26.7927C18.2343 27.7938 19.3095 28.6077 20.5129 29.1865C21.7163 29.7653 23.0235 30.0973 24.3572 30.1627C25.7815 30.2741 27.213 30.0756 28.5532 29.5808C29.8934 29.086 31.1104 28.3067 32.1206 27.2965C33.1307 26.2863 33.9101 25.0693 34.4049 23.7291C34.8997 22.3889 35.0982 20.9574 34.9868 19.5332C34.8386 17.0929 33.8048 14.7907 32.0795 13.0586C30.3543 11.3265 28.0561 10.2836 25.6165 10.1257H24.3572C21.9158 10.2546 19.6053 11.2703 17.8595 12.9819C16.1137 14.6936 15.0528 16.9836 14.8758 19.422Z" fill="white"/>
<path fill-rule="evenodd" clip-rule="evenodd" d="M66.6899 25.8665C67.6693 27.2695 68.9972 28.3932 70.5428 29.1271C72.0885 29.8609 73.7986 30.1796 75.5048 30.0517C78.0565 29.8964 80.4529 28.7733 82.2048 26.9115C83.9568 25.0497 84.9324 22.5897 84.9324 20.0332C84.9324 17.4767 83.9568 15.0166 82.2048 13.1548C80.4529 11.293 78.0565 10.1699 75.5048 10.0146H74.2455C72.4621 10.1354 70.743 10.7285 69.2645 11.7331C67.786 12.7377 66.6015 14.1177 65.8324 15.7313C65.0633 17.3448 64.7375 19.1339 64.8882 20.9151C65.0389 22.6962 65.6607 24.4051 66.6899 25.8665Z" fill="white"/>
<path fill-rule="evenodd" clip-rule="evenodd" d="M39.8736 19.4221C39.7622 20.8463 39.9608 22.2778 40.4556 23.618C40.9504 24.9582 41.7297 26.1752 42.7399 27.1854C43.75 28.1956 44.9671 28.9749 46.3073 29.4697C47.6474 29.9645 49.0789 30.163 50.5032 30.0517C53.055 29.8964 55.4513 28.7733 57.2033 26.9115C58.9552 25.0497 59.9308 22.5897 59.9308 20.0332C59.9308 17.4767 58.9552 15.0166 57.2033 13.1548C55.4513 11.293 53.055 10.1699 50.5032 10.0146H49.2439C46.8043 10.1725 44.5062 11.2154 42.7809 12.9475C41.0556 14.6796 40.0219 16.9818 39.8736 19.4221Z" fill="#01A601"/>
</svg>
