<svg width="32" height="32" viewBox="0 0 32 32" fill="none" xmlns="http://www.w3.org/2000/svg">
<g id="MarketPlace_Quality 1" clip-path="url(#clip0_992_26732)">
<path id="Union" fill-rule="evenodd" clip-rule="evenodd" d="M9.87464 5.29999L9.57908 5.51346C9.34113 5.67495 9.06865 5.77841 8.78347 5.81548C8.4983 5.85255 8.20838 5.82221 7.93705 5.72693H7.85497C8.12028 5.35745 8.429 5.02118 8.7745 4.72532C8.98001 4.56808 9.19992 4.43064 9.43131 4.31481C9.13646 4.29132 8.84352 4.37919 8.61029 4.5611C8.31472 4.80741 7.62506 5.51346 7.62506 5.51346L7.46085 5.66124V5.44781C7.71452 4.80758 8.12706 4.24248 8.65955 3.80578L9.13575 3.4281C9.47937 3.2219 9.8673 3.10092 10.2672 3.07521C10.6671 3.04951 11.0674 3.11982 11.4346 3.28032C11.4346 3.28032 10.827 3.93711 10.6136 4.23268C10.5401 4.31414 10.4742 4.40208 10.4165 4.49541C10.2657 4.78248 10.0839 5.05226 9.87464 5.29999ZM6.16369 7.27044C6.24414 7.17313 6.3156 7.0687 6.37716 6.95845C6.54572 6.60625 6.65657 6.22926 6.70554 5.84188L6.80405 5.51346C6.919 5.16863 7.28026 4.29837 7.28026 4.29837C6.86744 4.27154 6.45432 4.34574 6.07664 4.51455C5.69897 4.68336 5.36811 4.94169 5.11276 5.26716C4.98615 5.44009 4.87098 5.62113 4.76795 5.80906C4.39811 6.42522 4.19441 7.12676 4.17679 7.84517V8.07503L4.27536 7.87799C4.27536 7.86157 4.70226 6.92565 4.91573 6.58082C4.99091 6.44935 5.09244 6.33479 5.21394 6.24437C5.33543 6.15396 5.47427 6.08962 5.62179 6.05536C5.42887 6.24325 5.25808 6.45261 5.11276 6.67934C4.89279 7.09993 4.71145 7.53958 4.57091 7.99294V8.07503H4.65299C4.94985 8.0668 5.24076 7.98988 5.50287 7.85028C5.76499 7.71067 5.9912 7.51219 6.16369 7.27044ZM6.55782 6.95844V7.04057C6.49635 7.15604 6.42491 7.2659 6.34435 7.36895C6.18689 7.57811 5.99202 7.75628 5.76963 7.89441H5.85176C6.20602 7.99396 6.56887 8.05993 6.93551 8.09145C6.59234 8.20733 6.22673 8.24107 5.86814 8.18997L5.39199 8.05863C5.25477 8.11382 5.11143 8.15237 4.96504 8.17353C5.51434 8.53195 6.13733 8.76206 6.78773 8.84677C7.18983 8.88533 7.59529 8.82639 7.96974 8.67489C8.3442 8.52339 8.67662 8.2838 8.93879 7.9765C8.51088 7.8668 8.08884 7.73528 7.67439 7.58242C7.31473 7.35276 6.9419 7.1444 6.55782 6.95844ZM3.65141 10.341L3.5529 10.7023C3.46473 10.9903 3.31469 11.2557 3.11332 11.4797C2.91195 11.7038 2.66407 11.8812 2.38702 11.9995H2.30493V11.9174C2.28623 11.4397 2.3137 10.9612 2.38702 10.4888C2.44761 10.2284 2.53569 9.97525 2.64975 9.73348C2.52096 9.81967 2.41094 9.931 2.32628 10.0608C2.24163 10.1906 2.18411 10.3362 2.15716 10.4888C2.07505 10.8829 1.99294 11.901 1.99294 11.9174V12.1308L1.91086 11.9174C1.68292 11.2349 1.6376 10.5046 1.77947 9.79918C1.81513 9.5882 1.86449 9.37976 1.92725 9.17519C2.06387 8.7844 2.29149 8.43172 2.59127 8.14622C2.89105 7.86071 3.25443 7.65057 3.65141 7.53316H3.7335V7.61524V8.9289C3.72689 9.04375 3.72689 9.15886 3.7335 9.27371C3.74434 9.6314 3.71683 9.98921 3.65141 10.341ZM3.81562 10.3575V10.2754C3.99929 10.2869 4.16491 10.3144 4.31317 10.339C4.58906 10.3849 4.80485 10.4208 4.96506 10.3246C5.40254 10.3511 5.8412 10.3511 6.27867 10.3246C6.15485 10.709 5.94136 11.0583 5.65584 11.3438C5.37032 11.6293 5.02097 11.8428 4.63664 11.9667C3.99951 12.1169 3.33617 12.1169 2.69905 11.9667C2.82916 11.8998 2.9505 11.817 3.0603 11.7203H3.55294C3.90554 11.6396 4.2362 11.4826 4.52173 11.2606C4.16629 11.3549 3.80389 11.4208 3.43798 11.4576H3.35585C3.51804 11.2461 3.64045 11.0068 3.7171 10.7515L3.81562 10.3575ZM2.15718 14.5939V14.1998C2.09002 13.7893 1.96274 13.391 1.7795 13.0176C1.76089 12.9679 1.73759 12.923 1.71581 12.881C1.67993 12.8117 1.64816 12.7504 1.64816 12.6891C1.51679 12.3279 1.23765 11.4083 1.23765 11.4083C0.888823 11.669 0.607093 12.009 0.41578 12.4002C0.224466 12.7914 0.129049 13.2226 0.137464 13.658V14.3148C0.253748 15.0424 0.546988 15.7303 0.991353 16.3181L1.13913 16.4987V16.2688C1.13913 16.2661 1.13001 16.2355 1.1148 16.1846C1.03878 15.9299 0.810704 15.1659 0.810704 14.8238C0.784473 14.6666 0.789836 14.5058 0.826489 14.3508C0.863141 14.1957 0.930355 14.0494 1.02418 13.9206C0.999515 14.1938 0.999515 14.4685 1.02418 14.7417C1.12027 15.2251 1.26327 15.6981 1.45112 16.1538V16.2359C1.68137 16.0302 1.86384 15.7767 1.9858 15.493C2.10777 15.2094 2.16628 14.9025 2.15718 14.5939ZM2.30497 14.0849V14.167C2.32016 14.3034 2.32016 14.4411 2.30497 14.5775C2.31801 14.8548 2.28472 15.1322 2.20645 15.3985C2.54764 15.2298 2.87683 15.0377 3.19168 14.8238C2.99733 15.1415 2.73346 15.411 2.41993 15.612L1.96016 15.8419C1.94001 15.8721 1.92054 15.9016 1.90163 15.9303L1.90137 15.9307L1.90128 15.9309L1.90127 15.9309L1.90125 15.9309C1.82783 16.0424 1.76263 16.1413 1.69743 16.2196C2.363 16.1237 2.99776 15.8765 3.55293 15.4971C3.90122 15.2552 4.18704 14.934 4.38688 14.56C4.58672 14.186 4.69483 13.77 4.70233 13.346C4.29446 13.5615 3.87199 13.748 3.43798 13.9043C3.05744 13.9448 2.67925 14.0051 2.30497 14.0849ZM2.12424 18.6004C2.19417 18.7158 2.2546 18.8366 2.30489 18.9617C2.4262 19.262 2.48026 19.5852 2.46324 19.9086C2.44621 20.232 2.35853 20.5478 2.20637 20.8336C1.86502 20.4701 1.56741 20.0677 1.31966 19.6349C1.1963 19.3709 1.09738 19.096 1.0241 18.8139C0.939569 19.1382 0.974535 19.4821 1.12262 19.7827C1.2597 20.0454 1.60339 20.5545 1.79989 20.8456C1.88585 20.9729 1.94364 21.0585 1.94364 21.0635L2.05859 21.2605L1.86155 21.1456C1.21605 20.7483 0.693159 20.1799 0.350861 19.5036C0.235906 19.3038 0.137083 19.0951 0.0553073 18.8796C-0.0971812 18.457 -0.151314 18.0051 -0.102943 17.5583C-0.0545724 17.1116 0.0949998 16.6818 0.334425 16.3016C0.334425 16.3016 0.909137 17.1062 1.15544 17.4018L1.40179 17.6645C1.68705 17.9395 1.93042 18.2548 2.12424 18.6004ZM2.22286 18.5184V18.4362C2.48674 18.231 2.7506 18.1014 2.95215 18.0024C3.08923 17.9351 3.19748 17.8819 3.2573 17.8287C3.61923 17.5245 3.95946 17.1953 4.27541 16.8435C4.41528 17.2587 4.45542 17.701 4.39267 18.1346C4.32991 18.5682 4.16601 18.9809 3.91416 19.3394C3.4984 19.9051 2.96652 20.3753 2.3542 20.7187C2.4119 20.5641 2.45583 20.4048 2.48554 20.2425L2.84679 19.8649C3.08874 19.5566 3.25724 19.1971 3.33943 18.8139C3.10749 19.131 2.85515 19.4327 2.58406 19.7171C2.56615 19.4358 2.50526 19.1589 2.40346 18.8961C2.35321 18.7657 2.29284 18.6394 2.22286 18.5184ZM3.74992 22.7712C3.86721 22.8667 3.97697 22.971 4.0783 23.0832C4.27262 23.3076 4.42802 23.5629 4.53806 23.8385V23.7565C4.70717 23.3669 4.84982 22.9665 4.96501 22.5578C5.01816 22.9717 4.97889 23.3923 4.85006 23.7893C4.78525 23.9694 4.70847 24.1449 4.6202 24.3147C4.64277 24.4837 4.64277 24.6548 4.6202 24.8238C5.11569 24.2565 5.48509 23.5905 5.70394 22.8697C5.82816 22.4213 5.84532 21.9499 5.75406 21.4935C5.66279 21.0372 5.46564 20.6087 5.17848 20.2425C4.98285 20.7104 4.75799 21.1657 4.50524 21.6054C4.47619 21.8184 4.32154 22.0086 4.13891 22.2332C4.01182 22.3894 3.8712 22.5624 3.74992 22.7712ZM7.0833 26.7778H7.00117C7.08869 26.3621 7.24182 26.0411 7.36827 25.776L7.36829 25.776C7.43162 25.6432 7.48827 25.5245 7.52663 25.4149C7.62557 24.872 7.69136 24.3237 7.72366 23.7728C8.12837 24.0267 8.46635 24.3739 8.7092 24.7853C8.95204 25.1968 9.09269 25.6604 9.1194 26.1374C9.15475 26.9162 9.02606 27.6939 8.74172 28.4198C8.68963 28.248 8.61805 28.0827 8.5283 27.9272C8.54189 27.7359 8.54189 27.5438 8.5283 27.3525C8.52109 26.9182 8.41436 26.4912 8.2163 26.1046C8.24285 26.5475 8.24285 26.9916 8.2163 27.4346C8.2062 27.461 8.2062 27.4903 8.2163 27.5167C8.0127 27.2937 7.7742 27.1051 7.51019 26.9584L7.0833 26.7778ZM11.484 29.4215H11.3854C11.3334 29.0161 11.3604 28.6634 11.383 28.3674C11.3962 28.1959 11.4078 28.0434 11.4018 27.9108C11.3192 27.3558 11.1986 26.8072 11.0406 26.2688C11.5182 26.3675 11.9647 26.5803 12.3422 26.8892C12.7196 27.198 13.0168 27.5936 13.2081 28.0422C13.5095 28.7874 13.6548 29.5866 13.635 30.3903C13.5183 30.2505 13.392 30.1188 13.2573 29.9962C13.219 29.8003 13.1641 29.608 13.0931 29.4215C12.9459 29.0099 12.704 28.6387 12.3871 28.3378C12.5665 28.7531 12.7146 29.1812 12.8304 29.6185V29.7171C12.5576 29.5601 12.2561 29.4596 11.9437 29.4215H11.484ZM11.9272 29.6186H11.484C11.0598 29.6411 10.6403 29.7183 10.2359 29.8484L9.84187 29.9469C9.41494 30.029 8.33118 30.1604 8.33118 30.1604H8.23266V30.2589C8.45037 30.7074 8.77031 31.0985 9.16673 31.4009C9.56315 31.7032 10.025 31.9082 10.5151 31.9995H11.2705C12.1124 32.012 12.9434 31.8085 13.6842 31.4084L13.8977 31.2606H13.6842C13.6842 31.2606 12.5184 31.3591 12.0422 31.3591C11.6738 31.3435 11.3261 31.1843 11.0734 30.9157C11.3782 31.0059 11.6921 31.061 12.0093 31.0799C12.5631 31.0725 13.1141 31.0009 13.6514 30.8665V30.7844C13.4665 30.476 13.2164 30.2118 12.9185 30.0104C12.6207 29.809 12.2823 29.6753 11.9272 29.6186ZM13.7499 30.5709L14.0947 30.8829L13.5857 31.1127C13.5857 31.1127 14.9322 31.1128 14.9978 30.9321C15.0286 30.8476 14.9191 30.835 14.7182 30.8119C14.4897 30.7856 14.143 30.7456 13.7499 30.5709ZM7.03403 26.9748L7.4281 27.1555C7.73462 27.3264 8.0005 27.5617 8.20743 27.8451C8.41435 28.1286 8.55742 28.4535 8.62681 28.7975V28.896H8.54467C7.98379 28.8387 7.43221 28.7118 6.90264 28.5183C6.62626 28.3898 6.36243 28.2359 6.1145 28.0586C6.18135 28.2207 6.27959 28.368 6.40359 28.492C6.52758 28.616 6.67489 28.7142 6.83699 28.7811C7.26392 28.9617 8.3969 29.2737 8.3969 29.2737L8.64319 29.3558H8.3969C7.59277 29.4875 6.76784 29.3908 6.01598 29.0766C5.78452 28.995 5.55947 28.8962 5.34274 28.7811C4.92072 28.5342 4.56264 28.1915 4.29737 27.7808C4.03211 27.3701 3.86706 26.9028 3.81561 26.4165V26.3016H3.91418L5.35912 26.63H5.73681C6.1843 26.678 6.62181 26.7942 7.03403 26.9748ZM9.00445 29.0274L8.79103 28.6169C9.09944 28.9253 9.41285 29.0784 9.61225 29.1757C9.77382 29.2547 9.86053 29.297 9.80908 29.3558C9.69414 29.4872 8.4626 29.0274 8.4626 29.0274H9.00445ZM4.0127 23.2638L3.71709 22.9683C3.39826 22.72 3.05103 22.5105 2.68266 22.3443L2.33779 22.1801C1.97654 21.9667 1.1227 21.3919 1.1227 21.3919H1.04062V21.4905C0.926948 21.9542 0.92419 22.4383 1.0326 22.9033C1.14102 23.3684 1.3575 23.8013 1.66455 24.167C1.82876 24.3476 1.99295 24.5118 2.17358 24.676C2.75508 25.22 3.47765 25.5898 4.25899 25.7433H4.50529L4.30825 25.5791C4.30825 25.5791 3.37231 24.9223 3.0439 24.6103C2.78663 24.3698 2.62847 24.0419 2.60052 23.6908C2.77578 23.939 2.96781 24.1749 3.17525 24.3968C3.58165 24.7318 4.02189 25.0235 4.48885 25.2671H4.57098V25.1686C4.6238 24.8296 4.60114 24.4831 4.50464 24.1539C4.40813 23.8246 4.24017 23.5207 4.0127 23.2638ZM4.78437 25.0701V25.5134L4.29173 25.3656C4.29173 25.3656 5.26051 26.2031 5.4083 26.121C5.47968 26.0813 5.41316 25.9995 5.28829 25.846C5.15464 25.6816 4.95415 25.4351 4.78437 25.0701ZM2.32136 21.2277L2.40344 20.8008C2.45508 21.1881 2.56989 21.4852 2.64617 21.6826C2.71542 21.8618 2.75293 21.9589 2.68261 21.9667C2.53482 21.9831 1.92723 20.9322 1.92723 20.9322L2.32136 21.2277ZM1.71377 16.3181L1.50034 16.6793L1.23761 16.2688C1.23761 16.2688 1.45108 17.4346 1.59886 17.4675C1.66691 17.4826 1.66184 17.3863 1.65259 17.2107C1.64175 17.0049 1.62517 16.6902 1.71377 16.3181ZM2.25567 12.3608L2.55122 12.1145C2.35835 12.4213 2.3059 12.7094 2.27141 12.8988C2.24131 13.0642 2.2249 13.1544 2.14071 13.1161C1.96009 13.034 2.14071 11.901 2.14071 11.901L2.25567 12.3608ZM4.768 8.23922L4.39032 8.37061V7.89441C4.39032 7.89441 3.83206 8.91247 3.91416 9.02742C3.95437 9.08371 4.03003 8.99427 4.16042 8.84012C4.29626 8.67952 4.49152 8.44868 4.768 8.23922ZM9.72694 5.59557C9.83231 5.52818 9.93129 5.45121 10.0225 5.36566C10.2773 5.60936 10.4573 5.86054 10.603 6.06374C10.6732 6.16176 10.7355 6.24861 10.7943 6.31807C11.115 6.60401 11.4551 6.86734 11.8123 7.10622C11.468 7.28743 11.0848 7.38213 10.6957 7.38213C10.3067 7.38213 9.92345 7.28743 9.57916 7.10622C9.01211 6.80798 8.51851 6.38731 8.13416 5.87469C8.27587 5.89327 8.4194 5.89327 8.56111 5.87469L8.95518 6.15386C9.26125 6.32959 9.6044 6.43083 9.95685 6.44941C9.63495 6.28992 9.32732 6.10314 9.03731 5.89113C9.28452 5.8393 9.51892 5.73885 9.72694 5.59557ZM7.60871 5.92397H7.98634C7.6188 6.02504 7.36952 6.19811 7.21548 6.30506C7.09425 6.38923 7.03201 6.43243 7.01755 6.36735C6.98471 6.21957 7.80574 5.49707 7.80574 5.49707L7.60871 5.92397Z" fill="#1F5DA0"/>
<path id="Union_2" fill-rule="evenodd" clip-rule="evenodd" d="M22.1079 5.29999C21.8479 5.06369 21.6215 4.793 21.4347 4.49541C21.3971 4.45024 21.3663 4.40508 21.3377 4.36308C21.304 4.31345 21.2732 4.26825 21.2376 4.23268C21.1938 4.18889 20.8435 3.78751 20.61 3.51993L20.61 3.5199C20.4933 3.38612 20.4057 3.28579 20.4002 3.28032C20.7674 3.11982 21.1676 3.04951 21.5675 3.07521C21.9674 3.10092 22.3554 3.2219 22.699 3.4281C23.4314 3.92699 24.0022 4.629 24.3411 5.44781V5.6283C24.5791 5.84372 25.0174 6.25926 24.9814 6.36735C24.959 6.43456 24.889 6.38629 24.7592 6.29668C24.6035 6.18927 24.3617 6.02244 24.0125 5.92397H24.4067L24.2215 5.55362L24.1769 5.51346C24.1769 5.51346 23.5036 4.80741 23.1916 4.5611C22.965 4.37876 22.6769 4.29058 22.387 4.31481C22.6141 4.43823 22.8335 4.57532 23.0439 4.72532C23.3812 5.02465 23.6841 5.36057 23.947 5.72693C23.6757 5.82221 23.3858 5.85255 23.1006 5.81548C22.8154 5.77841 22.5429 5.67495 22.305 5.51346C22.2319 5.44953 22.1658 5.37796 22.1079 5.29999ZM25.2441 5.92397C25.3309 6.28417 25.4634 6.63182 25.6383 6.95846C25.7288 7.11438 25.852 7.24881 25.9995 7.35254C26.1746 7.59555 26.4035 7.79472 26.6685 7.93432C26.9334 8.07393 27.2272 8.1502 27.5266 8.15717V8.07503C27.394 7.61885 27.2123 7.17842 26.9847 6.76143C26.8453 6.53497 26.68 6.32555 26.4921 6.13745C26.7871 6.21362 27.0405 6.40223 27.1982 6.66291C27.4295 7.08369 27.6378 7.51674 27.8221 7.96013L27.9371 8.15717V7.92726C27.9208 7.21087 27.7231 6.51033 27.3624 5.89115L27.0176 5.3493C26.7587 5.02358 26.4249 4.76534 26.0446 4.59664C25.6643 4.42793 25.2488 4.35374 24.8336 4.38046H24.7515C24.7515 4.38767 24.8213 4.55667 24.9107 4.77311L24.9107 4.77321L24.9108 4.77328C25.0247 5.04927 25.1705 5.40236 25.2441 5.5956V5.92397ZM25.392 6.95844V7.04057C25.4591 7.1564 25.5361 7.26623 25.6219 7.36895C25.7694 7.58106 25.9595 7.76004 26.1801 7.89441C25.8256 7.99269 25.4629 8.05863 25.0964 8.09145C25.4341 8.20656 25.7942 8.24031 26.1474 8.18997L26.6235 8.05863C26.7657 8.11594 26.9148 8.15454 27.0669 8.17353C26.5147 8.52614 25.893 8.75576 25.2442 8.84677C24.8421 8.88533 24.4366 8.82639 24.0622 8.67489C23.6877 8.52339 23.3553 8.2838 23.0931 7.9765C23.0931 7.9765 24.0127 7.73021 24.3575 7.58242C24.6883 7.35202 25.0339 7.14357 25.392 6.95844ZM28.364 10.341C28.307 9.97653 28.307 9.60541 28.364 9.2409C28.3715 9.12608 28.3715 9.01086 28.364 8.89604V7.58243V7.50035H28.4461C28.8267 7.63102 29.1725 7.84683 29.457 8.1314C29.7416 8.41596 29.9574 8.76176 30.0881 9.14238C30.0881 9.27421 30.1257 9.40602 30.1622 9.53396C30.1848 9.6132 30.2069 9.69096 30.2195 9.76631C30.3615 10.4707 30.3219 11.1997 30.1046 11.8846C30.1046 11.8846 30.0225 10.8501 29.9404 10.456C29.8718 10.1534 29.6969 9.88544 29.4477 9.70067C29.5618 9.94244 29.6499 10.1956 29.7105 10.456C29.7686 10.9304 29.7686 11.4101 29.7105 11.8846V11.9667C29.4291 11.8523 29.1769 11.6764 28.9723 11.452C28.7678 11.2275 28.616 10.9602 28.5282 10.6695C28.4664 10.5636 28.4116 10.4539 28.364 10.341ZM28.1999 10.3575V10.2754C28.0222 10.2865 27.8614 10.3126 27.7136 10.3366C27.4246 10.3836 27.1857 10.4224 26.9684 10.3246C26.5255 10.3515 26.0813 10.3515 25.6384 10.3246C25.7754 10.7179 26.005 11.0725 26.3079 11.3583C26.6109 11.6441 26.9783 11.8528 27.3789 11.9667C28.0104 12.1174 28.6685 12.1174 29.3001 11.9667C29.17 11.8998 29.0486 11.817 28.9388 11.7203H28.4462C28.0936 11.6396 27.763 11.4826 27.4774 11.2606C27.8333 11.3532 28.1955 11.419 28.5611 11.4576C28.4115 11.2384 28.2901 11.0012 28.1999 10.7515C28.192 10.6203 28.192 10.4887 28.1999 10.3575ZM30.2195 13.1325C30.046 13.4696 29.919 13.8287 29.8418 14.1998C29.8282 14.3692 29.8282 14.5395 29.8418 14.7089C29.8318 15.0161 29.8882 15.3218 30.0072 15.6052C30.1262 15.8886 30.305 16.143 30.5314 16.3509V16.2688C30.7192 15.8144 30.8568 15.3409 30.9419 14.8566C30.9671 14.5835 30.9671 14.3087 30.9419 14.0356C31.1235 14.2994 31.1997 14.6216 31.1554 14.9388C31.1062 15.3493 30.827 16.3837 30.827 16.3837V16.6136L30.9748 16.433C31.4339 15.8539 31.7287 15.162 31.8286 14.4297C31.8448 14.2111 31.8448 13.9915 31.8286 13.7729C31.8389 13.3389 31.7461 12.9087 31.5577 12.5176C31.3693 12.1265 31.0907 11.7857 30.7449 11.5233C30.7449 11.5233 30.4822 12.4428 30.3508 12.8041L30.2195 13.1325ZM29.7104 14.0849V14.167V14.5775C29.6943 14.8561 29.7334 15.1351 29.8254 15.3985C29.4864 15.2257 29.1574 15.0339 28.8401 14.8238C29.0434 15.1399 29.3123 15.4087 29.6284 15.612L30.0881 15.8419C30.1638 15.9756 30.2518 16.102 30.3509 16.2196C29.6807 16.1216 29.0411 15.8747 28.4789 15.4971C28.1346 15.2525 27.8526 14.9303 27.6558 14.5566C27.459 14.183 27.3529 13.7683 27.3459 13.346C27.7492 13.5593 28.1661 13.7458 28.5939 13.9043C28.9687 13.9467 29.3413 14.007 29.7104 14.0849ZM29.8745 18.6005C30.0699 18.2608 30.3132 17.9511 30.597 17.6809L30.8434 17.4182C31.0897 17.1226 31.6644 16.3345 31.6644 16.3181C31.9088 16.696 32.0626 17.1253 32.1139 17.5724C32.1652 18.0196 32.1125 18.4726 31.96 18.8961L31.6644 19.52C31.3115 20.1889 30.791 20.7547 30.1538 21.162L29.9403 21.277L30.0716 21.0799C30.0716 21.0799 30.6792 20.1768 30.8763 19.7992C31.0337 19.5013 31.069 19.1538 30.9748 18.8304C30.9067 19.1119 30.8132 19.3867 30.6956 19.6514C30.442 20.0804 30.1449 20.482 29.8089 20.85C29.6619 20.5624 29.5771 20.2471 29.5602 19.9246C29.5432 19.602 29.5944 19.2796 29.7104 18.9781C29.7545 18.8479 29.8094 18.7216 29.8745 18.6005ZM29.7762 18.5184V18.4362C29.4408 18.2181 29.0956 18.0154 28.7417 17.8287C28.3839 17.52 28.044 17.1911 27.7237 16.8435C27.5876 17.2593 27.5495 17.7008 27.6121 18.1337C27.6748 18.5667 27.8366 18.9793 28.085 19.3394C28.5093 19.8971 29.0394 20.3658 29.6449 20.7187C29.53 20.5873 29.53 20.4231 29.53 20.2425L29.1522 19.8649C28.919 19.5533 28.7565 19.1947 28.6761 18.8139C28.9026 19.1352 29.1552 19.4373 29.4314 19.7171C29.4351 19.4356 29.4907 19.1573 29.5956 18.8961C29.6166 18.8541 29.6426 18.8121 29.6683 18.7706C29.723 18.6824 29.7762 18.5966 29.7762 18.5184ZM28.2656 22.7712C28.1535 22.8668 28.0492 22.9712 27.9536 23.0832C27.749 23.303 27.5875 23.5592 27.4775 23.8385V23.7565C27.3006 23.37 27.1578 22.9689 27.0505 22.5578C26.9974 22.9717 27.0366 23.3923 27.1655 23.7893C27.2303 23.9694 27.307 24.1449 27.3953 24.3147C27.3846 24.4517 27.3826 24.5893 27.3892 24.7265C27.3964 24.5281 27.4282 24.3309 27.4844 24.1393C27.5807 23.8108 27.7463 23.5067 27.9699 23.2475L28.2984 22.9683C28.6139 22.7107 28.9616 22.4955 29.3329 22.3279L29.6612 22.1637C30.0224 21.9502 30.8764 21.3755 30.8764 21.3755V21.474C30.9861 21.938 30.9868 22.4212 30.8786 22.8856C30.7703 23.3499 30.556 23.7829 30.2524 24.1506L29.7434 24.6596C29.1574 25.1972 28.4367 25.5661 27.658 25.7269H27.4116L27.6086 25.5627C27.6086 25.5627 28.5282 24.9059 28.873 24.5939C29.1269 24.3527 29.2796 24.0239 29.3 23.6743C29.1298 23.9263 28.9375 24.1627 28.7253 24.3805C28.3189 24.7155 27.8786 25.0071 27.4116 25.2507V25.1522C27.3956 25.0402 27.3876 24.9274 27.3876 24.8148C26.9019 24.248 26.5409 23.5853 26.328 22.8697C26.2028 22.4224 26.1836 21.952 26.272 21.496C26.3604 21.0399 26.5538 20.6107 26.837 20.2425C27.0327 20.7104 27.2575 21.1657 27.5102 21.6054C27.7813 21.9811 28.0335 22.3702 28.2656 22.7712ZM24.9158 26.7778H25.0143C24.8718 26.3138 24.7018 25.8587 24.5052 25.4149C24.4091 24.8721 24.3487 24.3236 24.3245 23.7728C23.9195 24.0279 23.5806 24.375 23.3352 24.7859C23.0898 25.1968 22.9449 25.6599 22.9124 26.1374C22.8854 26.9157 23.0138 27.6917 23.2901 28.4198C23.3493 28.2507 23.4206 28.0861 23.5035 27.9272V27.3525C23.5095 26.9199 23.6105 26.4939 23.7992 26.1046C23.767 26.5473 23.767 26.9918 23.7992 27.4346C23.7929 27.4616 23.7929 27.4897 23.7992 27.5167C24.0028 27.2937 24.2412 27.1051 24.5052 26.9584L24.9158 26.7778ZM20.4659 29.4215H20.63C20.6536 28.9401 20.6536 28.4579 20.63 27.9765C20.7213 27.4232 20.8419 26.875 20.9913 26.3345C20.5143 26.4345 20.0683 26.6478 19.6911 26.9565C19.3138 27.2652 19.0163 27.66 18.8238 28.1078C18.4935 28.8237 18.32 29.6019 18.3148 30.3903C18.4253 30.2502 18.546 30.1184 18.676 29.9962C18.696 29.9313 18.719 29.8664 18.7414 29.8033C18.7925 29.659 18.8403 29.5243 18.8403 29.4215C18.997 29.0107 19.2439 28.6404 19.5628 28.3378C19.3833 28.7531 19.2351 29.1812 19.1194 29.6185V29.7171C19.3862 29.5601 19.6825 29.4595 19.9897 29.4215H20.4659ZM21.7303 29.8156C21.3188 29.6972 20.894 29.631 20.4659 29.6186L19.9076 29.5857C19.5649 29.6472 19.2401 29.7835 18.9563 29.9851C18.6724 30.1866 18.4365 30.4483 18.2655 30.7515V30.8336H18.3641C18.9007 30.9711 19.4521 31.0428 20.0061 31.0471C20.3236 31.031 20.638 30.9758 20.9421 30.8829C20.6955 31.1505 20.3533 31.3099 19.9898 31.3262C19.5628 31.3427 18.3477 31.2277 18.3477 31.2277H18.0849L18.3148 31.3755C19.0535 31.7812 19.886 31.9852 20.7286 31.9667H21.4675C21.959 31.8791 22.4226 31.6755 22.8196 31.3728C23.2166 31.0701 23.5355 30.6769 23.75 30.2261V30.1276H23.635C23.6323 30.1276 23.6017 30.1219 23.5504 30.1124L23.5498 30.1123L23.5496 30.1122C23.2858 30.0633 22.4813 29.9141 22.1244 29.9141L21.7303 29.8156ZM18.2655 30.5709L17.9043 30.8829L18.4134 31.1127C18.4134 31.1127 17.0669 31.1128 17.0177 30.9321C16.9947 30.8478 17.1042 30.8351 17.3027 30.812C17.5293 30.7857 17.8718 30.7459 18.2655 30.5709ZM24.9815 26.9748C25.3725 26.8345 25.7817 26.7516 26.1965 26.7286H26.5906L28.0356 26.4001H28.1341V26.4658C28.0827 26.952 27.9177 27.4194 27.6525 27.8301C27.3872 28.2408 27.0291 28.5835 26.6071 28.8304C26.396 28.9455 26.1765 29.0443 25.9503 29.1259C25.1984 29.4401 24.3735 29.5368 23.5693 29.4051H23.3065L23.5529 29.3229C23.5529 29.3229 24.6859 29.011 25.1949 28.8304C25.5228 28.6902 25.7863 28.4325 25.9339 28.1079C25.6859 28.2852 25.422 28.4391 25.1456 28.5676C24.615 28.7574 24.0638 28.8842 23.5036 28.9453H23.4051V28.8468C23.4702 28.5012 23.6116 28.1744 23.819 27.8904C24.0263 27.6063 24.2945 27.3721 24.6038 27.2048L24.9815 26.9748ZM22.9946 29.0274L23.2245 28.6169C22.908 28.9243 22.6015 29.0774 22.4064 29.1748C22.2472 29.2543 22.1622 29.2968 22.2065 29.3558C22.305 29.4872 23.5365 29.0274 23.5365 29.0274H22.9946ZM27.2311 25.0701V25.5134L27.7401 25.3656C27.7401 25.3656 26.7549 26.2031 26.6235 26.121C26.5578 26.0799 26.6236 25.9936 26.7489 25.8292C26.8741 25.665 27.0588 25.4229 27.2311 25.0701ZM29.6611 21.2277L29.579 20.8008C29.5426 21.2103 29.4155 21.5189 29.3345 21.7155C29.2693 21.8737 29.234 21.9594 29.2999 21.9667C29.4477 21.9831 30.0553 20.9322 30.0553 20.9322L29.6611 21.2277ZM30.3181 16.3181L30.5151 16.6793L30.7779 16.2688C30.7779 16.2688 30.5808 17.4346 30.4331 17.4675C30.3625 17.4831 30.3668 17.3792 30.3745 17.1913C30.3829 16.9854 30.3954 16.6787 30.3181 16.3181ZM29.7598 12.3608L29.4478 12.1145C29.6512 12.424 29.6974 12.7144 29.7275 12.9038C29.7534 13.066 29.7674 13.154 29.8583 13.1161C30.0553 13.034 29.8583 11.901 29.8583 11.901L29.7598 12.3608ZM27.2475 8.23922L27.6087 8.37061V7.89441C27.6087 7.89441 28.167 8.91247 28.0685 9.02742C28.0212 9.08257 27.955 8.99783 27.8391 8.84941C27.7135 8.6885 27.5293 8.45275 27.2475 8.23922ZM22.2885 5.59557C22.1779 5.52834 22.0735 5.45139 21.9765 5.36566C21.7568 5.57583 21.6093 5.79157 21.4824 5.9773L21.4824 5.9773C21.3911 6.11081 21.3105 6.2288 21.2212 6.31807C20.8925 6.60127 20.547 6.86444 20.1867 7.10622C20.5335 7.28886 20.9196 7.38433 21.3115 7.38433C21.7035 7.38433 22.0895 7.28886 22.4363 7.10622C23.0034 6.80798 23.497 6.38731 23.8813 5.87469C23.7341 5.89359 23.5851 5.89359 23.4379 5.87469C23.3158 5.9801 23.1838 6.07359 23.0439 6.15386C22.7432 6.32826 22.4056 6.4295 22.0586 6.44941C22.3805 6.28992 22.6882 6.10315 22.9782 5.89113C22.73 5.84244 22.4949 5.74171 22.2885 5.59557Z" fill="#1F5DA0"/>
<path id="Union_3" fill-rule="evenodd" clip-rule="evenodd" d="M15.9991 3.85501L16.4917 5.34926H18.0681L16.7873 6.28522L17.2799 7.79589L15.9991 6.85993L14.7183 7.79589L15.2109 6.28522L13.9301 5.34926H15.5065L15.9991 3.85501ZM15.9991 24.8731L16.4917 26.3837H18.0681L16.7873 27.3033L17.2799 28.8139L15.9991 27.878L14.7183 28.8139L15.2109 27.3033L13.9301 26.3837H15.5065L15.9991 24.8731ZM8.88914 11.9503H8.77419L8.83988 11.8681C8.59358 11.9338 8.3144 12.3279 7.98599 13.0504C7.53811 14.2344 7.21347 15.4615 7.0172 16.7121C6.65027 16.9874 6.29942 17.2835 5.96632 17.5989C5.55581 17.9929 5.3916 18.2392 5.3916 18.3542C5.3916 18.387 5.50656 18.4856 5.50656 18.4856C5.65572 18.5356 5.81716 18.5356 5.96632 18.4856H6.04841C6.27243 18.1429 6.54957 17.838 6.86942 17.5824C6.68659 18.5702 6.68659 19.5832 6.86942 20.5709C6.89407 20.6587 6.93291 20.7419 6.98438 20.8172C7.05518 20.8961 7.1459 20.9545 7.24701 20.9862C7.34812 21.018 7.45591 21.0221 7.5591 20.9979H7.64118V20.8993L7.50979 20.653C7.32276 19.4405 7.36737 18.2036 7.64118 17.0077C8.05363 16.691 8.5136 16.4416 9.00405 16.2688H9.20113C9.16622 17.1453 9.24345 18.0227 9.43099 18.8796C9.47204 18.8878 9.47204 18.8468 9.47203 18.8468C9.47203 18.8468 9.47202 18.8878 9.51307 19.0602C9.59517 19.4051 9.80868 19.4051 10.1699 19.4051C10.2849 19.3723 10.2848 19.2737 10.2848 19.2737L10.1371 18.9289C9.96204 18.1258 9.8903 17.3036 9.92358 16.4823C10.0221 15.1787 9.9781 13.8683 9.79224 12.5742V12.4428C9.74883 12.3081 9.67589 12.1846 9.57877 12.0816C9.48068 12.0101 9.36794 11.9612 9.24869 11.9385C9.12943 11.9158 9.00666 11.9198 8.88914 11.9503ZM8.49502 15.9896C8.24986 16.0629 8.01318 16.1619 7.78896 16.2852C7.94532 15.4843 8.15377 14.6944 8.41294 13.9207C8.7085 13.0832 8.93838 12.6235 9.119 12.525H9.21752V12.6235C9.2612 12.9119 9.2612 13.2053 9.21752 13.4938V15.8911C8.97282 15.8823 8.72842 15.9156 8.49502 15.9896ZM11.6478 14.8074C11.7103 14.7918 11.7755 14.7911 11.8383 14.8054C11.901 14.8196 11.9595 14.8485 12.009 14.8895C11.9877 15.5157 12.0262 16.1425 12.124 16.7614C12.2368 16.561 12.3198 16.3453 12.3703 16.121C12.3703 16.0175 12.4188 15.8925 12.4757 15.7459C12.5181 15.6366 12.5652 15.5153 12.6002 15.3821H12.6057C12.511 14.6863 12.4816 13.9826 12.518 13.2803C12.159 13.4326 11.8131 13.6138 11.4836 13.8221H11.4835C11.385 13.8221 11.2536 13.8221 11.0894 13.6415L11.2372 13.5102C11.63 13.2736 12.042 13.0704 12.4688 12.9026H12.5837C12.5647 12.6896 12.5647 12.4753 12.5837 12.2622C12.6417 12.2394 12.7063 12.2394 12.7643 12.2622C12.8183 12.2372 12.8771 12.2243 12.9367 12.2243C12.9962 12.2243 13.0551 12.2372 13.1092 12.2622V12.7056L13.4585 12.6008C13.4705 12.5318 13.4853 12.4627 13.5033 12.3936C13.5356 12.2697 13.5467 12.2041 13.5523 12.1714C13.5558 12.1504 13.5571 12.1429 13.5602 12.142C13.5619 12.1416 13.5642 12.1433 13.5679 12.1459C13.5785 12.1536 13.6001 12.1694 13.651 12.1637H13.8974C13.9623 12.1467 14.0304 12.1453 14.096 12.1595C14.1616 12.1738 14.2229 12.2034 14.275 12.2458C14.2647 12.2905 14.255 12.3354 14.246 12.3804C14.5159 12.3379 14.7924 12.3419 15.0632 12.3936C15.0481 12.4614 15.0067 12.5204 14.9482 12.5578C14.8941 12.6246 14.8188 12.6709 14.7348 12.6891H14.5377C14.424 12.6737 14.3087 12.6736 14.195 12.6888C14.1879 12.7435 14.1817 12.7984 14.1765 12.8533C14.124 13.6023 14.124 14.354 14.1765 15.1029V15.2671C14.2336 14.974 14.3217 14.6878 14.4393 14.4133C14.6363 13.9864 14.8333 13.74 15.0304 13.6908H15.3588C15.3999 13.7081 15.4363 13.735 15.4648 13.7693C15.4934 13.8036 15.5133 13.8442 15.523 13.8878V13.8878C15.523 13.97 15.523 14.4133 15.6215 15.2015V15.6448C15.6039 15.6925 15.6039 15.7449 15.6215 15.7926C15.6981 15.6443 15.764 15.4906 15.8185 15.3328C15.9335 14.988 16.0648 14.6431 16.2126 14.2819C16.2353 14.2348 16.2723 14.1963 16.3183 14.1717C16.3391 14.1033 16.3641 14.0359 16.3933 13.97C16.4348 13.8156 16.5134 13.6735 16.6221 13.5562C16.7308 13.4389 16.8664 13.3499 17.0173 13.2967L17.0665 13.3296C17.1446 13.3103 17.2259 13.3077 17.3051 13.3218C17.3843 13.3359 17.4597 13.3665 17.5263 13.4117C17.6135 13.4842 17.6764 13.5816 17.7069 13.6908C17.742 13.8294 17.7484 13.9737 17.7258 14.1149C17.7032 14.256 17.6521 14.3911 17.5755 14.5118C17.5011 14.6213 17.4128 14.7207 17.3128 14.8074C17.2373 14.8715 17.1546 14.9266 17.0665 14.9716H16.9023V15.0866C16.9023 15.3 17.05 15.415 17.165 15.4478H17.2471C17.4277 15.4478 17.674 15.0373 17.9696 14.3969C17.9696 14.2559 18.034 14.1364 18.092 14.029C18.1218 13.9737 18.1499 13.9216 18.1666 13.8714C18.1823 13.8322 18.2068 13.797 18.2381 13.7685C18.2515 13.7563 18.2661 13.7455 18.2816 13.7361V13.2803C18.3011 13.2488 18.3275 13.2221 18.3587 13.2022C18.39 13.1823 18.4255 13.1697 18.4623 13.1654C18.521 13.1364 18.5856 13.1214 18.6511 13.1214C18.7166 13.1214 18.7812 13.1364 18.8399 13.1654V13.7893C18.9137 13.5255 19.007 13.2675 19.119 13.0176C19.234 12.7877 19.3982 12.6235 19.5624 12.5906C19.6089 12.5698 19.6592 12.5591 19.7101 12.5591C19.7611 12.5591 19.8115 12.5698 19.858 12.5906V12.6728C19.8916 13.0552 19.8916 13.4398 19.858 13.8222C19.839 14.0845 19.839 14.348 19.858 14.6104C19.9131 14.5434 19.9525 14.4648 19.9729 14.3805C20.1864 13.7729 20.3506 13.3296 20.4491 13.0833C20.4616 13.0559 20.4799 13.0316 20.5025 13.0118C20.5251 12.992 20.5517 12.9771 20.5805 12.9683H20.6954C20.6592 13.1148 20.6097 13.2577 20.5476 13.3953C20.367 13.9207 20.2356 14.2984 20.1371 14.5611C20.0386 14.8238 19.9565 14.8567 19.858 14.8731C19.7915 14.8838 19.7235 14.8774 19.6602 14.8544C19.597 14.8314 19.5407 14.7926 19.4967 14.7417C19.4311 14.6463 19.3812 14.541 19.3489 14.4298V14.3476C19.3124 13.9489 19.3124 13.5477 19.3489 13.149C19.1512 13.6872 18.9813 14.2353 18.8399 14.791C18.8187 14.9143 18.7857 15.0352 18.7414 15.1522C18.6861 15.1911 18.6202 15.2119 18.5526 15.2119C18.485 15.2119 18.419 15.1911 18.3637 15.1522C18.3134 14.8051 18.2861 14.4551 18.2816 14.1044C18.2202 14.293 18.1489 14.4783 18.0681 14.6596C18.0111 14.8138 17.9397 14.9623 17.8546 15.1029C17.717 15.4057 17.471 15.6459 17.165 15.7762C17.0436 15.7943 16.9196 15.7812 16.8047 15.7381C16.6898 15.695 16.5878 15.6234 16.5082 15.5299C16.4084 15.41 16.3355 15.27 16.2948 15.1194C16.2311 14.8654 16.2248 14.6022 16.2743 14.3483C16.2508 14.4201 16.2248 14.4911 16.1962 14.5611L16.1415 14.7056C15.9853 15.1176 15.8543 15.4635 15.7364 15.7433C15.6051 16.0553 15.5229 16.0882 15.3916 16.121C15.2838 16.1481 15.171 16.1481 15.0632 16.121C14.9327 15.9729 14.8472 15.7906 14.8169 15.5955C14.7317 15.1017 14.6822 14.6023 14.6691 14.1013C14.515 14.3094 14.3984 14.5428 14.3243 14.791C14.2514 15.0385 14.1965 15.2909 14.16 15.5463V16.3673C14.1509 16.4162 14.1273 16.4612 14.0921 16.4963C14.0569 16.5315 14.0119 16.5552 13.963 16.5643C13.8573 16.6048 13.7404 16.6048 13.6347 16.5643V16.4658C13.4487 15.4866 13.3716 14.4899 13.4048 13.4937V13.4937C13.4048 13.307 13.4048 13.1107 13.4204 12.91C13.2993 12.9542 13.179 13.001 13.0599 13.0504C12.9925 14.1512 13.0755 15.256 13.3062 16.3345C13.3062 16.4822 13.4047 16.5808 13.4704 16.6136C13.4914 16.6242 13.5142 16.6279 13.5354 16.6315C13.5803 16.6389 13.6182 16.6452 13.6182 16.7121C13.6182 16.8107 13.6181 16.8435 13.4539 16.8599C13.3616 16.8846 13.2637 16.8787 13.1749 16.8432C13.0861 16.8077 13.0112 16.7445 12.9613 16.6629C12.8527 16.4976 12.7748 16.314 12.7314 16.121C12.7024 15.9791 12.6761 15.8366 12.6526 15.6938C12.6103 15.9175 12.5489 16.1374 12.4688 16.3509C12.3265 16.745 12.1952 16.9585 12.0748 16.9913C11.7628 16.9913 11.5821 16.9913 11.5164 16.6957C11.3358 17.0898 11.1881 17.3033 11.0567 17.3361C10.9365 17.3871 10.8013 17.39 10.6791 17.3441C10.5568 17.2983 10.4569 17.2073 10.3999 17.0898V16.9913V16.8599C10.3172 16.3157 10.3172 15.7621 10.3999 15.2179C10.4418 15.1533 10.5062 15.1065 10.5805 15.0865C10.8213 15.0865 10.9526 15.1194 10.9745 15.1851C10.9153 15.7308 10.9153 16.2814 10.9745 16.8271C10.9702 16.8763 10.9702 16.9257 10.9745 16.9749C11.239 16.3778 11.3947 15.7383 11.4344 15.0865C11.4609 15.0493 11.4841 15.0086 11.506 14.9701C11.5518 14.8896 11.5923 14.8185 11.6478 14.8074ZM17.1998 14.5567C17.1281 14.6433 17.0289 14.7028 16.9187 14.7253V14.6268C17.0008 14.0685 17.165 13.7565 17.165 13.7565C17.2143 13.7565 17.3128 13.8222 17.3128 13.97C17.3298 14.0623 17.3298 14.1568 17.3128 14.2491C17.3113 14.3615 17.2715 14.4701 17.1998 14.5567ZM20.9828 10.0106C20.9236 10.0106 20.865 10.0224 20.8104 10.0455C20.7823 10.0462 20.7545 10.0518 20.7282 10.0619C20.7066 10.2748 20.7066 10.4894 20.7282 10.7023H20.6297C20.1986 10.8785 19.7815 11.0871 19.3818 11.3263C19.2341 11.3755 19.234 11.4576 19.234 11.4576C19.4146 11.6382 19.546 11.6382 19.6281 11.6382C19.9615 11.4367 20.307 11.2558 20.6626 11.0964C20.6211 12.0539 20.6928 13.0128 20.8761 13.9535C20.9231 14.1402 21.0008 14.3177 21.106 14.479C21.1534 14.5635 21.2273 14.6302 21.3162 14.6688C21.4052 14.7073 21.5044 14.7156 21.5986 14.6924C21.7628 14.6596 21.7791 14.6268 21.7627 14.5282C21.7516 14.4617 21.7106 14.4551 21.6649 14.4477C21.643 14.4441 21.6199 14.4404 21.5986 14.4297C21.5329 14.3969 21.4344 14.3148 21.4344 14.1506C21.2182 13.0701 21.1355 11.9671 21.188 10.8665C21.5287 10.7196 21.88 10.5989 22.239 10.5052H22.6002H22.7808C22.8668 10.4805 22.9457 10.4355 23.0107 10.3739C23.1092 10.2918 23.1092 10.1932 23.1092 10.1932C22.6707 10.1028 22.2157 10.1369 21.7956 10.2918C21.5781 10.3503 21.3643 10.4216 21.1552 10.5052V10.0455C21.1006 10.0224 21.042 10.0106 20.9828 10.0106ZM21.9433 12.1966C21.9996 12.169 22.0613 12.1547 22.1239 12.1547C22.1865 12.1547 22.2483 12.169 22.3045 12.1966C22.2416 12.6377 22.2416 13.0855 22.3045 13.5266C22.3357 13.6512 22.3797 13.7723 22.4359 13.8878C22.6974 13.6579 22.8714 13.3446 22.9285 13.0011C22.9285 12.9019 22.9644 12.7788 23.0074 12.6316C23.0355 12.5352 23.0667 12.4285 23.0927 12.3115C23.1031 12.2828 23.1206 12.2572 23.1436 12.2371C23.1666 12.217 23.1942 12.2031 23.2241 12.1966H23.3309C23.3389 12.18 23.3471 12.1636 23.3555 12.1473C23.4146 11.9852 23.5083 11.838 23.6303 11.716C23.7523 11.594 23.8995 11.5003 24.0616 11.4412H24.1765H24.1766C24.4393 11.4412 24.6034 11.4412 24.6527 11.6218C24.6835 11.7347 24.6758 11.8348 24.6657 11.9661C24.6596 12.0449 24.6527 12.135 24.6527 12.2458C24.6527 12.3914 24.6527 12.4374 24.6311 12.4525C24.6089 12.468 24.5637 12.4507 24.4721 12.4757C24.3391 12.512 24.2239 12.4948 24.1462 12.4833C24.1184 12.4791 24.0953 12.4757 24.078 12.4757V12.1145C23.9498 12.3149 23.8606 12.5377 23.8152 12.7713C23.7654 12.9874 23.7654 13.212 23.8152 13.4281C23.8973 13.6415 23.9959 13.7565 24.1272 13.7729C24.4118 13.7072 24.7567 13.1161 25.1617 11.9995C25.1914 11.9577 25.2308 11.9239 25.2767 11.901H25.3752C25.3752 11.901 25.2603 12.2458 25.014 12.8533C24.7677 13.4609 24.4228 13.855 24.1108 13.9371C23.9677 13.9852 23.8133 13.9873 23.669 13.9432C23.5247 13.899 23.3978 13.8107 23.3062 13.6908C23.2378 13.6031 23.1876 13.5026 23.1585 13.3952C23.1382 13.273 23.1294 13.1498 23.1319 13.0271C23.0994 13.1287 23.0645 13.2296 23.027 13.3296C22.83 13.7893 22.6329 14.0356 22.3866 14.0849C22.3051 14.0952 22.2223 14.0889 22.1433 14.0663C22.0642 14.0438 21.9907 14.0054 21.9269 13.9535C21.8036 13.8262 21.7183 13.667 21.6805 13.4938V13.3953C21.6109 12.9657 21.6109 12.5276 21.6805 12.098C21.6991 12.0657 21.7252 12.0383 21.7567 12.0183C21.7882 11.9982 21.824 11.9861 21.8611 11.9831L21.9433 12.1966ZM22.0254 11.1949C22.0976 11.178 22.1733 11.1848 22.2414 11.2144C22.3094 11.244 22.3661 11.2947 22.403 11.3591V11.4576C22.4218 11.5275 22.4158 11.6018 22.3858 11.6677C22.3558 11.7336 22.3039 11.7871 22.2389 11.8189H22.1239C22.0475 11.8384 21.9666 11.8311 21.8949 11.7983C21.8232 11.7654 21.765 11.7089 21.7299 11.6383V11.5397V11.5396C21.7299 11.3919 21.7299 11.277 21.9597 11.1785L22.0254 11.1949Z" fill="#01A601"/>
<path id="Union_4" fill-rule="evenodd" clip-rule="evenodd" d="M15.8516 20.5709C15.7821 20.7546 15.6478 20.9064 15.474 20.9979V21.0964L15.6053 21.6054L15.7367 22.1308L15.8516 22.6563H15.3426L15.2112 22.1308L15.0798 21.6054L14.9486 21.0964H14.8172V22.6563H14.3081V19.011H15.0798C15.1667 18.9953 15.2558 18.9953 15.3426 19.011C15.494 19.0635 15.6257 19.1609 15.7203 19.2901C15.815 19.424 15.8613 19.5862 15.8516 19.7499V20.2589C15.8689 20.3457 15.8689 20.4349 15.8516 20.5217V20.5709ZM14.85 20.5709H15.0635C15.1419 20.5686 15.2172 20.5397 15.277 20.4888C15.3092 20.46 15.3347 20.4245 15.3517 20.3848C15.3688 20.3451 15.3769 20.3021 15.3755 20.2589V19.8977C15.3745 19.8573 15.3653 19.8174 15.3483 19.7807C15.3314 19.744 15.3071 19.7112 15.277 19.6842C15.2172 19.6334 15.1419 19.6044 15.0635 19.6021H14.85V20.5709ZM12.4526 19.011H13.2244C13.4335 19.011 13.6339 19.094 13.7817 19.2418C13.9295 19.3897 14.0126 19.5901 14.0126 19.7992V20.3082C14.0113 20.5171 13.9289 20.7173 13.7827 20.8665C13.7093 20.9396 13.6222 20.9976 13.5264 21.037C13.4306 21.0765 13.328 21.0966 13.2244 21.0964H12.9781V22.6563H12.4526V19.011ZM13.1751 20.653C13.2618 20.6518 13.3444 20.6164 13.405 20.5545C13.4301 20.4856 13.4301 20.41 13.405 20.341V19.8977C13.4104 19.8554 13.406 19.8125 13.3922 19.7723C13.3784 19.732 13.3556 19.6954 13.3255 19.6653C13.2954 19.6352 13.2587 19.6123 13.2184 19.5985C13.1781 19.5847 13.1353 19.5804 13.0931 19.5857H12.896V20.6202L13.1751 20.653ZM17.5593 19.3394C17.468 19.2069 17.3351 19.1086 17.1817 19.0602V19.1095C17.0949 19.0922 17.0057 19.0922 16.919 19.1095H16.6726C16.5603 19.1436 16.4586 19.2058 16.3771 19.2901C16.3024 19.3624 16.2434 19.4492 16.2039 19.5453C16.1643 19.6414 16.145 19.7446 16.1472 19.8484V21.9174C16.1435 22.0829 16.1956 22.2448 16.295 22.3772C16.3863 22.5097 16.5192 22.6079 16.6726 22.6563C16.754 22.6718 16.8376 22.6718 16.919 22.6563C17.1269 22.6502 17.3253 22.5685 17.4772 22.4264C17.5503 22.353 17.6083 22.266 17.6478 22.1702C17.6872 22.0744 17.7074 21.9717 17.7071 21.8681V19.7992C17.7107 19.6337 17.6587 19.4718 17.5593 19.3394ZM17.1817 19.7992V21.8681C17.1715 21.9121 17.1487 21.952 17.116 21.983C17.0638 22.0354 16.9929 22.065 16.919 22.0652C16.8503 22.0625 16.7854 22.033 16.7383 21.983C16.7261 21.9545 16.7198 21.9238 16.7198 21.8927C16.7198 21.8617 16.7261 21.831 16.7383 21.8024V19.7335C16.7143 19.67 16.7143 19.5999 16.7383 19.5364C16.7963 19.5136 16.8609 19.5136 16.919 19.5364C16.9548 19.5308 16.9913 19.5337 17.0257 19.5449C17.0601 19.5562 17.0915 19.5754 17.1171 19.601C17.1427 19.6266 17.1619 19.6579 17.1731 19.6923C17.1844 19.7268 17.1873 19.7634 17.1817 19.7992ZM18.1012 19.011H18.8237C18.925 19.0101 19.0253 19.0301 19.1186 19.0696C19.2118 19.1092 19.2959 19.1675 19.3656 19.2409C19.4348 19.3095 19.4894 19.3915 19.5261 19.4818C19.5627 19.5721 19.5808 19.6689 19.5791 19.7663V21.8845C19.583 21.9847 19.5661 22.0846 19.5294 22.1779C19.4926 22.2712 19.4368 22.3559 19.3656 22.4264C19.2959 22.4998 19.2118 22.5581 19.1186 22.5977C19.0253 22.6372 18.925 22.6571 18.8237 22.6563H18.0356V19.011H18.1012ZM18.8237 22.1308C18.9027 22.1315 18.979 22.1021 19.0372 22.0487C19.0694 22.02 19.0949 21.9845 19.1119 21.9448C19.129 21.905 19.1371 21.8621 19.1357 21.8189V19.8977C19.1348 19.8573 19.1255 19.8174 19.1085 19.7807C19.0916 19.744 19.0673 19.7112 19.0372 19.6842C18.979 19.6308 18.9027 19.6015 18.8237 19.6021H18.6102V22.1965L18.8237 22.1308ZM20.0325 22.1702C19.9931 22.0744 19.9729 21.9718 19.9732 21.8682L20.1046 19.011H20.6299V21.8682C20.6177 21.8967 20.6115 21.9274 20.6115 21.9585C20.6115 21.9895 20.6177 22.0202 20.6299 22.0488C20.6771 22.0987 20.742 22.1281 20.8106 22.1308C20.8846 22.1307 20.9555 22.1011 21.0077 22.0488C21.0199 22.0202 21.0261 21.9895 21.0261 21.9585C21.0261 21.9274 21.0199 21.8967 21.0077 21.8682V19.011H21.5331V21.8682C21.5334 21.9718 21.5132 22.0744 21.4737 22.1702C21.4343 22.266 21.3764 22.3531 21.3032 22.4264C21.231 22.5011 21.1441 22.56 21.0481 22.5996C20.952 22.6391 20.8488 22.6584 20.7449 22.6563C20.6436 22.6571 20.5434 22.6372 20.4501 22.5977C20.3569 22.5581 20.2729 22.4998 20.2031 22.4264C20.13 22.3531 20.072 22.266 20.0325 22.1702ZM23.4049 19.7992C23.4102 19.6964 23.394 19.5936 23.3572 19.4975C23.3205 19.4013 23.264 19.3139 23.1915 19.2409C23.0423 19.0947 22.8421 19.0122 22.6332 19.011C22.4243 19.0122 22.2241 19.0947 22.0749 19.2409C22.0002 19.3131 21.9414 19.4 21.9018 19.4961C21.8623 19.5921 21.8429 19.6953 21.8451 19.7992V21.8682C21.8448 21.9718 21.865 22.0744 21.9044 22.1702C21.9439 22.266 22.0018 22.3531 22.0749 22.4264C22.2241 22.5726 22.4243 22.655 22.6332 22.6563C22.8421 22.655 23.0423 22.5726 23.1915 22.4264C23.2624 22.3522 23.3179 22.2646 23.3545 22.1688C23.3912 22.0729 23.4083 21.9707 23.4049 21.8682V21.0964H22.8959V21.8682C22.8966 21.9025 22.8896 21.9365 22.8754 21.9678C22.8612 21.999 22.8401 22.0267 22.8138 22.0488C22.7667 22.0987 22.7018 22.1281 22.6332 22.1308C22.5646 22.1281 22.4998 22.0987 22.4526 22.0488C22.4263 22.0267 22.4053 21.999 22.3911 21.9678C22.3769 21.9365 22.3698 21.9025 22.3704 21.8682V19.7992C22.3723 19.7256 22.4017 19.6553 22.4526 19.6021C22.5107 19.5793 22.5752 19.5793 22.6332 19.6021C22.6913 19.5793 22.7558 19.5793 22.8138 19.6021C22.8648 19.6553 22.894 19.7256 22.8959 19.7992V20.5709H23.4049V19.7992ZM23.7334 19.011H25.2934V19.52H24.7679V22.6399H24.2425V19.52H23.7334V19.011Z" fill="#1F5DA0"/>
</g>
<defs>
<clipPath id="clip0_992_26732">
<rect width="32" height="32" fill="white"/>
</clipPath>
</defs>
</svg>
