<svg width="30" height="30" viewBox="0 0 30 30" fill="none" xmlns="http://www.w3.org/2000/svg">
<g clip-path="url(#clip0_5929_73)">
<path d="M4.6875 18.75H0.9375V29.0625H4.6875V18.75Z" fill="#2365AC"/>
<path d="M1.875 24.375C1.87583 25.2057 2.15247 26.0127 2.66151 26.6691C3.17054 27.3256 3.88316 27.7945 4.6875 28.0022V18.75H1.875V24.375Z" fill="#1F5DA0"/>
<path d="M4.6875 20.625L6.58406 19.4395C7.79533 18.6826 9.19494 18.2812 10.6233 18.2813C11.6547 18.2814 12.6754 18.4911 13.6233 18.8977C14.8403 19.4191 16.1505 19.6878 17.4745 19.6875H19.6875C20.0605 19.6875 20.4181 19.8357 20.6819 20.0994C20.9456 20.3631 21.0938 20.7208 21.0938 21.0938L26.827 18.8906C27.0652 18.7982 27.3183 18.7505 27.5738 18.75C27.7693 18.75 27.9628 18.7885 28.1435 18.8633C28.3241 18.9381 28.4882 19.0478 28.6265 19.186C28.7647 19.3243 28.8744 19.4884 28.9492 19.669C29.024 19.8497 29.0625 20.0432 29.0625 20.2387C29.0625 20.4989 28.9942 20.7546 28.8646 20.9802C28.735 21.2058 28.5485 21.3935 28.3237 21.5245L19.7044 26.5528C18.4655 27.2756 17.0568 27.6564 15.6225 27.6562C14.592 27.6561 13.5709 27.4595 12.6141 27.0769L10.0655 26.0573C9.60924 25.875 9.12242 25.7813 8.63109 25.7812C7.60682 25.7813 6.62448 26.1881 5.90016 26.9123L4.6875 28.125" fill="#337FD0"/>
<path d="M28.5783 19.1461C28.3053 18.8922 27.9465 18.7507 27.5738 18.75C27.3183 18.7505 27.0652 18.7982 26.827 18.8906L21.0938 21.0938C21.0934 20.7329 20.9537 20.3861 20.7037 20.1258C20.6756 20.0963 20.6442 20.07 20.6138 20.0428C20.3589 19.815 20.0293 19.6886 19.6875 19.6875H17.4745C16.1512 19.6875 14.8416 19.4188 13.6252 18.8977C12.4949 18.4131 11.2642 18.2093 10.038 18.3037C8.81193 18.398 7.62687 18.7878 6.58406 19.4395L4.6875 20.625V26.7188L5.43141 25.9748C5.96592 25.4405 6.64545 25.0746 7.38584 24.9227C8.12622 24.7707 8.89492 24.8392 9.59672 25.1198L12.1453 26.1394C13.2892 26.5969 14.5224 26.7875 15.751 26.6967C16.9797 26.6059 18.1714 26.2361 19.2356 25.6153L27.855 20.587C28.0798 20.456 28.2662 20.2683 28.3959 20.0427C28.5255 19.8171 28.5937 19.5614 28.5938 19.3013C28.5912 19.2493 28.5861 19.1975 28.5783 19.1461Z" fill="#1F5DA0"/>
<path d="M15 18.2812C12.595 17.01 10.5822 15.1071 9.17808 12.7771C7.77398 10.4472 7.03175 7.77857 7.03125 5.05828V3.28125C7.65285 3.28125 8.24899 3.03432 8.68853 2.59478C9.12807 2.15524 9.375 1.5591 9.375 0.9375H20.625C20.625 1.5591 20.8719 2.15524 21.3115 2.59478C21.751 3.03432 22.3471 3.28125 22.9688 3.28125V5.05828C22.9685 7.77833 22.2266 10.4468 20.8229 12.7767C19.4192 15.1066 17.4069 17.0097 15.0023 18.2812H15Z" fill="#01A601"/>
<path d="M15 16.4062L14.1094 15.72C12.4909 14.4754 11.18 12.8755 10.2778 11.0439C9.37569 9.21235 8.90642 7.19797 8.90625 5.15625L10.7812 2.8125H19.2188L21.0938 5.15625C21.0936 7.19797 20.6243 9.21235 19.7222 11.0439C18.82 12.8755 17.5091 14.4754 15.8906 15.72L15 16.4062Z" fill="#01A601"/>
<path d="M19.2188 2.8125H11.0625L10.3125 3.75C10.3127 5.79172 10.7819 7.8061 11.6841 9.6377C12.5862 11.4693 13.8971 13.0691 15.5156 14.3137L16.4062 15L17.2969 14.3137C17.4844 14.1694 17.6672 14.0189 17.8458 13.8656C19.9389 11.4466 21.0918 8.35516 21.0938 5.15625L19.2188 2.8125Z" fill="#01A601"/>
<path d="M14.0625 12.6562L19.6875 6.5625L18.2812 5.15625L14.0625 9.84375L12.6562 8.4375L11.25 9.84375L14.0625 12.6562Z" fill="white"/>
<path d="M27.5737 18.2813C27.2609 18.2809 26.9506 18.3386 26.6587 18.4514L21.4505 20.4544C21.3187 20.0926 21.0788 19.78 20.7635 19.559C20.4482 19.338 20.0726 19.2192 19.6875 19.2188H17.4745C16.2147 19.2208 14.9676 18.9656 13.8098 18.4688C12.6085 17.9612 11.3032 17.7485 10.0029 17.8486C8.70259 17.9487 7.44514 18.3585 6.33562 19.0439L5.15625 19.7813V18.75C5.15625 18.6257 5.10686 18.5065 5.01896 18.4185C4.93105 18.3306 4.81182 18.2813 4.6875 18.2813H0.9375C0.81318 18.2813 0.693951 18.3306 0.606044 18.4185C0.518136 18.5065 0.46875 18.6257 0.46875 18.75V29.0625C0.46875 29.1868 0.518136 29.3061 0.606044 29.394C0.693951 29.4819 0.81318 29.5313 0.9375 29.5313H4.6875C4.81182 29.5313 4.93105 29.4819 5.01896 29.394C5.10686 29.3061 5.15625 29.1868 5.15625 29.0625V28.3191L6.23109 27.2442C6.7009 26.7747 7.29815 26.4534 7.94882 26.3201C8.59949 26.1868 9.27497 26.2473 9.89156 26.4942L12.4402 27.5138C13.6516 27.9909 14.955 28.1889 16.2535 28.0929C17.552 27.9969 18.8121 27.6094 19.9402 26.9592L28.56 21.9295C28.9315 21.7128 29.2213 21.3797 29.3846 20.9817C29.5478 20.5838 29.5755 20.1431 29.4632 19.7279C29.351 19.3127 29.1051 18.946 28.7636 18.6845C28.422 18.423 28.0039 18.2813 27.5737 18.2813ZM4.21875 28.5938H1.40625V19.2188H4.21875V28.5938ZM28.0875 21.1195L19.4681 26.1478C18.4635 26.7271 17.3412 27.0723 16.1847 27.1578C15.0282 27.2433 13.8673 27.0667 12.7884 26.6414L10.2394 25.6223C9.45237 25.3075 8.59026 25.2305 7.75992 25.401C6.92959 25.5715 6.16755 25.9819 5.56828 26.5814L5.15625 26.9934V20.8847L6.8325 19.837C7.81365 19.231 8.92557 18.8686 10.0754 18.78C11.2252 18.6915 12.3795 18.8794 13.4419 19.328C14.7156 19.8759 16.0879 20.1578 17.4745 20.1563H19.6875C19.9361 20.1563 20.1746 20.255 20.3504 20.4308C20.5262 20.6067 20.625 20.8451 20.625 21.0938C20.625 21.3424 20.5262 21.5808 20.3504 21.7567C20.1746 21.9325 19.9361 22.0313 19.6875 22.0313H13.5937V22.9688H19.6875C20.126 22.9679 20.5504 22.8134 20.8868 22.5321C21.2232 22.2507 21.4504 21.8604 21.5288 21.4289L26.9953 19.3261C27.1799 19.255 27.376 19.2186 27.5737 19.2188C27.7981 19.2181 28.0165 19.2915 28.1949 19.4276C28.3734 19.5636 28.5019 19.7548 28.5607 19.9714C28.6194 20.1879 28.6051 20.4178 28.5199 20.6254C28.4347 20.833 28.2833 21.0067 28.0894 21.1195H28.0875Z" fill="#347FD0"/>
<path d="M21.0938 0.9375C21.0938 0.81318 21.0444 0.693951 20.9565 0.606044C20.8686 0.518136 20.7493 0.46875 20.625 0.46875H9.375C9.25068 0.46875 9.13146 0.518136 9.04355 0.606044C8.95564 0.693951 8.90625 0.81318 8.90625 0.9375C8.90625 1.43478 8.70871 1.91169 8.35708 2.26333C8.00545 2.61496 7.52854 2.8125 7.03125 2.8125C6.90693 2.8125 6.78771 2.86189 6.6998 2.94979C6.61189 3.0377 6.5625 3.15693 6.5625 3.28125V5.05828C6.56032 7.85749 7.32109 10.6044 8.76304 13.0036C10.205 15.4029 12.2736 17.3637 14.7464 18.6755C14.8231 18.7294 14.9138 18.7597 15.0075 18.7627C15.084 18.7619 15.1585 18.7381 15.2213 18.6942C17.7038 17.3863 19.7814 15.4246 21.2296 13.0212C22.6777 10.6178 23.4412 7.86424 23.4375 5.05828V3.28125C23.4375 3.15693 23.3881 3.0377 23.3002 2.94979C23.2123 2.86189 23.0931 2.8125 22.9688 2.8125C22.4715 2.8125 21.9946 2.61496 21.6429 2.26333C21.2913 1.91169 21.0938 1.43478 21.0938 0.9375ZM22.5 5.05828C22.5046 7.65231 21.8106 10.1997 20.4909 12.4329C19.1712 14.6662 17.2745 16.5029 15 17.7502C12.7262 16.5021 10.83 14.6652 9.51045 12.4322C8.19086 10.1991 7.49644 7.6521 7.5 5.05828V3.71109C8.07549 3.61271 8.60626 3.33816 9.01909 2.92533C9.43192 2.5125 9.70646 1.98173 9.80485 1.40625H20.1952C20.2935 1.98173 20.5681 2.5125 20.9809 2.92533C21.3938 3.33816 21.9245 3.61271 22.5 3.71109V5.05828Z" fill="#1F5DA0"/>
<path d="M19.2188 2.34375H10.7812C10.711 2.34372 10.6415 2.35951 10.5782 2.38994C10.5148 2.42036 10.4591 2.46466 10.4152 2.51953L8.54016 4.86328C8.47366 4.94644 8.43745 5.04977 8.4375 5.15625C8.44396 7.26854 8.93233 9.3515 9.86542 11.2465C10.7985 13.1416 12.1517 14.7987 13.822 16.0917L14.7127 16.7775C14.7946 16.8406 14.8952 16.8748 14.9986 16.8748C15.102 16.8748 15.2026 16.8406 15.2845 16.7775L16.1752 16.0917C17.846 14.799 19.1997 13.142 20.1333 11.2469C21.0669 9.35188 21.5557 7.26877 21.5625 5.15625C21.5625 5.04977 21.5263 4.94644 21.4598 4.86328L19.5848 2.51953C19.5409 2.46466 19.4852 2.42036 19.4218 2.38994C19.3585 2.35951 19.289 2.34372 19.2188 2.34375ZM15.6061 15.3487L15 15.8147L14.3939 15.3487C12.8587 14.1605 11.6104 12.6421 10.7416 10.906C9.87283 9.16984 9.40575 7.2605 9.375 5.31937L11.0062 3.28125H18.9938L20.625 5.31937C20.5942 7.2605 20.1272 9.16984 19.2584 10.906C18.3896 12.6421 17.1413 14.1605 15.6061 15.3487Z" fill="white"/>
<path d="M18.2691 4.6875C18.2055 4.68919 18.1428 4.70382 18.0851 4.7305C18.0273 4.75717 17.9755 4.79533 17.933 4.84266L14.0447 9.16266L12.9877 8.10609C12.8998 8.01822 12.7806 7.96885 12.6563 7.96885C12.532 7.96885 12.4128 8.01822 12.3249 8.10609L10.9186 9.51234C10.8307 9.60025 10.7814 9.71945 10.7814 9.84375C10.7814 9.96805 10.8307 10.0873 10.9186 10.1752L13.7311 12.9877C13.819 13.0756 13.9382 13.125 14.0625 13.125H14.0719C14.135 13.1237 14.1973 13.1097 14.2549 13.0838C14.3125 13.0578 14.3642 13.0205 14.407 12.9741L20.032 6.88031C20.1141 6.79134 20.1585 6.67407 20.1561 6.55306C20.1537 6.43205 20.1045 6.31668 20.0189 6.23109L18.6127 4.82484C18.5687 4.77846 18.5153 4.74216 18.4559 4.71845C18.3966 4.69473 18.3329 4.68418 18.2691 4.6875ZM14.0503 11.9798L11.9128 9.84375L12.6563 9.10031L13.7311 10.1752C13.7756 10.2208 13.8292 10.2566 13.8883 10.2802C13.9475 10.3039 14.011 10.3149 14.0747 10.3125C14.1383 10.3108 14.2009 10.2962 14.2587 10.2695C14.3165 10.2428 14.3682 10.2047 14.4108 10.1573L18.2991 5.83734L19.0374 6.57563L14.0503 11.9798Z" fill="#01A601"/>
</g>
<defs>
<clipPath id="clip0_5929_73">
<rect width="30" height="30" fill="white"/>
</clipPath>
</defs>
</svg>
